NunitoSans-ExpandedBold.ufo
<glyph name="exclam" format="2">
  <advance width="296.5"/>
  <unicode hex="0021"/>
  <outline>
    <contour>
      <point x="107.0" y="216.0" type="line"/>
      <point x="189.5" y="216.0" type="line"/>
      <point x="232.0" y="705.0" type="line"/>
      <point x="64.5" y="705.0" type="line"/>
    </contour>
    <contour>
      <point x="72.0" y="0.0" type="line"/>
      <point x="224.0" y="0.0" type="line"/>
      <point x="224.0" y="149.5" type="line"/>
      <point x="72.0" y="149.5" type="line"/>
    </contour>
  </outline>
</glyph>
<glyph name="numbersign" format="2">
  <advance width="730.0"/>
  <unicode hex="0023"/>
  <outline>
    <contour>
      <point x="97.0" y="0.0" type="line"/>
      <point x="195.5" y="0.0" type="line"/>
      <point x="237.5" y="169.0" type="line"/>
      <point x="403.5" y="169.0" type="line"/>
      <point x="361.5" y="0.0" type="line"/>
      <point x="460.0" y="0.0" type="line"/>
      <point x="501.5" y="169.0" type="line"/>
      <point x="665.5" y="169.0" type="line"/>
      <point x="665.5" y="255.0" type="line"/>
      <point x="521.0" y="255.0" type="line"/>
      <point x="571.0" y="458.0" type="line"/>
      <point x="691.5" y="458.0" type="line"/>
      <point x="691.5" y="544.0" type="line"/>
      <point x="590.5" y="544.0" type="line"/>
      <point x="631.0" y="705.0" type="line"/>
      <point x="532.5" y="705.0" type="line"/>
      <point x="492.5" y="544.0" type="line"/>
      <point x="327.0" y="544.0" type="line"/>
      <point x="367.0" y="705.0" type="line"/>
      <point x="268.0" y="705.0" type="line"/>
      <point x="228.5" y="544.0" type="line"/>
      <point x="64.5" y="544.0" type="line"/>
      <point x="64.5" y="458.0" type="line"/>
      <point x="209.0" y="458.0" type="line"/>
      <point x="159.0" y="255.0" type="line"/>
      <point x="38.5" y="255.0" type="line"/>
      <point x="38.5" y="169.0" type="line"/>
      <point x="138.5" y="169.0" type="line"/>
    </contour>
    <contour>
      <point x="257.5" y="255.0" type="line"/>
      <point x="308.0" y="458.0" type="line"/>
      <point x="472.5" y="458.0" type="line"/>
      <point x="422.0" y="255.0" type="line"/>
    </contour>
  </outline>
</glyph>
<glyph name="dollar" format="2">
  <advance width="748.0"/>
  <unicode hex="0024"/>
  <outline>
    <contour>
      <point x="330.0" y="-115.0" type="line"/>
      <point x="442.0" y="-115.0" type="line"/>
      <point x="442.0" y="18.0" type="line"/>
      <point x="408.0" y="-5.5" type="line"/>
      <point x="594.0" y="4.0"/>
      <point x="701.0" y="78.5"/>
      <point x="701.0" y="203.5" type="curve" smooth="yes"/>
      <point x="701.0" y="312.0"/>
      <point x="634.0" y="372.5"/>
      <point x="484.5" y="395.0" type="curve" smooth="yes"/>
      <point x="321.5" y="419.5" type="line" smooth="yes"/>
      <point x="246.0" y="430.0"/>
      <point x="205.5" y="452.5"/>
      <point x="205.5" y="503.5" type="curve" smooth="yes"/>
      <point x="205.5" y="560.5"/>
      <point x="268.0" y="593.5"/>
      <point x="377.0" y="593.5" type="curve" smooth="yes"/>
      <point x="480.5" y="593.5"/>
      <point x="558.5" y="572.0"/>
      <point x="626.5" y="522.0" type="curve"/>
      <point x="674.5" y="626.5" type="line"/>
      <point x="615.0" y="676.5"/>
      <point x="526.5" y="705.0"/>
      <point x="423.5" y="710.0" type="curve"/>
      <point x="442.0" y="693.5" type="line"/>
      <point x="442.0" y="820.0" type="line"/>
      <point x="330.0" y="820.0" type="line"/>
      <point x="330.0" y="693.5" type="line"/>
      <point x="350.0" y="709.0" type="line"/>
      <point x="173.5" y="700.0"/>
      <point x="65.0" y="618.0"/>
      <point x="65.0" y="494.5" type="curve" smooth="yes"/>
      <point x="65.0" y="384.5"/>
      <point x="141.5" y="320.5"/>
      <point x="285.0" y="301.5" type="curve" smooth="yes"/>
      <point x="448.5" y="279.5" type="line" smooth="yes"/>
      <point x="525.5" y="269.0"/>
      <point x="561.5" y="246.5"/>
      <point x="561.5" y="193.0" type="curve" smooth="yes"/>
      <point x="561.5" y="140.5"/>
      <point x="500.0" y="111.5"/>
      <point x="386.0" y="111.5" type="curve" smooth="yes"/>
      <point x="267.5" y="111.5"/>
      <point x="179.0" y="134.0"/>
      <point x="94.5" y="186.0" type="curve"/>
      <point x="46.5" y="76.0" type="line"/>
      <point x="120.5" y="27.5"/>
      <point x="228.5" y="-2.5"/>
      <point x="350.0" y="-6.0" type="curve"/>
      <point x="330.0" y="17.0" type="line"/>
    </contour>
  </outline>
</glyph>
<glyph name="percent" format="2">
  <advance width="1169.0"/>
  <unicode hex="0025"/>
  <outline>
    <contour>
      <point x="373.0" y="-29.0" type="line"/>
      <point x="881.0" y="675.5" type="line"/>
      <point x="797.0" y="733.5" type="line"/>
      <point x="288.0" y="29.0" type="line"/>
    </contour>
    <contour>
      <point x="276.0" y="286.5" type="curve" smooth="yes"/>
      <point x="415.0" y="286.5"/>
      <point x="494.0" y="368.5"/>
      <point x="494.0" y="500.5" type="curve" smooth="yes"/>
      <point x="494.0" y="633.0"/>
      <point x="416.0" y="715.5"/>
      <point x="276.0" y="715.5" type="curve" smooth="yes"/>
      <point x="135.5" y="715.5"/>
      <point x="58.0" y="631.0"/>
      <point x="58.0" y="500.5" type="curve" smooth="yes"/>
      <point x="58.0" y="369.0"/>
      <point x="137.0" y="286.5"/>
    </contour>
    <contour>
      <point x="276.0" y="375.5" type="curve" smooth="yes"/>
      <point x="210.0" y="375.5"/>
      <point x="171.5" y="421.0"/>
      <point x="171.5" y="500.5" type="curve" smooth="yes"/>
      <point x="171.5" y="579.5"/>
      <point x="210.0" y="626.5"/>
      <point x="276.0" y="626.5" type="curve" smooth="yes"/>
      <point x="342.5" y="626.5"/>
      <point x="380.5" y="580.0"/>
      <point x="380.5" y="500.5" type="curve" smooth="yes"/>
      <point x="380.5" y="420.5"/>
      <point x="342.0" y="375.5"/>
    </contour>
    <contour>
      <point x="894.0" y="-10.5" type="curve" smooth="yes"/>
      <point x="1033.0" y="-10.5"/>
      <point x="1112.0" y="71.5"/>
      <point x="1112.0" y="203.5" type="curve" smooth="yes"/>
      <point x="1112.0" y="336.0"/>
      <point x="1034.0" y="418.5"/>
      <point x="894.0" y="418.5" type="curve" smooth="yes"/>
      <point x="753.5" y="418.5"/>
      <point x="676.0" y="334.0"/>
      <point x="676.0" y="203.5" type="curve" smooth="yes"/>
      <point x="676.0" y="72.0"/>
      <point x="755.0" y="-10.5"/>
    </contour>
    <contour>
      <point x="894.0" y="78.5" type="curve" smooth="yes"/>
      <point x="828.0" y="78.5"/>
      <point x="789.5" y="124.0"/>
      <point x="789.5" y="203.5" type="curve" smooth="yes"/>
      <point x="789.5" y="282.5"/>
      <point x="828.0" y="329.5"/>
      <point x="894.0" y="329.5" type="curve" smooth="yes"/>
      <point x="960.5" y="329.5"/>
      <point x="998.5" y="283.0"/>
      <point x="998.5" y="203.5" type="curve" smooth="yes"/>
      <point x="998.5" y="123.5"/>
      <point x="960.0" y="78.5"/>
    </contour>
  </outline>
</glyph>
<glyph name="ampersand" format="2">
  <advance width="889.0"/>
  <unicode hex="0026"/>
  <outline>
    <contour>
      <point x="356.0" y="-10.0" type="curve" smooth="yes"/>
      <point x="473.0" y="-10.0"/>
      <point x="572.5" y="26.0"/>
      <point x="645.5" y="90.5" type="curve"/>
      <point x="624.0" y="90.5" type="line"/>
      <point x="728.5" y="0.0" type="line"/>
      <point x="898.5" y="0.0" type="line"/>
      <point x="701.5" y="161.5" type="line"/>
      <point x="703.5" y="144.0" type="line"/>
      <point x="762.0" y="216.0"/>
      <point x="797.0" y="313.0"/>
      <point x="803.5" y="426.0" type="curve"/>
      <point x="687.5" y="426.0" type="line"/>
      <point x="683.0" y="338.0"/>
      <point x="658.5" y="264.5"/>
      <point x="618.5" y="209.5" type="curve"/>
      <point x="639.0" y="209.5" type="line"/>
      <point x="434.0" y="386.5" type="line"/>
      <point x="414.5" y="357.0" type="line"/>
      <point x="545.5" y="408.0"/>
      <point x="611.0" y="475.5"/>
      <point x="611.0" y="558.5" type="curve" smooth="yes"/>
      <point x="611.0" y="652.5"/>
      <point x="529.5" y="715.0"/>
      <point x="396.0" y="715.0" type="curve" smooth="yes"/>
      <point x="265.5" y="715.0"/>
      <point x="174.5" y="647.5"/>
      <point x="174.5" y="549.5" type="curve" smooth="yes"/>
      <point x="174.5" y="484.0"/>
      <point x="215.5" y="431.5"/>
      <point x="275.5" y="381.5" type="curve"/>
      <point x="298.5" y="412.0" type="line"/>
      <point x="267.0" y="398.0" type="line" smooth="yes"/>
      <point x="155.5" y="356.0"/>
      <point x="70.5" y="284.5"/>
      <point x="70.5" y="183.0" type="curve" smooth="yes"/>
      <point x="70.5" y="66.5"/>
      <point x="182.5" y="-10.0"/>
    </contour>
    <contour>
      <point x="366.5" y="94.5" type="curve" smooth="yes"/>
      <point x="263.0" y="94.5"/>
      <point x="207.5" y="132.0"/>
      <point x="207.5" y="195.0" type="curve" smooth="yes"/>
      <point x="207.5" y="259.5"/>
      <point x="263.0" y="296.0"/>
      <point x="337.0" y="325.5" type="curve" smooth="yes"/>
      <point x="368.0" y="339.5" type="line"/>
      <point x="320.0" y="346.0" type="line"/>
      <point x="555.5" y="144.0" type="line"/>
      <point x="555.5" y="157.0" type="line"/>
      <point x="508.0" y="115.5"/>
      <point x="444.5" y="94.5"/>
    </contour>
    <contour>
      <point x="395.5" y="621.0" type="curve" smooth="yes"/>
      <point x="453.0" y="621.0"/>
      <point x="491.0" y="594.098"/>
      <point x="491.0" y="552.0" type="curve" smooth="yes"/>
      <point x="491.0" y="488.5"/>
      <point x="412.5" y="456.5"/>
      <point x="344.5" y="428.5" type="curve"/>
      <point x="385.5" y="424.5" type="line"/>
      <point x="329.5" y="472.5"/>
      <point x="295.0" y="503.5"/>
      <point x="295.0" y="547.0" type="curve" smooth="yes"/>
      <point x="295.0" y="592.606"/>
      <point x="335.0" y="621.0"/>
    </contour>
  </outline>
</glyph>
<glyph name="parenleft" format="2">
  <advance width="425.5"/>
  <unicode hex="0028"/>
  <outline>
    <contour>
      <point x="290.5" y="-195.0" type="curve"/>
      <point x="380.5" y="-153.0" type="line"/>
      <point x="301.0" y="-1.0"/>
      <point x="269.0" y="118.5"/>
      <point x="269.0" y="263.0" type="curve" smooth="yes"/>
      <point x="269.0" y="408.5"/>
      <point x="301.0" y="527.0"/>
      <point x="380.5" y="679.0" type="curve"/>
      <point x="290.5" y="721.0" type="line"/>
      <point x="178.0" y="579.0"/>
      <point x="123.0" y="430.0"/>
      <point x="123.0" y="263.0" type="curve" smooth="yes"/>
      <point x="123.0" y="97.0"/>
      <point x="178.0" y="-53.5"/>
    </contour>
  </outline>
</glyph>
<glyph name="parenright" format="2">
  <advance width="425.5"/>
  <unicode hex="0029"/>
  <outline>
    <contour>
      <point x="135.0" y="-195.0" type="line"/>
      <point x="247.5" y="-53.5"/>
      <point x="302.5" y="97.0"/>
      <point x="302.5" y="263.0" type="curve" smooth="yes"/>
      <point x="302.5" y="429.5"/>
      <point x="247.5" y="579.5"/>
      <point x="135.0" y="721.0" type="curve"/>
      <point x="45.0" y="679.0" type="line"/>
      <point x="124.0" y="527.0"/>
      <point x="157.5" y="408.0"/>
      <point x="157.5" y="263.0" type="curve" smooth="yes"/>
      <point x="157.5" y="118.0"/>
      <point x="124.0" y="-1.0"/>
      <point x="45.0" y="-153.0" type="curve"/>
    </contour>
  </outline>
</glyph>
<glyph name="asterisk" format="2">
  <advance width="498.0"/>
  <unicode hex="002A"/>
  <outline>
    <contour>
      <point x="182.0" y="303.5" type="line"/>
      <point x="257.0" y="458.0" type="line"/>
      <point x="242.5" y="458.0" type="line"/>
      <point x="316.0" y="303.5" type="line"/>
      <point x="398.5" y="350.5" type="line"/>
      <point x="301.0" y="500.0" type="line"/>
      <point x="282.5" y="474.0" type="line"/>
      <point x="462.0" y="464.0" type="line"/>
      <point x="462.0" y="557.5" type="line"/>
      <point x="282.5" y="547.0" type="line"/>
      <point x="301.0" y="522.0" type="line"/>
      <point x="398.5" y="670.0" type="line"/>
      <point x="316.0" y="719.0" type="line"/>
      <point x="242.5" y="565.5" type="line"/>
      <point x="257.0" y="565.5" type="line"/>
      <point x="183.0" y="719.0" type="line"/>
      <point x="100.5" y="671.0" type="line"/>
      <point x="198.5" y="521.0" type="line"/>
      <point x="216.5" y="547.0" type="line"/>
      <point x="37.0" y="557.5" type="line"/>
      <point x="37.0" y="464.0" type="line"/>
      <point x="216.5" y="474.0" type="line"/>
      <point x="197.5" y="500.0" type="line"/>
      <point x="99.5" y="350.5" type="line"/>
    </contour>
  </outline>
</glyph>
<glyph name="plus" format="2">
  <advance width="748.0"/>
  <unicode hex="002B"/>
  <outline>
    <contour>
      <point x="323.0" y="16.0" type="line"/>
      <point x="425.0" y="16.0" type="line"/>
      <point x="425.0" y="240.0" type="line"/>
      <point x="645.0" y="240.0" type="line"/>
      <point x="645.0" y="334.5" type="line"/>
      <point x="425.0" y="334.5" type="line"/>
      <point x="425.0" y="558.0" type="line"/>
      <point x="323.0" y="558.0" type="line"/>
      <point x="323.0" y="334.5" type="line"/>
      <point x="103.0" y="334.5" type="line"/>
      <point x="103.0" y="240.0" type="line"/>
      <point x="323.0" y="240.0" type="line"/>
    </contour>
  </outline>
</glyph>
<glyph name="comma" format="2">
  <advance width="296.0"/>
  <unicode hex="002C"/>
  <outline>
    <contour>
      <point x="140.5" y="-138.0" type="line"/>
      <point x="201.5" y="-78.5"/>
      <point x="224.0" y="-27.0"/>
      <point x="224.0" y="47.5" type="curve" smooth="yes"/>
      <point x="224.0" y="149.5" type="line"/>
      <point x="72.0" y="149.5" type="line"/>
      <point x="72.0" y="0.0" type="line"/>
      <point x="175.0" y="0.0" type="line"/>
      <point x="146.5" y="28.0" type="line"/>
      <point x="146.0" y="-20.5"/>
      <point x="130.0" y="-52.5"/>
      <point x="87.5" y="-95.5" type="curve"/>
    </contour>
  </outline>
</glyph>
<glyph name="hyphen" format="2">
  <advance width="533.5"/>
  <unicode hex="002D"/>
  <outline>
    <contour>
      <point x="84.5" y="214.0" type="line"/>
      <point x="449.0" y="214.0" type="line"/>
      <point x="449.0" y="323.0" type="line"/>
      <point x="84.5" y="323.0" type="line"/>
    </contour>
  </outline>
</glyph>
<glyph name="period" format="2">
  <advance width="296.0"/>
  <unicode hex="002E"/>
  <outline>
    <contour>
      <point x="72.0" y="0.0" type="line"/>
      <point x="224.0" y="0.0" type="line"/>
      <point x="224.0" y="149.5" type="line"/>
      <point x="72.0" y="149.5" type="line"/>
    </contour>
  </outline>
</glyph>
<glyph name="slash" format="2">
  <advance width="374.0"/>
  <unicode hex="002F"/>
  <outline>
    <contour>
      <point x="78.0" y="-73.0" type="line"/>
      <point x="398.0" y="723.5" type="line"/>
      <point x="296.0" y="762.0" type="line"/>
      <point x="-24.0" y="-34.5" type="line"/>
    </contour>
  </outline>
</glyph>
<glyph name="zero" format="2">
  <advance width="748.0"/>
  <unicode hex="0030"/>
  <outline>
    <contour>
      <point x="374.0" y="-10.0" type="curve" smooth="yes"/>
      <point x="576.5" y="-10.0"/>
      <point x="691.0" y="122.0"/>
      <point x="691.0" y="353.5" type="curve" smooth="yes"/>
      <point x="691.0" y="584.0"/>
      <point x="576.5" y="715.0"/>
      <point x="374.0" y="715.0" type="curve" smooth="yes"/>
      <point x="172.0" y="715.0"/>
      <point x="57.0" y="584.0"/>
      <point x="57.0" y="352.0" type="curve" smooth="yes"/>
      <point x="57.0" y="121.5"/>
      <point x="172.0" y="-10.0"/>
    </contour>
    <contour>
      <point x="374.0" y="103.5" type="curve" smooth="yes"/>
      <point x="253.5" y="103.5"/>
      <point x="194.0" y="184.5"/>
      <point x="194.0" y="352.5" type="curve" smooth="yes"/>
      <point x="194.0" y="518.5"/>
      <point x="253.5" y="601.5"/>
      <point x="374.0" y="601.5" type="curve" smooth="yes"/>
      <point x="495.0" y="601.5"/>
      <point x="554.0" y="519.5"/>
      <point x="554.0" y="353.5" type="curve" smooth="yes"/>
      <point x="554.0" y="185.5"/>
      <point x="494.5" y="103.5"/>
    </contour>
  </outline>
</glyph>
<glyph name="one" format="2">
  <advance width="748.0"/>
  <unicode hex="0031"/>
  <outline>
    <contour>
      <point x="133.0" y="0.0" type="line"/>
      <point x="674.5" y="0.0" type="line"/>
      <point x="674.5" y="115.5" type="line"/>
      <point x="482.5" y="115.5" type="line"/>
      <point x="482.5" y="705.0" type="line"/>
      <point x="379.0" y="705.0" type="line"/>
      <point x="120.5" y="557.0" type="line"/>
      <point x="174.0" y="457.5" type="line"/>
      <point x="406.0" y="590.0" type="line"/>
      <point x="341.0" y="590.0" type="line"/>
      <point x="341.0" y="115.5" type="line"/>
      <point x="133.0" y="115.5" type="line"/>
    </contour>
  </outline>
</glyph>
<glyph name="two" format="2">
  <advance width="748.0"/>
  <unicode hex="0032"/>
  <outline>
    <contour>
      <point x="103.0" y="0.0" type="line"/>
      <point x="680.0" y="0.0" type="line"/>
      <point x="680.0" y="115.5" type="line"/>
      <point x="270.5" y="115.5" type="line"/>
      <point x="274.0" y="98.5" type="line"/>
      <point x="496.0" y="271.0" type="line" smooth="yes"/>
      <point x="571.0" y="325.0"/>
      <point x="646.0" y="405.5"/>
      <point x="646.0" y="514.0" type="curve" smooth="yes"/>
      <point x="646.0" y="642.5"/>
      <point x="544.0" y="715.0"/>
      <point x="366.5" y="715.0" type="curve" smooth="yes"/>
      <point x="248.5" y="715.0"/>
      <point x="143.5" y="682.5"/>
      <point x="69.0" y="623.5" type="curve"/>
      <point x="122.0" y="518.5" type="line"/>
      <point x="187.5" y="571.0"/>
      <point x="267.0" y="597.5"/>
      <point x="357.0" y="597.5" type="curve" smooth="yes"/>
      <point x="454.0" y="597.5"/>
      <point x="505.0" y="565.5"/>
      <point x="505.0" y="498.5" type="curve" smooth="yes"/>
      <point x="505.0" y="424.0"/>
      <point x="442.0" y="372.5"/>
      <point x="405.0" y="343.0" type="curve" smooth="yes"/>
      <point x="103.0" y="104.0" type="line"/>
    </contour>
  </outline>
</glyph>
<glyph name="three" format="2">
  <advance width="748.0"/>
  <unicode hex="0033"/>
  <outline>
    <contour>
      <point x="362.5" y="-10.0" type="curve" smooth="yes"/>
      <point x="551.0" y="-10.0"/>
      <point x="670.5" y="66.0"/>
      <point x="670.5" y="193.5" type="curve" smooth="yes"/>
      <point x="670.5" y="290.5"/>
      <point x="601.5" y="355.5"/>
      <point x="479.5" y="371.5" type="curve"/>
      <point x="479.5" y="359.0" type="line"/>
      <point x="584.5" y="379.0"/>
      <point x="644.5" y="441.5"/>
      <point x="644.5" y="529.5" type="curve" smooth="yes"/>
      <point x="644.5" y="644.5"/>
      <point x="541.0" y="715.0"/>
      <point x="367.5" y="715.0" type="curve" smooth="yes"/>
      <point x="249.0" y="715.0"/>
      <point x="141.0" y="682.0"/>
      <point x="69.5" y="623.5" type="curve"/>
      <point x="121.5" y="519.5" type="line"/>
      <point x="187.5" y="573.0"/>
      <point x="262.0" y="597.5"/>
      <point x="355.0" y="597.5" type="curve" smooth="yes"/>
      <point x="453.5" y="597.5"/>
      <point x="507.0" y="567.0"/>
      <point x="507.0" y="509.0" type="curve" smooth="yes"/>
      <point x="507.0" y="448.5"/>
      <point x="449.0" y="413.5"/>
      <point x="344.0" y="413.5" type="curve" smooth="yes"/>
      <point x="219.0" y="413.5" type="line"/>
      <point x="219.0" y="298.5" type="line"/>
      <point x="357.0" y="298.5" type="line" smooth="yes"/>
      <point x="475.0" y="298.5"/>
      <point x="533.0" y="269.0"/>
      <point x="533.0" y="206.0" type="curve" smooth="yes"/>
      <point x="533.0" y="141.5"/>
      <point x="472.0" y="107.5"/>
      <point x="360.0" y="107.5" type="curve" smooth="yes"/>
      <point x="260.5" y="107.5"/>
      <point x="183.0" y="131.5"/>
      <point x="106.0" y="184.0" type="curve"/>
      <point x="54.5" y="77.0" type="line"/>
      <point x="125.0" y="23.0"/>
      <point x="239.0" y="-10.0"/>
    </contour>
  </outline>
</glyph>
<glyph name="four" format="2">
  <advance width="748.0"/>
  <unicode hex="0034"/>
  <outline>
    <contour>
      <point x="449.0" y="0.0" type="line"/>
      <point x="588.0" y="0.0" type="line"/>
      <point x="588.0" y="130.0" type="line"/>
      <point x="714.0" y="130.0" type="line"/>
      <point x="714.0" y="243.5" type="line"/>
      <point x="588.0" y="243.5" type="line"/>
      <point x="588.0" y="705.0" type="line"/>
      <point x="471.0" y="705.0" type="line"/>
      <point x="55.5" y="232.5" type="line"/>
      <point x="55.5" y="130.0" type="line"/>
      <point x="449.0" y="130.0" type="line"/>
    </contour>
    <contour>
      <point x="449.0" y="243.5" type="line"/>
      <point x="162.0" y="243.5" type="line"/>
      <point x="162.0" y="195.0" type="line"/>
      <point x="488.5" y="563.5" type="line"/>
      <point x="449.0" y="563.5" type="line"/>
    </contour>
  </outline>
</glyph>
<glyph name="five" format="2">
  <advance width="748.0"/>
  <unicode hex="0035"/>
  <outline>
    <contour>
      <point x="385.0" y="-10.0" type="curve" smooth="yes"/>
      <point x="577.0" y="-10.0"/>
      <point x="698.0" y="78.5"/>
      <point x="698.0" y="227.0" type="curve" smooth="yes"/>
      <point x="698.0" y="363.0"/>
      <point x="595.0" y="450.0"/>
      <point x="427.0" y="450.0" type="curve" smooth="yes"/>
      <point x="338.0" y="450.0"/>
      <point x="261.0" y="424.5"/>
      <point x="218.0" y="380.5" type="curve"/>
      <point x="248.5" y="380.5" type="line"/>
      <point x="248.5" y="590.5" type="line"/>
      <point x="644.5" y="590.5" type="line"/>
      <point x="644.5" y="705.0" type="line"/>
      <point x="113.5" y="705.0" type="line"/>
      <point x="113.5" y="274.5" type="line"/>
      <point x="210.0" y="274.5" type="line"/>
      <point x="261.0" y="317.0"/>
      <point x="320.0" y="338.0"/>
      <point x="393.0" y="338.0" type="curve" smooth="yes"/>
      <point x="500.5" y="338.0"/>
      <point x="560.5" y="294.0"/>
      <point x="560.5" y="223.0" type="curve" smooth="yes"/>
      <point x="560.5" y="147.5"/>
      <point x="495.0" y="107.5"/>
      <point x="384.0" y="107.5" type="curve" smooth="yes"/>
      <point x="291.5" y="107.5"/>
      <point x="213.0" y="132.5"/>
      <point x="138.5" y="183.0" type="curve"/>
      <point x="87.0" y="76.0" type="line"/>
      <point x="154.0" y="23.5"/>
      <point x="268.0" y="-10.0"/>
    </contour>
  </outline>
</glyph>
<glyph name="six" format="2">
  <advance width="748.0"/>
  <unicode hex="0036"/>
  <outline>
    <contour>
      <point x="401.5" y="-10.0" type="curve" smooth="yes"/>
      <point x="577.5" y="-10.0"/>
      <point x="693.5" y="88.0"/>
      <point x="693.5" y="226.5" type="curve" smooth="yes"/>
      <point x="693.5" y="360.0"/>
      <point x="586.5" y="454.5"/>
      <point x="428.0" y="454.5" type="curve" smooth="yes"/>
      <point x="303.0" y="454.5"/>
      <point x="207.0" y="393.0"/>
      <point x="190.5" y="297.5" type="curve"/>
      <point x="204.0" y="297.5" type="line"/>
      <point x="204.0" y="367.5" type="line" smooth="yes"/>
      <point x="204.0" y="520.0"/>
      <point x="288.0" y="597.5"/>
      <point x="435.0" y="597.5" type="curve" smooth="yes"/>
      <point x="512.0" y="597.5"/>
      <point x="583.5" y="574.5"/>
      <point x="642.5" y="528.5" type="curve"/>
      <point x="693.0" y="633.5" type="line"/>
      <point x="631.0" y="684.5"/>
      <point x="534.5" y="715.0"/>
      <point x="436.5" y="715.0" type="curve" smooth="yes"/>
      <point x="205.5" y="715.0"/>
      <point x="68.5" y="580.5"/>
      <point x="68.5" y="337.5" type="curve" smooth="yes"/>
      <point x="68.5" y="116.5"/>
      <point x="193.0" y="-10.0"/>
    </contour>
    <contour>
      <point x="398.0" y="100.5" type="curve" smooth="yes"/>
      <point x="298.5" y="100.5"/>
      <point x="234.0" y="148.5"/>
      <point x="234.0" y="222.0" type="curve" smooth="yes"/>
      <point x="234.0" y="296.0"/>
      <point x="298.5" y="345.0"/>
      <point x="398.0" y="345.0" type="curve" smooth="yes"/>
      <point x="496.5" y="345.0"/>
      <point x="561.0" y="296.0"/>
      <point x="561.0" y="222.0" type="curve" smooth="yes"/>
      <point x="561.0" y="148.5"/>
      <point x="496.5" y="100.5"/>
    </contour>
  </outline>
</glyph>
<glyph name="seven" format="2">
  <advance width="748.0"/>
  <unicode hex="0037"/>
  <outline>
    <contour>
      <point x="117.5" y="0.0" type="line"/>
      <point x="281.0" y="0.0" type="line"/>
      <point x="677.5" y="599.5" type="line"/>
      <point x="677.5" y="705.0" type="line"/>
      <point x="71.0" y="705.0" type="line"/>
      <point x="71.0" y="584.5" type="line"/>
      <point x="553.5" y="584.5" type="line"/>
      <point x="552.0" y="634.0" type="line"/>
    </contour>
  </outline>
</glyph>
<glyph name="eight" format="2">
  <advance width="748.0"/>
  <unicode hex="0038"/>
  <outline>
    <contour>
      <point x="374.0" y="-10.0" type="curve" smooth="yes"/>
      <point x="580.5" y="-10.0"/>
      <point x="697.0" y="67.0"/>
      <point x="697.0" y="191.0" type="curve" smooth="yes"/>
      <point x="697.0" y="291.0"/>
      <point x="621.5" y="360.0"/>
      <point x="498.0" y="372.0" type="curve"/>
      <point x="498.0" y="349.5" type="line"/>
      <point x="607.5" y="367.0"/>
      <point x="676.0" y="434.5"/>
      <point x="676.0" y="525.5" type="curve" smooth="yes"/>
      <point x="676.0" y="644.0"/>
      <point x="564.0" y="715.0"/>
      <point x="374.0" y="715.0" type="curve" smooth="yes"/>
      <point x="184.5" y="715.0"/>
      <point x="73.0" y="643.5"/>
      <point x="73.0" y="526.5" type="curve" smooth="yes"/>
      <point x="73.0" y="435.0"/>
      <point x="141.5" y="367.5"/>
      <point x="250.0" y="349.5" type="curve"/>
      <point x="250.0" y="372.0" type="line"/>
      <point x="127.5" y="359.5"/>
      <point x="51.0" y="290.5"/>
      <point x="51.0" y="191.0" type="curve" smooth="yes"/>
      <point x="51.0" y="67.0"/>
      <point x="167.5" y="-10.0"/>
    </contour>
    <contour>
      <point x="374.0" y="98.5" type="curve" smooth="yes"/>
      <point x="248.0" y="98.5"/>
      <point x="183.0" y="134.5"/>
      <point x="183.0" y="202.0" type="curve" smooth="yes"/>
      <point x="183.0" y="269.5"/>
      <point x="247.0" y="302.5"/>
      <point x="374.0" y="302.5" type="curve" smooth="yes"/>
      <point x="502.0" y="302.5"/>
      <point x="565.0" y="269.5"/>
      <point x="565.0" y="202.0" type="curve" smooth="yes"/>
      <point x="565.0" y="134.5"/>
      <point x="501.0" y="98.5"/>
    </contour>
    <contour>
      <point x="374.0" y="411.5" type="curve" smooth="yes"/>
      <point x="265.0" y="411.5"/>
      <point x="205.0" y="447.0"/>
      <point x="205.0" y="510.0" type="curve" smooth="yes"/>
      <point x="205.0" y="572.0"/>
      <point x="265.0" y="606.5"/>
      <point x="374.0" y="606.5" type="curve" smooth="yes"/>
      <point x="483.0" y="606.5"/>
      <point x="544.0" y="572.0"/>
      <point x="544.0" y="510.0" type="curve" smooth="yes"/>
      <point x="544.0" y="447.0"/>
      <point x="483.0" y="411.5"/>
    </contour>
  </outline>
</glyph>
<glyph name="nine" format="2">
  <advance width="748.0"/>
  <unicode hex="0039"/>
  <outline>
    <contour>
      <point x="312.5" y="-10.0" type="curve" smooth="yes"/>
      <point x="542.5" y="-10.0"/>
      <point x="679.5" y="125.5"/>
      <point x="679.5" y="367.5" type="curve" smooth="yes"/>
      <point x="679.5" y="588.5"/>
      <point x="556.0" y="715.0"/>
      <point x="346.5" y="715.0" type="curve" smooth="yes"/>
      <point x="171.5" y="715.0"/>
      <point x="54.5" y="618.0"/>
      <point x="54.5" y="478.5" type="curve" smooth="yes"/>
      <point x="54.5" y="345.0"/>
      <point x="162.5" y="250.5"/>
      <point x="320.0" y="250.5" type="curve" smooth="yes"/>
      <point x="446.0" y="250.5"/>
      <point x="542.0" y="312.0"/>
      <point x="557.5" y="407.5" type="curve"/>
      <point x="545.0" y="407.5" type="line"/>
      <point x="545.0" y="337.5" type="line" smooth="yes"/>
      <point x="545.0" y="185.0"/>
      <point x="461.0" y="107.5"/>
      <point x="313.0" y="107.5" type="curve" smooth="yes"/>
      <point x="236.0" y="107.5"/>
      <point x="164.5" y="131.5"/>
      <point x="106.5" y="177.5" type="curve"/>
      <point x="55.0" y="72.5" type="line"/>
      <point x="118.0" y="21.5"/>
      <point x="213.5" y="-10.0"/>
    </contour>
    <contour>
      <point x="351.0" y="361.0" type="curve" smooth="yes"/>
      <point x="252.5" y="361.0"/>
      <point x="188.0" y="409.0"/>
      <point x="188.0" y="483.0" type="curve" smooth="yes"/>
      <point x="188.0" y="556.5"/>
      <point x="252.5" y="605.5"/>
      <point x="351.0" y="605.5" type="curve" smooth="yes"/>
      <point x="450.5" y="605.5"/>
      <point x="515.0" y="556.5"/>
      <point x="515.0" y="483.0" type="curve" smooth="yes"/>
      <point x="515.0" y="409.0"/>
      <point x="450.5" y="361.0"/>
    </contour>
  </outline>
</glyph>
<glyph name="colon" format="2">
  <advance width="296.0"/>
  <unicode hex="003A"/>
  <outline>
    <contour>
      <point x="72.0" y="340.5" type="line"/>
      <point x="224.0" y="340.5" type="line"/>
      <point x="224.0" y="489.0" type="line"/>
      <point x="72.0" y="489.0" type="line"/>
    </contour>
    <contour>
      <point x="72.0" y="0.0" type="line"/>
      <point x="224.0" y="0.0" type="line"/>
      <point x="224.0" y="149.5" type="line"/>
      <point x="72.0" y="149.5" type="line"/>
    </contour>
  </outline>
</glyph>
<glyph name="less" format="2">
  <advance width="748.0"/>
  <unicode hex="003C"/>
  <outline>
    <contour>
      <point x="642.0" y="25.5" type="line"/>
      <point x="642.0" y="132.0" type="line"/>
      <point x="148.0" y="319.5" type="line"/>
      <point x="148.0" y="255.0" type="line"/>
      <point x="642.0" y="442.0" type="line"/>
      <point x="642.0" y="549.5" type="line"/>
      <point x="103.0" y="339.5" type="line"/>
      <point x="103.0" y="235.0" type="line"/>
    </contour>
  </outline>
</glyph>
<glyph name="equal" format="2">
  <advance width="748.0"/>
  <unicode hex="003D"/>
  <outline>
    <contour>
      <point x="103.0" y="345.0" type="line"/>
      <point x="645.0" y="345.0" type="line"/>
      <point x="645.0" y="439.5" type="line"/>
      <point x="103.0" y="439.5" type="line"/>
    </contour>
    <contour>
      <point x="103.0" y="135.5" type="line"/>
      <point x="645.0" y="135.5" type="line"/>
      <point x="645.0" y="229.0" type="line"/>
      <point x="103.0" y="229.0" type="line"/>
    </contour>
  </outline>
</glyph>
<glyph name="greater" format="2">
  <advance width="748.0"/>
  <unicode hex="003E"/>
  <outline>
    <contour>
      <point x="103.0" y="25.5" type="line"/>
      <point x="642.0" y="235.0" type="line"/>
      <point x="642.0" y="339.5" type="line"/>
      <point x="103.0" y="549.5" type="line"/>
      <point x="103.0" y="442.0" type="line"/>
      <point x="598.0" y="255.0" type="line"/>
      <point x="598.0" y="319.5" type="line"/>
      <point x="103.0" y="132.0" type="line"/>
    </contour>
  </outline>
</glyph>
<glyph name="question" format="2">
  <advance width="562.0"/>
  <unicode hex="003F"/>
  <outline>
    <contour>
      <point x="227.0" y="216.0" type="line"/>
      <point x="309.5" y="216.0" type="line"/>
      <point x="312.0" y="240.0" type="line" smooth="yes"/>
      <point x="317.5" y="282.0"/>
      <point x="342.0" y="317.5"/>
      <point x="426.5" y="376.5" type="curve" smooth="yes"/>
      <point x="510.0" y="436.0"/>
      <point x="542.5" y="484.0"/>
      <point x="542.5" y="543.5" type="curve" smooth="yes"/>
      <point x="542.5" y="650.0"/>
      <point x="440.0" y="715.0"/>
      <point x="289.0" y="715.0" type="curve" smooth="yes"/>
      <point x="179.0" y="715.0"/>
      <point x="70.0" y="679.5"/>
      <point x="0.5" y="623.5" type="curve"/>
      <point x="52.5" y="518.5" type="line"/>
      <point x="121.0" y="571.5"/>
      <point x="194.5" y="597.5"/>
      <point x="280.5" y="597.5" type="curve" smooth="yes"/>
      <point x="356.0" y="597.5"/>
      <point x="401.5" y="575.0"/>
      <point x="401.5" y="527.0" type="curve" smooth="yes"/>
      <point x="401.5" y="497.0"/>
      <point x="385.0" y="471.0"/>
      <point x="327.0" y="427.0" type="curve" smooth="yes"/>
      <point x="248.0" y="367.0"/>
      <point x="227.0" y="314.5"/>
      <point x="227.0" y="258.5" type="curve" smooth="yes"/>
    </contour>
    <contour>
      <point x="192.0" y="0.0" type="line"/>
      <point x="344.5" y="0.0" type="line"/>
      <point x="344.5" y="149.5" type="line"/>
      <point x="192.0" y="149.5" type="line"/>
    </contour>
  </outline>
</glyph>
<glyph name="at" format="2">
  <advance width="1186.5"/>
  <unicode hex="0040"/>
  <outline>
    <contour>
      <point x="605.0" y="-165.5" type="curve" smooth="yes"/>
      <point x="748.5" y="-165.5"/>
      <point x="879.0" y="-131.5"/>
      <point x="961.0" y="-70.5" type="curve"/>
      <point x="914.5" y="0.0" type="line"/>
      <point x="841.0" y="-54.0"/>
      <point x="731.5" y="-83.0"/>
      <point x="605.5" y="-83.0" type="curve" smooth="yes"/>
      <point x="336.0" y="-83.0"/>
      <point x="167.5" y="47.5"/>
      <point x="167.5" y="266.5" type="curve" smooth="yes"/>
      <point x="167.5" y="488.5"/>
      <point x="341.0" y="632.5"/>
      <point x="628.0" y="632.5" type="curve" smooth="yes"/>
      <point x="875.5" y="632.5"/>
      <point x="1025.0" y="524.0"/>
      <point x="1025.0" y="339.0" type="curve" smooth="yes"/>
      <point x="1025.0" y="221.0"/>
      <point x="965.0" y="138.5"/>
      <point x="874.5" y="138.5" type="curve" smooth="yes"/>
      <point x="831.5" y="138.5"/>
      <point x="810.5" y="157.5"/>
      <point x="810.5" y="198.5" type="curve" smooth="yes"/>
      <point x="810.5" y="217.0"/>
      <point x="815.5" y="240.5"/>
      <point x="818.5" y="253.5" type="curve" smooth="yes"/>
      <point x="872.5" y="489.5" type="line"/>
      <point x="767.0" y="489.5" type="line"/>
      <point x="745.5" y="395.5" type="line"/>
      <point x="764.5" y="395.5" type="line"/>
      <point x="745.5" y="465.0"/>
      <point x="689.0" y="500.0"/>
      <point x="597.0" y="500.0" type="curve" smooth="yes"/>
      <point x="439.5" y="500.0"/>
      <point x="329.0" y="395.0"/>
      <point x="329.0" y="248.5" type="curve" smooth="yes"/>
      <point x="329.0" y="128.0"/>
      <point x="404.5" y="59.0"/>
      <point x="529.0" y="59.0" type="curve" smooth="yes"/>
      <point x="633.5" y="59.0"/>
      <point x="710.0" y="109.0"/>
      <point x="750.0" y="200.0" type="curve"/>
      <point x="717.5" y="185.5" type="line"/>
      <point x="715.0" y="106.5"/>
      <point x="765.5" y="59.0"/>
      <point x="865.5" y="59.0" type="curve" smooth="yes"/>
      <point x="1017.5" y="59.0"/>
      <point x="1118.5" y="173.5"/>
      <point x="1118.5" y="341.0" type="curve" smooth="yes"/>
      <point x="1118.5" y="571.5"/>
      <point x="924.5" y="715.0"/>
      <point x="625.0" y="715.0" type="curve" smooth="yes"/>
      <point x="288.0" y="715.0"/>
      <point x="68.0" y="535.0"/>
      <point x="68.0" y="268.0" type="curve" smooth="yes"/>
      <point x="68.0" y="2.0"/>
      <point x="284.5" y="-165.5"/>
    </contour>
    <contour>
      <point x="553.0" y="143.0" type="curve" smooth="yes"/>
      <point x="479.0" y="143.0"/>
      <point x="439.5" y="180.0"/>
      <point x="439.5" y="252.0" type="curve" smooth="yes"/>
      <point x="439.5" y="349.5"/>
      <point x="510.0" y="416.0"/>
      <point x="617.5" y="416.0" type="curve" smooth="yes"/>
      <point x="690.0" y="416.0"/>
      <point x="728.5" y="385.0"/>
      <point x="728.5" y="315.0" type="curve" smooth="yes"/>
      <point x="728.5" y="219.5"/>
      <point x="658.5" y="143.0"/>
    </contour>
  </outline>
</glyph>
<glyph name="A" format="2">
  <advance width="917.5"/>
  <unicode hex="0041"/>
  <anchor x="459.0" y="0.0" name="bottom"/>
  <anchor x="869.5" y="0.0" name="ogonek"/>
  <anchor x="459.5" y="705.0" name="top"/>
  <outline>
    <contour>
      <point x="5.0" y="0.0" type="line"/>
      <point x="153.0" y="0.0" type="line"/>
      <point x="259.0" y="197.0" type="line"/>
      <point x="193.0" y="158.0" type="line"/>
      <point x="723.5" y="158.0" type="line"/>
      <point x="658.0" y="197.0" type="line"/>
      <point x="764.5" y="0.0" type="line"/>
      <point x="913.5" y="0.0" type="line"/>
      <point x="522.0" y="705.0" type="line"/>
      <point x="396.5" y="705.0" type="line"/>
    </contour>
    <contour>
      <point x="457.5" y="570.0" type="line"/>
      <point x="459.5" y="570.0" type="line"/>
      <point x="638.0" y="233.5" type="line"/>
      <point x="674.5" y="267.0" type="line"/>
      <point x="242.0" y="267.0" type="line"/>
      <point x="279.5" y="233.5" type="line"/>
    </contour>
  </outline>
</glyph>
<glyph name="B" format="2">
  <advance width="854.5"/>
  <unicode hex="0042"/>
  <anchor x="426.5" y="0.0" name="bottom"/>
  <anchor x="427.0" y="705.0" name="top"/>
  <outline>
    <contour>
      <point x="98.0" y="0.0" type="line"/>
      <point x="499.0" y="0.0" type="line" smooth="yes"/>
      <point x="683.472" y="0.0"/>
      <point x="788.0" y="72.5"/>
      <point x="788.0" y="194.5" type="curve" smooth="yes"/>
      <point x="788.0" y="296.0"/>
      <point x="715.992" y="355.06399999999996"/>
      <point x="587.0" y="370.5" type="curve"/>
      <point x="587.0" y="355.5" type="line"/>
      <point x="701.3779999999999" y="375.4945"/>
      <point x="765.5" y="434.5"/>
      <point x="765.5" y="525.5" type="curve" smooth="yes"/>
      <point x="765.5" y="638.0"/>
      <point x="665.519" y="705.0"/>
      <point x="485.0" y="705.0" type="curve" smooth="yes"/>
      <point x="98.0" y="705.0" type="line"/>
    </contour>
    <contour>
      <point x="238.0" y="105.5" type="line"/>
      <point x="238.0" y="305.0" type="line"/>
      <point x="486.0" y="305.0" type="line" smooth="yes"/>
      <point x="555.5" y="305.0"/>
      <point x="646.0" y="297.5"/>
      <point x="646.0" y="206.0" type="curve" smooth="yes"/>
      <point x="646.0" y="114.0"/>
      <point x="553.0" y="105.5"/>
      <point x="484.5" y="105.5" type="curve" smooth="yes"/>
    </contour>
    <contour>
      <point x="238.0" y="410.5" type="line"/>
      <point x="238.0" y="599.5" type="line"/>
      <point x="464.5" y="599.5" type="line" smooth="yes"/>
      <point x="576.0" y="599.5"/>
      <point x="624.0" y="570.0"/>
      <point x="624.0" y="505.0" type="curve" smooth="yes"/>
      <point x="624.0" y="439.5"/>
      <point x="576.5" y="410.5"/>
      <point x="465.5" y="410.5" type="curve" smooth="yes"/>
    </contour>
  </outline>
</glyph>
<glyph name="C" format="2">
  <advance width="841.0"/>
  <unicode hex="0043"/>
  <anchor x="483.0" y="0.0" name="bottom"/>
  <anchor x="484.5" y="705.0" name="top"/>
  <outline>
    <contour>
      <point x="492.0" y="-10.0" type="curve" smooth="yes"/>
      <point x="617.0" y="-10.0"/>
      <point x="725.0" y="23.0"/>
      <point x="796.5" y="82.5" type="curve"/>
      <point x="744.5" y="193.5" type="line"/>
      <point x="670.5" y="138.5"/>
      <point x="595.5" y="114.0"/>
      <point x="499.0" y="114.0" type="curve" smooth="yes"/>
      <point x="321.59450000000004" y="114.0"/>
      <point x="222.0" y="199.5"/>
      <point x="222.0" y="352.0" type="curve" smooth="yes"/>
      <point x="222.0" y="505.0"/>
      <point x="322.09450000000004" y="591.0"/>
      <point x="499.0" y="591.0" type="curve" smooth="yes"/>
      <point x="595.5" y="591.0"/>
      <point x="670.5" y="566.5"/>
      <point x="744.5" y="511.5" type="curve"/>
      <point x="796.5" y="622.5" type="line"/>
      <point x="725.0" y="683.0"/>
      <point x="617.5" y="715.0"/>
      <point x="493.0" y="715.0" type="curve" smooth="yes"/>
      <point x="232.5" y="715.0"/>
      <point x="68.0" y="575.0"/>
      <point x="68.0" y="352.0" type="curve" smooth="yes"/>
      <point x="68.0" y="129.5"/>
      <point x="231.5" y="-10.0"/>
    </contour>
  </outline>
</glyph>
<glyph name="D" format="2">
  <advance width="939.5"/>
  <unicode hex="0044"/>
  <anchor x="467.0" y="0.0" name="bottom"/>
  <anchor x="233.5" y="358.0" name="center"/>
  <anchor x="467.5" y="705.0" name="top"/>
  <outline>
    <contour>
      <point x="98.0" y="0.0" type="line"/>
      <point x="427.5" y="0.0" type="line" smooth="yes"/>
      <point x="718.5" y="0.0"/>
      <point x="872.5" y="122.5"/>
      <point x="872.5" y="353.0" type="curve" smooth="yes"/>
      <point x="872.5" y="583.0"/>
      <point x="718.5" y="705.0"/>
      <point x="427.5" y="705.0" type="curve" smooth="yes"/>
      <point x="98.0" y="705.0" type="line"/>
    </contour>
    <contour>
      <point x="243.5" y="116.5" type="line"/>
      <point x="243.5" y="588.5" type="line"/>
      <point x="418.5" y="588.5" type="line" smooth="yes"/>
      <point x="628.5" y="588.5"/>
      <point x="721.0" y="516.5"/>
      <point x="721.0" y="353.0" type="curve" smooth="yes"/>
      <point x="721.0" y="189.0"/>
      <point x="629.0" y="116.5"/>
      <point x="418.5" y="116.5" type="curve" smooth="yes"/>
    </contour>
  </outline>
</glyph>
<glyph name="E" format="2">
  <advance width="735.0"/>
  <unicode hex="0045"/>
  <anchor x="405.5" y="0.0" name="bottom"/>
  <anchor x="625.5" y="0.0" name="ogonek"/>
  <anchor x="405.5" y="705.0" name="top"/>
  <anchor x="27.0" y="705.0" name="topleft"/>
  <outline>
    <contour>
      <point x="98.0" y="0.0" type="line"/>
      <point x="674.5" y="0.0" type="line"/>
      <point x="674.5" y="111.0" type="line"/>
      <point x="238.0" y="111.0" type="line"/>
      <point x="238.0" y="303.0" type="line"/>
      <point x="641.0" y="303.0" type="line"/>
      <point x="641.0" y="414.0" type="line"/>
      <point x="238.0" y="414.0" type="line"/>
      <point x="238.0" y="594.0" type="line"/>
      <point x="674.5" y="594.0" type="line"/>
      <point x="674.5" y="705.0" type="line"/>
      <point x="98.0" y="705.0" type="line"/>
    </contour>
  </outline>
</glyph>
<glyph name="F" format="2">
  <advance width="692.0"/>
  <unicode hex="0046"/>
  <anchor x="371.0" y="0.0" name="bottom"/>
  <anchor x="374.5" y="705.0" name="top"/>
  <outline>
    <contour>
      <point x="98.0" y="0.0" type="line"/>
      <point x="243.5" y="0.0" type="line"/>
      <point x="243.5" y="297.5" type="line"/>
      <point x="637.5" y="297.5" type="line"/>
      <point x="637.5" y="408.5" type="line"/>
      <point x="243.5" y="408.5" type="line"/>
      <point x="243.5" y="594.0" type="line"/>
      <point x="663.5" y="594.0" type="line"/>
      <point x="663.5" y="705.0" type="line"/>
      <point x="98.0" y="705.0" type="line"/>
    </contour>
  </outline>
</glyph>
<glyph name="G" format="2">
  <advance width="911.0"/>
  <unicode hex="0047"/>
  <anchor x="503.5" y="0.0" name="bottom"/>
  <anchor x="494.5" y="705.0" name="top"/>
  <outline>
    <contour>
      <point x="513.0" y="-10.0" type="curve" smooth="yes"/>
      <point x="624.5" y="-10.0"/>
      <point x="741.0" y="11.5"/>
      <point x="820.5" y="46.5" type="curve"/>
      <point x="820.5" y="384.5" type="line"/>
      <point x="492.0" y="384.5" type="line"/>
      <point x="492.0" y="282.0" type="line"/>
      <point x="698.5" y="282.0" type="line"/>
      <point x="698.5" y="108.5" type="line"/>
      <point x="720.0" y="142.0" type="line"/>
      <point x="652.0" y="121.0"/>
      <point x="584.5" y="109.5"/>
      <point x="516.5" y="109.5" type="curve" smooth="yes"/>
      <point x="321.1385" y="109.5"/>
      <point x="219.5" y="192.5"/>
      <point x="219.5" y="350.5" type="curve" smooth="yes"/>
      <point x="219.5" y="508.0"/>
      <point x="320.672" y="593.0"/>
      <point x="507.0" y="593.0" type="curve" smooth="yes"/>
      <point x="607.0" y="593.0"/>
      <point x="685.0" y="570.0"/>
      <point x="760.5" y="517.5" type="curve"/>
      <point x="813.5" y="627.0" type="line"/>
      <point x="740.0" y="683.5"/>
      <point x="629.5" y="715.0"/>
      <point x="504.0" y="715.0" type="curve" smooth="yes"/>
      <point x="234.5" y="715.0"/>
      <point x="68.0" y="576.5"/>
      <point x="68.0" y="350.5" type="curve" smooth="yes"/>
      <point x="68.0" y="124.0"/>
      <point x="233.0" y="-10.0"/>
    </contour>
  </outline>
</glyph>
<glyph name="H" format="2">
  <advance width="959.5"/>
  <unicode hex="0048"/>
  <anchor x="480.0" y="0.0" name="bottom"/>
  <anchor x="480.0" y="563.0" name="center"/>
  <anchor x="479.5" y="705.0" name="top"/>
  <anchor x="27.0" y="705.0" name="topleft"/>
  <outline>
    <contour>
      <point x="98.0" y="0.0" type="line"/>
      <point x="243.5" y="0.0" type="line"/>
      <point x="243.5" y="299.5" type="line"/>
      <point x="716.0" y="299.5" type="line"/>
      <point x="716.0" y="0.0" type="line"/>
      <point x="861.5" y="0.0" type="line"/>
      <point x="861.5" y="705.0" type="line"/>
      <point x="716.0" y="705.0" type="line"/>
      <point x="716.0" y="416.0" type="line"/>
      <point x="243.5" y="416.0" type="line"/>
      <point x="243.5" y="705.0" type="line"/>
      <point x="98.0" y="705.0" type="line"/>
    </contour>
  </outline>
</glyph>
<glyph name="I" format="2">
  <advance width="340.5"/>
  <unicode hex="0049"/>
  <anchor x="171.0" y="0.0" name="bottom"/>
  <anchor x="214.0" y="0.0" name="ogonek"/>
  <anchor x="171.0" y="705.0" name="top"/>
  <anchor x="27.0" y="705.0" name="topleft"/>
  <outline>
    <contour>
      <point x="98.0" y="0.0" type="line"/>
      <point x="243.5" y="0.0" type="line"/>
      <point x="243.5" y="705.0" type="line"/>
      <point x="98.0" y="705.0" type="line"/>
    </contour>
  </outline>
</glyph>
<glyph name="J" format="2">
  <advance width="430.0"/>
  <unicode hex="004A"/>
  <anchor x="260.0" y="0.0" name="bottom"/>
  <anchor x="258.5" y="705.0" name="top"/>
  <outline>
    <contour>
      <point x="-5.0" y="-9.0" type="line"/>
      <point x="90.0" y="-4.5" type="line" smooth="yes"/>
      <point x="246.6055" y="4.9005"/>
      <point x="332.0" y="80.5"/>
      <point x="332.0" y="213.0" type="curve" smooth="yes"/>
      <point x="332.0" y="705.0" type="line"/>
      <point x="186.5" y="705.0" type="line"/>
      <point x="186.5" y="212.0" type="line" smooth="yes"/>
      <point x="186.5" y="151.5"/>
      <point x="146.0" y="114.5"/>
      <point x="69.5" y="110.0" type="curve" smooth="yes"/>
      <point x="-14.5" y="105.5" type="line"/>
    </contour>
  </outline>
</glyph>
<glyph name="K" format="2">
  <advance width="809.0"/>
  <unicode hex="004B"/>
  <anchor x="405.5" y="0.0" name="bottom"/>
  <anchor x="406.0" y="705.0" name="top"/>
  <anchor x="27.0" y="705.0" name="topleft"/>
  <outline>
    <contour>
      <point x="98.0" y="0.0" type="line"/>
      <point x="243.5" y="0.0" type="line"/>
      <point x="243.5" y="325.0" type="line"/>
      <point x="245.5" y="325.0" type="line"/>
      <point x="643.0" y="0.0" type="line"/>
      <point x="840.0" y="0.0" type="line"/>
      <point x="352.0" y="385.0" type="line"/>
      <point x="351.5" y="341.5" type="line"/>
      <point x="818.0" y="705.0" type="line"/>
      <point x="631.0" y="705.0" type="line"/>
      <point x="245.5" y="394.5" type="line"/>
      <point x="243.5" y="394.5" type="line"/>
      <point x="243.5" y="705.0" type="line"/>
      <point x="98.0" y="705.0" type="line"/>
    </contour>
  </outline>
</glyph>
<glyph name="L" format="2">
  <advance width="690.0"/>
  <unicode hex="004C"/>
  <anchor x="384.0" y="0.0" name="bottom"/>
  <anchor x="225.5" y="387.0" name="center"/>
  <anchor x="520.0" y="395.0" name="dot"/>
  <anchor x="171.0" y="705.0" name="top"/>
  <anchor x="375.0" y="705.0" name="topright"/>
  <outline>
    <contour>
      <point x="98.0" y="0.0" type="line"/>
      <point x="670.0" y="0.0" type="line"/>
      <point x="670.0" y="119.0" type="line"/>
      <point x="243.5" y="119.0" type="line"/>
      <point x="243.5" y="705.0" type="line"/>
      <point x="98.0" y="705.0" type="line"/>
    </contour>
  </outline>
</glyph>
<glyph name="M" format="2">
  <advance width="1081.5"/>
  <unicode hex="004D"/>
  <anchor x="542.0" y="0.0" name="bottom"/>
  <anchor x="542.0" y="705.0" name="top"/>
  <outline>
    <contour>
      <point x="100.0" y="0.0" type="line"/>
      <point x="233.0" y="0.0" type="line"/>
      <point x="233.0" y="520.0" type="line"/>
      <point x="207.5" y="520.0" type="line"/>
      <point x="500.5" y="106.5" type="line"/>
      <point x="581.5" y="106.5" type="line"/>
      <point x="872.5" y="519.0" type="line"/>
      <point x="849.5" y="519.0" type="line"/>
      <point x="849.5" y="0.0" type="line"/>
      <point x="982.5" y="0.0" type="line"/>
      <point x="982.5" y="705.0" type="line"/>
      <point x="856.5" y="705.0" type="line"/>
      <point x="523.5" y="219.0" type="line"/>
      <point x="561.5" y="219.0" type="line"/>
      <point x="225.5" y="705.0" type="line"/>
      <point x="100.0" y="705.0" type="line"/>
    </contour>
  </outline>
</glyph>
<glyph name="N" format="2">
  <advance width="930.5"/>
  <unicode hex="004E"/>
  <anchor x="465.5" y="0.0" name="bottom"/>
  <anchor x="465.5" y="705.0" name="top"/>
  <outline>
    <contour>
      <point x="98.0" y="0.0" type="line"/>
      <point x="236.5" y="0.0" type="line"/>
      <point x="236.5" y="531.5" type="line"/>
      <point x="208.0" y="531.5" type="line"/>
      <point x="721.0" y="0.0" type="line"/>
      <point x="832.5" y="0.0" type="line"/>
      <point x="832.5" y="705.0" type="line"/>
      <point x="694.0" y="705.0" type="line"/>
      <point x="694.0" y="174.5" type="line"/>
      <point x="723.5" y="174.5" type="line"/>
      <point x="210.0" y="705.0" type="line"/>
      <point x="98.0" y="705.0" type="line"/>
    </contour>
  </outline>
</glyph>
<glyph name="O" format="2">
  <advance width="971.5"/>
  <unicode hex="004F"/>
  <anchor x="486.0" y="-10.0" name="Qtail"/>
  <anchor x="486.0" y="0.0" name="bottom"/>
  <anchor x="485.0" y="353.0" name="center"/>
  <anchor x="557.5" y="0.0" name="ogonek"/>
  <anchor x="486.5" y="705.0" name="top"/>
  <anchor x="30.5" y="705.0" name="topleft"/>
  <anchor x="575.5" y="705.0" name="topright"/>
  <outline>
    <contour>
      <point x="486.5" y="-10.0" type="curve" smooth="yes"/>
      <point x="738.5" y="-10.0"/>
      <point x="904.5" y="134.0"/>
      <point x="904.5" y="353.5" type="curve" smooth="yes"/>
      <point x="904.5" y="573.0"/>
      <point x="738.5" y="715.0"/>
      <point x="486.5" y="715.0" type="curve" smooth="yes"/>
      <point x="234.0" y="715.0"/>
      <point x="68.0" y="572.0"/>
      <point x="68.0" y="352.0" type="curve" smooth="yes"/>
      <point x="68.0" y="132.5"/>
      <point x="233.5" y="-10.0"/>
    </contour>
    <contour>
      <point x="486.5" y="109.5" type="curve" smooth="yes"/>
      <point x="320.5" y="109.5"/>
      <point x="219.5" y="201.5"/>
      <point x="219.5" y="352.0" type="curve" smooth="yes"/>
      <point x="219.5" y="503.5"/>
      <point x="321.5" y="595.5"/>
      <point x="486.5" y="595.5" type="curve" smooth="yes"/>
      <point x="652.5" y="595.5"/>
      <point x="753.0" y="504.5"/>
      <point x="753.0" y="353.0" type="curve" smooth="yes"/>
      <point x="753.0" y="202.5"/>
      <point x="651.0" y="109.5"/>
    </contour>
  </outline>
</glyph>
<glyph name="P" format="2">
  <advance width="806.0"/>
  <unicode hex="0050"/>
  <anchor x="409.0" y="0.0" name="bottom"/>
  <anchor x="409.5" y="705.0" name="top"/>
  <outline>
    <contour>
      <point x="98.0" y="0.0" type="line"/>
      <point x="243.5" y="0.0" type="line"/>
      <point x="243.5" y="259.0" type="line"/>
      <point x="485.0" y="259.0" type="line" smooth="yes"/>
      <point x="673.0715" y="259.0"/>
      <point x="772.5" y="336.5"/>
      <point x="772.5" y="482.5" type="curve" smooth="yes"/>
      <point x="772.5" y="629.0"/>
      <point x="673.0715" y="705.0"/>
      <point x="485.0" y="705.0" type="curve" smooth="yes"/>
      <point x="98.0" y="705.0" type="line"/>
    </contour>
    <contour>
      <point x="243.5" y="369.0" type="line"/>
      <point x="243.5" y="595.0" type="line"/>
      <point x="467.5" y="595.0" type="line" smooth="yes"/>
      <point x="581.5" y="595.0"/>
      <point x="631.0" y="561.5"/>
      <point x="631.0" y="483.0" type="curve" smooth="yes"/>
      <point x="631.0" y="405.0"/>
      <point x="579.0" y="369.0"/>
      <point x="467.5" y="369.0" type="curve" smooth="yes"/>
    </contour>
  </outline>
</glyph>
<glyph name="R" format="2">
  <advance width="849.5"/>
  <unicode hex="0052"/>
  <anchor x="426.0" y="0.0" name="bottom"/>
  <anchor x="425.5" y="705.0" name="top"/>
  <outline>
    <contour>
      <point x="98.0" y="0.0" type="line"/>
      <point x="243.5" y="0.0" type="line"/>
      <point x="243.5" y="274.5" type="line"/>
      <point x="388.0" y="274.5" type="line" smooth="yes"/>
      <point x="463.0" y="274.5"/>
      <point x="489.5" y="259.5"/>
      <point x="519.0" y="217.0" type="curve" smooth="yes"/>
      <point x="666.5" y="0.0" type="line"/>
      <point x="828.5" y="0.0" type="line"/>
      <point x="680.0" y="210.5" type="line" smooth="yes"/>
      <point x="640.0" y="267.5"/>
      <point x="590.0" y="293.0"/>
      <point x="526.0" y="293.0" type="curve" smooth="yes"/>
      <point x="481.0" y="293.0" type="line"/>
      <point x="469.0" y="277.5" type="line"/>
      <point x="663.5" y="277.5"/>
      <point x="772.5" y="356.0"/>
      <point x="772.5" y="495.5" type="curve" smooth="yes"/>
      <point x="772.5" y="630.0"/>
      <point x="670.0" y="705.0"/>
      <point x="483.0" y="705.0" type="curve" smooth="yes"/>
      <point x="98.0" y="705.0" type="line"/>
    </contour>
    <contour>
      <point x="243.5" y="377.5" type="line"/>
      <point x="243.5" y="595.0" type="line"/>
      <point x="464.5" y="595.0" type="line" smooth="yes"/>
      <point x="580.5" y="595.0"/>
      <point x="631.0" y="560.5"/>
      <point x="631.0" y="488.0" type="curve" smooth="yes"/>
      <point x="631.0" y="414.0"/>
      <point x="580.5" y="377.5"/>
      <point x="464.5" y="377.5" type="curve" smooth="yes"/>
    </contour>
  </outline>
</glyph>
<glyph name="S" format="2">
  <advance width="777.0"/>
  <unicode hex="0053"/>
  <anchor x="401.5" y="0.0" name="bottom"/>
  <anchor x="399.0" y="705.0" name="top"/>
  <outline>
    <contour>
      <point x="396.0" y="-10.0" type="curve" smooth="yes"/>
      <point x="608.0" y="-10.0"/>
      <point x="737.5" y="69.5"/>
      <point x="737.5" y="201.0" type="curve" smooth="yes"/>
      <point x="737.5" y="313.0"/>
      <point x="655.0" y="372.0"/>
      <point x="495.5" y="395.5" type="curve" smooth="yes"/>
      <point x="340.5" y="418.5" type="line" smooth="yes"/>
      <point x="257.0" y="431.0"/>
      <point x="216.5" y="453.0"/>
      <point x="216.5" y="505.0" type="curve" smooth="yes"/>
      <point x="216.5" y="564.0"/>
      <point x="280.5" y="598.5"/>
      <point x="396.5" y="598.5" type="curve" smooth="yes"/>
      <point x="507.0" y="598.5"/>
      <point x="585.5" y="574.0"/>
      <point x="662.0" y="520.0" type="curve"/>
      <point x="710.0" y="624.5" type="line"/>
      <point x="638.0" y="682.5"/>
      <point x="528.0" y="715.0"/>
      <point x="403.5" y="715.0" type="curve" smooth="yes"/>
      <point x="204.0" y="715.0"/>
      <point x="72.5" y="631.0"/>
      <point x="72.5" y="494.5" type="curve" smooth="yes"/>
      <point x="72.5" y="384.0"/>
      <point x="148.5" y="320.0"/>
      <point x="303.0" y="298.5" type="curve" smooth="yes"/>
      <point x="467.0" y="276.5" type="line" smooth="yes"/>
      <point x="546.5" y="265.5"/>
      <point x="593.0" y="250.0"/>
      <point x="593.0" y="194.5" type="curve" smooth="yes"/>
      <point x="593.0" y="137.5"/>
      <point x="527.5" y="106.5"/>
      <point x="404.0" y="106.5" type="curve" smooth="yes"/>
      <point x="286.0" y="106.5"/>
      <point x="195.0" y="132.0"/>
      <point x="102.5" y="188.0" type="curve"/>
      <point x="54.0" y="78.0" type="line"/>
      <point x="137.0" y="22.5"/>
      <point x="262.0" y="-10.0"/>
    </contour>
  </outline>
</glyph>
<glyph name="T" format="2">
  <advance width="763.5"/>
  <unicode hex="0054"/>
  <anchor x="382.0" y="0.0" name="bottom"/>
  <anchor x="382.5" y="358.0" name="center"/>
  <anchor x="382.5" y="705.0" name="top"/>
  <outline>
    <contour>
      <point x="309.5" y="0.0" type="line"/>
      <point x="455.0" y="0.0" type="line"/>
      <point x="455.0" y="588.5" type="line"/>
      <point x="761.0" y="588.5" type="line"/>
      <point x="761.0" y="705.0" type="line"/>
      <point x="3.5" y="705.0" type="line"/>
      <point x="3.5" y="588.5" type="line"/>
      <point x="309.5" y="588.5" type="line"/>
    </contour>
  </outline>
</glyph>
<glyph name="U" format="2">
  <advance width="917.5"/>
  <unicode hex="0055"/>
  <anchor x="458.5" y="0.0" name="bottom"/>
  <anchor x="529.0" y="0.0" name="ogonek"/>
  <anchor x="458.5" y="705.0" name="top"/>
  <anchor x="717.0" y="705.0" name="topright"/>
  <outline>
    <contour>
      <point x="459.5" y="-10.0" type="curve" smooth="yes"/>
      <point x="704.0" y="-10.0"/>
      <point x="825.5" y="92.5"/>
      <point x="825.5" y="290.5" type="curve" smooth="yes"/>
      <point x="825.5" y="705.0" type="line"/>
      <point x="681.0" y="705.0" type="line"/>
      <point x="681.0" y="293.0" type="line" smooth="yes"/>
      <point x="681.0" y="173.0"/>
      <point x="607.5" y="109.5"/>
      <point x="459.5" y="109.5" type="curve" smooth="yes"/>
      <point x="312.0" y="109.5"/>
      <point x="237.0" y="173.0"/>
      <point x="237.0" y="293.0" type="curve" smooth="yes"/>
      <point x="237.0" y="705.0" type="line"/>
      <point x="91.5" y="705.0" type="line"/>
      <point x="91.5" y="290.5" type="line" smooth="yes"/>
      <point x="91.5" y="93.5"/>
      <point x="214.5" y="-10.0"/>
    </contour>
  </outline>
</glyph>
<glyph name="V" format="2">
  <advance width="876.0"/>
  <unicode hex="0056"/>
  <anchor x="438.0" y="0.0" name="bottom"/>
  <anchor x="438.0" y="705.0" name="top"/>
  <outline>
    <contour>
      <point x="374.0" y="0.0" type="line"/>
      <point x="502.0" y="0.0" type="line"/>
      <point x="888.5" y="705.0" type="line"/>
      <point x="731.5" y="705.0" type="line"/>
      <point x="419.0" y="116.5" type="line"/>
      <point x="464.0" y="116.5" type="line"/>
      <point x="150.5" y="705.0" type="line"/>
      <point x="-12.5" y="705.0" type="line"/>
    </contour>
  </outline>
</glyph>
<glyph name="W" format="2">
  <advance width="1380.5"/>
  <unicode hex="0057"/>
  <anchor x="691.5" y="0.0" name="bottom"/>
  <anchor x="691.0" y="705.0" name="top"/>
  <outline>
    <contour>
      <point x="334.5" y="0.0" type="line"/>
      <point x="458.0" y="0.0" type="line"/>
      <point x="702.0" y="526.0" type="line"/>
      <point x="678.0" y="526.0" type="line"/>
      <point x="922.5" y="0.0" type="line"/>
      <point x="1046.5" y="0.0" type="line"/>
      <point x="1354.0" y="705.0" type="line"/>
      <point x="1208.5" y="705.0" type="line"/>
      <point x="962.5" y="142.0" type="line"/>
      <point x="1007.0" y="142.0" type="line"/>
      <point x="751.0" y="705.0" type="line"/>
      <point x="637.0" y="705.0" type="line"/>
      <point x="380.5" y="142.0" type="line"/>
      <point x="427.5" y="142.0" type="line"/>
      <point x="181.5" y="705.0" type="line"/>
      <point x="28.0" y="705.0" type="line"/>
    </contour>
  </outline>
</glyph>
<glyph name="X" format="2">
  <advance width="826.0"/>
  <unicode hex="0058"/>
  <anchor x="414.0" y="0.0" name="bottom"/>
  <anchor x="414.0" y="705.0" name="top"/>
  <outline>
    <contour>
      <point x="-5.5" y="0.0" type="line"/>
      <point x="170.5" y="0.0" type="line"/>
      <point x="436.0" y="288.5" type="line"/>
      <point x="387.0" y="288.5" type="line"/>
      <point x="652.5" y="0.0" type="line"/>
      <point x="833.5" y="0.0" type="line"/>
      <point x="474.0" y="388.5" type="line"/>
      <point x="474.0" y="327.5" type="line"/>
      <point x="819.5" y="705.0" type="line"/>
      <point x="644.0" y="705.0" type="line"/>
      <point x="393.0" y="427.5" type="line"/>
      <point x="437.0" y="427.5" type="line"/>
      <point x="186.5" y="705.0" type="line"/>
      <point x="5.5" y="705.0" type="line"/>
      <point x="353.0" y="327.5" type="line"/>
      <point x="353.0" y="388.5" type="line"/>
    </contour>
  </outline>
</glyph>
<glyph name="Y" format="2">
  <advance width="757.5"/>
  <unicode hex="0059"/>
  <anchor x="378.0" y="0.0" name="bottom"/>
  <anchor x="379.5" y="705.0" name="top"/>
  <anchor x="18.5" y="705.0" name="topleft"/>
  <outline>
    <contour>
      <point x="306.0" y="0.0" type="line"/>
      <point x="451.5" y="0.0" type="line"/>
      <point x="451.5" y="357.5" type="line"/>
      <point x="424.0" y="280.0" type="line"/>
      <point x="787.0" y="705.0" type="line"/>
      <point x="625.0" y="705.0" type="line"/>
      <point x="366.0" y="404.5" type="line"/>
      <point x="397.5" y="404.5" type="line"/>
      <point x="141.0" y="705.0" type="line"/>
      <point x="-29.5" y="705.0" type="line"/>
      <point x="335.0" y="280.0" type="line"/>
      <point x="306.0" y="357.5" type="line"/>
    </contour>
  </outline>
</glyph>
<glyph name="Z" format="2">
  <advance width="744.5"/>
  <unicode hex="005A"/>
  <anchor x="387.0" y="0.0" name="bottom"/>
  <anchor x="386.5" y="705.0" name="top"/>
  <outline>
    <contour>
      <point x="56.5" y="0.0" type="line"/>
      <point x="720.0" y="0.0" type="line"/>
      <point x="720.0" y="113.0" type="line"/>
      <point x="204.0" y="113.0" type="line"/>
      <point x="204.0" y="74.5" type="line"/>
      <point x="702.5" y="602.0" type="line"/>
      <point x="702.5" y="705.0" type="line"/>
      <point x="56.5" y="705.0" type="line"/>
      <point x="56.5" y="592.0" type="line"/>
      <point x="555.5" y="592.0" type="line"/>
      <point x="555.5" y="631.5" type="line"/>
      <point x="56.5" y="103.0" type="line"/>
    </contour>
  </outline>
</glyph>
<glyph name="bracketleft" format="2">
  <advance width="421.5"/>
  <unicode hex="005B"/>
  <outline>
    <contour>
      <point x="131.0" y="-180.0" type="line"/>
      <point x="410.5" y="-180.0" type="line"/>
      <point x="410.5" y="-77.5" type="line"/>
      <point x="269.0" y="-77.5" type="line"/>
      <point x="269.0" y="602.5" type="line"/>
      <point x="410.5" y="602.5" type="line"/>
      <point x="410.5" y="705.0" type="line"/>
      <point x="131.0" y="705.0" type="line"/>
    </contour>
  </outline>
</glyph>
<glyph name="asciicircum" format="2">
  <advance width="748.0"/>
  <unicode hex="005E"/>
  <outline>
    <contour>
      <point x="72.0" y="135.5" type="line"/>
      <point x="178.5" y="135.5" type="line"/>
      <point x="406.5" y="584.0" type="line"/>
      <point x="342.5" y="584.0" type="line"/>
      <point x="569.5" y="135.5" type="line"/>
      <point x="676.0" y="135.5" type="line"/>
      <point x="426.0" y="627.5" type="line"/>
      <point x="322.0" y="627.5" type="line"/>
    </contour>
  </outline>
</glyph>
<glyph name="underscore" format="2">
  <advance width="620.0"/>
  <unicode hex="005F"/>
  <outline>
    <contour>
      <point x="22.5" y="-81.0" type="line"/>
      <point x="597.5" y="-81.0" type="line"/>
      <point x="597.5" y="0.0" type="line"/>
      <point x="22.5" y="0.0" type="line"/>
    </contour>
  </outline>
</glyph>
<glyph name="a" format="2">
  <advance width="673.0"/>
  <unicode hex="0061"/>
  <anchor x="338.0" y="0.0" name="bottom"/>
  <anchor x="567.0" y="0.0" name="ogonek"/>
  <anchor x="343.0" y="484.0" name="top"/>
  <outline>
    <contour>
      <point x="277.0" y="-10.0" type="curve" smooth="yes"/>
      <point x="380.0" y="-10.0"/>
      <point x="448.0" y="34.5"/>
      <point x="473.5" y="109.0" type="curve"/>
      <point x="462.0" y="108.5" type="line"/>
      <point x="462.0" y="0.0" type="line"/>
      <point x="591.5" y="0.0" type="line"/>
      <point x="591.5" y="290.0" type="line" smooth="yes"/>
      <point x="591.5" y="433.0"/>
      <point x="507.0" y="499.0"/>
      <point x="333.0" y="499.0" type="curve" smooth="yes"/>
      <point x="246.5" y="499.0"/>
      <point x="144.5" y="475.5"/>
      <point x="81.5" y="438.0" type="curve"/>
      <point x="120.5" y="343.0" type="line"/>
      <point x="181.5" y="377.5"/>
      <point x="255.0" y="396.0"/>
      <point x="332.5" y="396.0" type="curve" smooth="yes"/>
      <point x="419.5" y="396.0"/>
      <point x="460.0" y="369.0"/>
      <point x="460.0" y="309.5" type="curve" smooth="yes"/>
      <point x="460.0" y="202.5" type="line" smooth="yes"/>
      <point x="460.0" y="131.5"/>
      <point x="389.0" y="84.0"/>
      <point x="299.5" y="84.0" type="curve" smooth="yes"/>
      <point x="230.0" y="84.0"/>
      <point x="191.5" y="111.5"/>
      <point x="191.5" y="152.5" type="curve" smooth="yes"/>
      <point x="191.5" y="192.5"/>
      <point x="225.5" y="211.0"/>
      <point x="375.5" y="211.0" type="curve" smooth="yes"/>
      <point x="478.0" y="211.0" type="line"/>
      <point x="478.0" y="289.5" type="line"/>
      <point x="374.0" y="289.5" type="line" smooth="yes"/>
      <point x="132.5" y="289.5"/>
      <point x="56.5" y="241.5"/>
      <point x="56.5" y="149.0" type="curve" smooth="yes"/>
      <point x="56.5" y="57.5"/>
      <point x="147.0" y="-10.0"/>
    </contour>
  </outline>
</glyph>
<glyph name="b" format="2">
  <advance width="741.5"/>
  <unicode hex="0062"/>
  <anchor x="383.5" y="0.0" name="bottom"/>
  <anchor x="387.5" y="705.0" name="top"/>
  <outline>
    <contour>
      <point x="424.0" y="-10.0" type="curve" smooth="yes"/>
      <point x="584.0" y="-10.0"/>
      <point x="692.0" y="90.5"/>
      <point x="692.0" y="245.0" type="curve" smooth="yes"/>
      <point x="692.0" y="399.5"/>
      <point x="584.0" y="499.0"/>
      <point x="424.0" y="499.0" type="curve" smooth="yes"/>
      <point x="326.0" y="499.0"/>
      <point x="241.0" y="456.0"/>
      <point x="207.5" y="388.0" type="curve"/>
      <point x="222.5" y="388.0" type="line"/>
      <point x="222.5" y="705.0" type="line"/>
      <point x="84.5" y="705.0" type="line"/>
      <point x="84.5" y="0.0" type="line"/>
      <point x="220.5" y="0.0" type="line"/>
      <point x="220.5" y="102.0" type="line"/>
      <point x="207.5" y="102.0" type="line"/>
      <point x="241.0" y="33.0"/>
      <point x="325.5" y="-10.0"/>
    </contour>
    <contour>
      <point x="386.5" y="93.5" type="curve" smooth="yes"/>
      <point x="282.0" y="93.5"/>
      <point x="220.5" y="151.5"/>
      <point x="220.5" y="245.0" type="curve" smooth="yes"/>
      <point x="220.5" y="338.5"/>
      <point x="282.0" y="395.5"/>
      <point x="386.5" y="395.5" type="curve" smooth="yes"/>
      <point x="490.0" y="395.5"/>
      <point x="552.5" y="338.5"/>
      <point x="552.5" y="245.0" type="curve" smooth="yes"/>
      <point x="552.5" y="151.5"/>
      <point x="490.0" y="93.5"/>
    </contour>
  </outline>
</glyph>
<glyph name="c" format="2">
  <advance width="582.5"/>
  <unicode hex="0063"/>
  <anchor x="350.5" y="0.0" name="bottom"/>
  <anchor x="350.5" y="484.0" name="top"/>
  <outline>
    <contour>
      <point x="352.5" y="-10.0" type="curve" smooth="yes"/>
      <point x="437.5" y="-10.0"/>
      <point x="516.5" y="13.0"/>
      <point x="567.5" y="51.5" type="curve"/>
      <point x="523.0" y="147.5" type="line"/>
      <point x="476.0" y="113.0"/>
      <point x="420.5" y="95.5"/>
      <point x="362.0" y="95.5" type="curve" smooth="yes"/>
      <point x="253.5" y="95.5"/>
      <point x="191.5" y="153.0"/>
      <point x="191.5" y="244.0" type="curve" smooth="yes"/>
      <point x="191.5" y="336.0"/>
      <point x="253.5" y="393.5"/>
      <point x="362.5" y="393.5" type="curve" smooth="yes"/>
      <point x="420.5" y="393.5"/>
      <point x="477.0" y="376.0"/>
      <point x="523.0" y="343.0" type="curve"/>
      <point x="567.5" y="437.5" type="line"/>
      <point x="518.0" y="477.0"/>
      <point x="438.5" y="499.0"/>
      <point x="352.5" y="499.0" type="curve" smooth="yes"/>
      <point x="168.0" y="499.0"/>
      <point x="49.5" y="398.5"/>
      <point x="49.5" y="244.5" type="curve" smooth="yes"/>
      <point x="49.5" y="90.0"/>
      <point x="168.0" y="-10.0"/>
    </contour>
  </outline>
</glyph>
<glyph name="d" format="2">
  <advance width="741.5"/>
  <unicode hex="0064"/>
  <anchor x="372.0" y="0.0" name="bottom"/>
  <anchor x="366.0" y="246.0" name="center"/>
  <anchor x="524.0" y="589.0" name="stroke"/>
  <anchor x="370.5" y="484.0" name="top"/>
  <anchor x="709.0" y="705.0" name="topright"/>
  <outline>
    <contour>
      <point x="319.0" y="-10.0" type="curve" smooth="yes"/>
      <point x="416.0" y="-10.0"/>
      <point x="501.5" y="32.0"/>
      <point x="533.5" y="100.5" type="curve"/>
      <point x="521.0" y="100.5" type="line"/>
      <point x="521.0" y="0.0" type="line"/>
      <point x="657.0" y="0.0" type="line"/>
      <point x="657.0" y="705.0" type="line"/>
      <point x="519.0" y="705.0" type="line"/>
      <point x="519.0" y="389.5" type="line"/>
      <point x="533.5" y="389.5" type="line"/>
      <point x="501.5" y="457.0"/>
      <point x="416.5" y="499.0"/>
      <point x="319.0" y="499.0" type="curve" smooth="yes"/>
      <point x="156.5" y="499.0"/>
      <point x="49.5" y="399.5"/>
      <point x="49.5" y="245.0" type="curve" smooth="yes"/>
      <point x="49.5" y="90.5"/>
      <point x="156.5" y="-10.0"/>
    </contour>
    <contour>
      <point x="355.0" y="93.5" type="curve" smooth="yes"/>
      <point x="250.5" y="93.5"/>
      <point x="189.0" y="151.5"/>
      <point x="189.0" y="245.0" type="curve" smooth="yes"/>
      <point x="189.0" y="338.5"/>
      <point x="250.5" y="395.5"/>
      <point x="355.0" y="395.5" type="curve" smooth="yes"/>
      <point x="458.5" y="395.5"/>
      <point x="521.0" y="338.5"/>
      <point x="521.0" y="245.0" type="curve" smooth="yes"/>
      <point x="521.0" y="151.5"/>
      <point x="458.5" y="93.5"/>
    </contour>
  </outline>
</glyph>
<glyph name="e" format="2">
  <advance width="665.0"/>
  <unicode hex="0065"/>
  <anchor x="347.5" y="0.0" name="bottom"/>
  <anchor x="483.5" y="0.0" name="ogonek"/>
  <anchor x="358.5" y="484.0" name="top"/>
  <outline>
    <contour>
      <point x="374.5" y="-10.0" type="curve" smooth="yes"/>
      <point x="475.0" y="-10.0"/>
      <point x="567.5" y="15.0"/>
      <point x="616.5" y="53.0" type="curve"/>
      <point x="579.0" y="143.5" type="line"/>
      <point x="531.5" y="110.5"/>
      <point x="463.0" y="93.0"/>
      <point x="382.5" y="93.0" type="curve" smooth="yes"/>
      <point x="239.0" y="93.0"/>
      <point x="182.0" y="150.0"/>
      <point x="182.0" y="249.0" type="curve" smooth="yes"/>
      <point x="182.0" y="256.5" type="line" smooth="yes"/>
      <point x="182.0" y="350.0"/>
      <point x="243.5" y="407.0"/>
      <point x="356.0" y="407.0" type="curve" smooth="yes"/>
      <point x="454.5" y="407.0"/>
      <point x="507.5" y="361.0"/>
      <point x="509.0" y="274.5" type="curve"/>
      <point x="531.5" y="293.0" type="line"/>
      <point x="159.5" y="293.0" type="line"/>
      <point x="159.5" y="213.5" type="line"/>
      <point x="626.5" y="213.5" type="line"/>
      <point x="626.5" y="251.5" type="line" smooth="yes"/>
      <point x="626.5" y="406.5"/>
      <point x="522.0" y="499.0"/>
      <point x="351.5" y="499.0" type="curve" smooth="yes"/>
      <point x="173.5" y="499.0"/>
      <point x="49.5" y="395.5"/>
      <point x="49.5" y="241.5" type="curve" smooth="yes"/>
      <point x="49.5" y="86.0"/>
      <point x="175.0" y="-10.0"/>
    </contour>
  </outline>
</glyph>
<glyph name="f" format="2">
  <advance width="437.5"/>
  <unicode hex="0066"/>
  <anchor x="191.0" y="0.0" name="bottom"/>
  <anchor x="191.0" y="705.0" name="top"/>
  <outline>
    <contour>
      <point x="121.5" y="0.0" type="line"/>
      <point x="259.5" y="0.0" type="line"/>
      <point x="259.5" y="388.5" type="line"/>
      <point x="428.5" y="388.5" type="line"/>
      <point x="428.5" y="489.0" type="line"/>
      <point x="229.5" y="489.0" type="line"/>
      <point x="259.5" y="459.5" type="line"/>
      <point x="259.5" y="507.5" type="line" smooth="yes"/>
      <point x="259.5" y="572.0"/>
      <point x="297.5" y="601.0"/>
      <point x="387.5" y="605.5" type="curve" smooth="yes"/>
      <point x="457.5" y="609.5" type="line"/>
      <point x="448.0" y="710.0" type="line"/>
      <point x="378.5" y="705.5" type="line" smooth="yes"/>
      <point x="204.5" y="694.0"/>
      <point x="121.5" y="623.0"/>
      <point x="121.5" y="484.5" type="curve" smooth="yes"/>
      <point x="121.5" y="459.0" type="line"/>
      <point x="152.0" y="489.0" type="line"/>
      <point x="3.0" y="489.0" type="line"/>
      <point x="3.0" y="388.5" type="line"/>
      <point x="121.5" y="388.5" type="line"/>
    </contour>
  </outline>
</glyph>
<glyph name="g" format="2">
  <advance width="744.0"/>
  <unicode hex="0067"/>
  <anchor x="372.0" y="484.0" name="top"/>
  <outline>
    <contour>
      <point x="354.5" y="-190.0" type="curve" smooth="yes"/>
      <point x="558.5" y="-190.0"/>
      <point x="659.5" y="-110.0"/>
      <point x="659.5" y="52.5" type="curve" smooth="yes"/>
      <point x="659.5" y="489.0" type="line"/>
      <point x="523.5" y="489.0" type="line"/>
      <point x="523.5" y="389.5" type="line"/>
      <point x="535.0" y="389.5" type="line"/>
      <point x="509.0" y="457.0"/>
      <point x="426.5" y="499.0"/>
      <point x="320.5" y="499.0" type="curve" smooth="yes"/>
      <point x="155.5" y="499.0"/>
      <point x="49.5" y="405.0"/>
      <point x="49.5" y="256.0" type="curve" smooth="yes"/>
      <point x="49.5" y="107.0"/>
      <point x="156.0" y="12.0"/>
      <point x="322.0" y="12.0" type="curve" smooth="yes"/>
      <point x="427.0" y="12.0"/>
      <point x="509.0" y="54.0"/>
      <point x="535.0" y="122.0" type="curve"/>
      <point x="524.0" y="122.0" type="line"/>
      <point x="524.0" y="36.5" type="line" smooth="yes"/>
      <point x="524.0" y="-45.5"/>
      <point x="467.0" y="-87.0"/>
      <point x="353.0" y="-87.0" type="curve" smooth="yes"/>
      <point x="262.0" y="-87.0"/>
      <point x="179.0" y="-69.5"/>
      <point x="118.0" y="-29.0" type="curve"/>
      <point x="79.0" y="-123.0" type="line"/>
      <point x="140.0" y="-168.0"/>
      <point x="240.5" y="-190.0"/>
    </contour>
    <contour>
      <point x="356.5" y="115.5" type="curve" smooth="yes"/>
      <point x="252.5" y="115.5"/>
      <point x="189.0" y="169.5"/>
      <point x="189.0" y="256.0" type="curve" smooth="yes"/>
      <point x="189.0" y="342.5"/>
      <point x="252.5" y="395.5"/>
      <point x="356.5" y="395.5" type="curve" smooth="yes"/>
      <point x="460.5" y="395.5"/>
      <point x="524.0" y="342.5"/>
      <point x="524.0" y="256.0" type="curve" smooth="yes"/>
      <point x="524.0" y="169.5"/>
      <point x="460.5" y="115.5"/>
    </contour>
  </outline>
</glyph>
<glyph name="h" format="2">
  <advance width="722.5"/>
  <unicode hex="0068"/>
  <anchor x="361.5" y="0.0" name="bottom"/>
  <anchor x="361.5" y="248.5" name="center"/>
  <anchor x="354.5" y="352.0" name="dot"/>
  <anchor x="215.5" y="589.0" name="stroke"/>
  <anchor x="363.0" y="705.0" name="top"/>
  <anchor x="261.0" y="705.0" name="topright"/>
  <outline>
    <contour>
      <point x="84.5" y="0.0" type="line"/>
      <point x="222.5" y="0.0" type="line"/>
      <point x="222.5" y="250.0" type="line" smooth="yes"/>
      <point x="222.5" y="330.0"/>
      <point x="283.5" y="392.0"/>
      <point x="382.0" y="392.0" type="curve" smooth="yes"/>
      <point x="458.5" y="392.0"/>
      <point x="503.0" y="361.0"/>
      <point x="503.0" y="266.5" type="curve" smooth="yes"/>
      <point x="503.0" y="0.0" type="line"/>
      <point x="641.0" y="0.0" type="line"/>
      <point x="641.0" y="272.0" type="line" smooth="yes"/>
      <point x="641.0" y="436.5"/>
      <point x="562.5" y="499.0"/>
      <point x="425.5" y="499.0" type="curve" smooth="yes"/>
      <point x="324.0" y="499.0"/>
      <point x="254.0" y="457.5"/>
      <point x="212.5" y="386.0" type="curve"/>
      <point x="223.0" y="386.0" type="line"/>
      <point x="222.5" y="705.0" type="line"/>
      <point x="84.5" y="705.0" type="line"/>
    </contour>
  </outline>
</glyph>
<glyph name="i" format="2">
  <advance width="307.0"/>
  <unicode hex="0069"/>
  <anchor x="154.0" y="0.0" name="bottom"/>
  <anchor x="195.0" y="0.0" name="ogonek"/>
  <outline>
    <contour>
      <point x="73.5" y="590.5" type="line"/>
      <point x="232.0" y="590.5" type="line"/>
      <point x="232.0" y="721.0" type="line"/>
      <point x="73.5" y="721.0" type="line"/>
    </contour>
    <contour>
      <point x="84.5" y="0.0" type="line"/>
      <point x="222.5" y="0.0" type="line"/>
      <point x="222.5" y="489.0" type="line"/>
      <point x="84.5" y="489.0" type="line"/>
    </contour>
  </outline>
</glyph>
<glyph name="k" format="2">
  <advance width="650.0"/>
  <unicode hex="006B"/>
  <anchor x="325.0" y="0.0" name="bottom"/>
  <anchor x="363.0" y="705.0" name="top"/>
  <outline>
    <contour>
      <point x="83.0" y="0.0" type="line"/>
      <point x="221.0" y="0.0" type="line"/>
      <point x="221.0" y="215.0" type="line"/>
      <point x="223.0" y="215.0" type="line"/>
      <point x="488.0" y="0.0" type="line"/>
      <point x="671.0" y="0.0" type="line"/>
      <point x="321.5" y="278.0" type="line"/>
      <point x="321.5" y="230.0" type="line"/>
      <point x="650.5" y="489.0" type="line"/>
      <point x="473.5" y="489.0" type="line"/>
      <point x="223.0" y="284.0" type="line"/>
      <point x="221.0" y="284.0" type="line"/>
      <point x="221.0" y="705.0" type="line"/>
      <point x="83.0" y="705.0" type="line"/>
    </contour>
  </outline>
</glyph>
<glyph name="l" format="2">
  <advance width="384.0"/>
  <unicode hex="006C"/>
  <anchor x="235.0" y="0.0" name="bottom"/>
  <anchor x="163.0" y="357.0" name="center"/>
  <anchor x="373.5" y="357.0" name="dot"/>
  <anchor x="151.5" y="705.0" name="top"/>
  <anchor x="273.0" y="705.0" name="topright"/>
  <outline>
    <contour>
      <point x="287.5" y="-10.0" type="curve" smooth="yes"/>
      <point x="317.0" y="-10.0"/>
      <point x="346.0" y="-6.5"/>
      <point x="372.0" y="-1.0" type="curve"/>
      <point x="375.0" y="107.0" type="line"/>
      <point x="362.0" y="103.5"/>
      <point x="340.0" y="102.0"/>
      <point x="323.0" y="102.0" type="curve" smooth="yes"/>
      <point x="255.5" y="102.0"/>
      <point x="221.0" y="134.5"/>
      <point x="221.0" y="194.0" type="curve" smooth="yes"/>
      <point x="221.0" y="705.0" type="line"/>
      <point x="83.0" y="705.0" type="line"/>
      <point x="83.0" y="184.5" type="line" smooth="yes"/>
      <point x="83.0" y="58.0"/>
      <point x="150.5" y="-10.0"/>
    </contour>
  </outline>
</glyph>
<glyph name="m" format="2">
  <advance width="1086.0"/>
  <unicode hex="006D"/>
  <anchor x="544.5" y="0.0" name="bottom"/>
  <anchor x="544.5" y="484.0" name="top"/>
  <outline>
    <contour>
      <point x="86.5" y="0.0" type="line"/>
      <point x="224.5" y="0.0" type="line"/>
      <point x="224.5" y="250.0" type="line" smooth="yes"/>
      <point x="224.5" y="330.0"/>
      <point x="280.0" y="392.0"/>
      <point x="369.0" y="392.0" type="curve" smooth="yes"/>
      <point x="436.0" y="392.0"/>
      <point x="475.0" y="361.0"/>
      <point x="475.0" y="266.0" type="curve" smooth="yes"/>
      <point x="475.0" y="0.0" type="line"/>
      <point x="613.0" y="0.0" type="line"/>
      <point x="613.0" y="250.0" type="line" smooth="yes"/>
      <point x="613.0" y="330.0"/>
      <point x="669.5" y="392.0"/>
      <point x="757.5" y="392.0" type="curve" smooth="yes"/>
      <point x="825.5" y="392.0"/>
      <point x="864.5" y="361.0"/>
      <point x="864.5" y="266.0" type="curve" smooth="yes"/>
      <point x="864.5" y="0.0" type="line"/>
      <point x="1002.5" y="0.0" type="line"/>
      <point x="1002.5" y="272.0" type="line" smooth="yes"/>
      <point x="1002.5" y="436.5"/>
      <point x="928.037" y="499.0"/>
      <point x="797.0" y="499.0" type="curve" smooth="yes"/>
      <point x="699.299" y="499.0"/>
      <point x="628.533" y="457.327"/>
      <point x="587.0" y="385.5" type="curve"/>
      <point x="597.0" y="385.5" type="line"/>
      <point x="569.4680000000001" y="467.5675"/>
      <point x="505.497" y="499.0"/>
      <point x="412.5" y="499.0" type="curve" smooth="yes"/>
      <point x="318.5" y="499.0"/>
      <point x="252.0" y="456.5"/>
      <point x="211.0" y="386.0" type="curve"/>
      <point x="221.5" y="386.0" type="line"/>
      <point x="221.5" y="489.0" type="line"/>
      <point x="86.5" y="489.0" type="line"/>
    </contour>
  </outline>
</glyph>
<glyph name="n" format="2">
  <advance width="722.5"/>
  <unicode hex="006E"/>
  <anchor x="360.5" y="0.0" name="bottom"/>
  <anchor x="360.5" y="484.0" name="top"/>
  <outline>
    <contour>
      <point x="84.5" y="0.0" type="line"/>
      <point x="222.5" y="0.0" type="line"/>
      <point x="222.5" y="250.0" type="line" smooth="yes"/>
      <point x="222.5" y="330.0"/>
      <point x="283.5" y="392.0"/>
      <point x="382.0" y="392.0" type="curve" smooth="yes"/>
      <point x="458.5" y="392.0"/>
      <point x="503.0" y="361.0"/>
      <point x="503.0" y="266.5" type="curve" smooth="yes"/>
      <point x="503.0" y="0.0" type="line"/>
      <point x="641.0" y="0.0" type="line"/>
      <point x="641.0" y="272.0" type="line" smooth="yes"/>
      <point x="641.0" y="436.5"/>
      <point x="562.5" y="499.0"/>
      <point x="425.5" y="499.0" type="curve" smooth="yes"/>
      <point x="324.0" y="499.0"/>
      <point x="250.5" y="457.5"/>
      <point x="209.0" y="386.0" type="curve"/>
      <point x="219.5" y="386.0" type="line"/>
      <point x="219.5" y="489.0" type="line"/>
      <point x="84.5" y="489.0" type="line"/>
    </contour>
  </outline>
</glyph>
<glyph name="o" format="2">
  <advance width="710.0"/>
  <unicode hex="006F"/>
  <anchor x="355.0" y="0.0" name="bottom"/>
  <anchor x="353.0" y="245.0" name="center"/>
  <anchor x="397.5" y="0.0" name="ogonek"/>
  <anchor x="355.0" y="484.0" name="top"/>
  <anchor x="419.0" y="484.0" name="topright"/>
  <outline>
    <contour>
      <point x="355.0" y="-10.0" type="curve" smooth="yes"/>
      <point x="545.5" y="-10.0"/>
      <point x="660.5" y="93.5"/>
      <point x="660.5" y="245.0" type="curve" smooth="yes"/>
      <point x="660.5" y="395.5"/>
      <point x="545.5" y="499.0"/>
      <point x="355.0" y="499.0" type="curve" smooth="yes"/>
      <point x="163.5" y="499.0"/>
      <point x="49.5" y="395.5"/>
      <point x="49.5" y="245.0" type="curve" smooth="yes"/>
      <point x="49.5" y="93.5"/>
      <point x="163.5" y="-10.0"/>
    </contour>
    <contour>
      <point x="355.0" y="93.5" type="curve" smooth="yes"/>
      <point x="250.0" y="93.5"/>
      <point x="189.0" y="151.5"/>
      <point x="189.0" y="245.0" type="curve" smooth="yes"/>
      <point x="189.0" y="338.5"/>
      <point x="250.0" y="395.5"/>
      <point x="355.0" y="395.5" type="curve" smooth="yes"/>
      <point x="459.0" y="395.5"/>
      <point x="521.0" y="338.5"/>
      <point x="521.0" y="245.0" type="curve" smooth="yes"/>
      <point x="521.0" y="151.5"/>
      <point x="459.0" y="93.5"/>
    </contour>
  </outline>
</glyph>
<glyph name="q" format="2">
  <advance width="741.0"/>
  <unicode hex="0071"/>
  <anchor x="370.0" y="0.0" name="bottom"/>
  <anchor x="370.0" y="484.0" name="top"/>
  <outline>
    <contour>
      <point x="518.5" y="-180.0" type="line"/>
      <point x="656.5" y="-180.0" type="line"/>
      <point x="656.5" y="489.0" type="line"/>
      <point x="519.0" y="489.0" type="line"/>
      <point x="519.0" y="390.0" type="line"/>
      <point x="532.0" y="390.0" type="line"/>
      <point x="505.5" y="457.0"/>
      <point x="425.0" y="499.0"/>
      <point x="321.0" y="499.0" type="curve" smooth="yes"/>
      <point x="154.5" y="499.0"/>
      <point x="49.5" y="399.5"/>
      <point x="49.5" y="245.0" type="curve" smooth="yes"/>
      <point x="49.5" y="90.5"/>
      <point x="154.5" y="-10.0"/>
      <point x="321.0" y="-10.0" type="curve" smooth="yes"/>
      <point x="425.5" y="-10.0"/>
      <point x="505.5" y="32.0"/>
      <point x="532.0" y="100.0" type="curve"/>
      <point x="518.5" y="100.0" type="line"/>
    </contour>
    <contour>
      <point x="355.0" y="93.5" type="curve" smooth="yes"/>
      <point x="251.5" y="93.5"/>
      <point x="189.0" y="152.0"/>
      <point x="189.0" y="245.0" type="curve" smooth="yes"/>
      <point x="189.0" y="338.0"/>
      <point x="251.5" y="395.5"/>
      <point x="355.0" y="395.5" type="curve" smooth="yes"/>
      <point x="457.5" y="395.5"/>
      <point x="521.0" y="338.5"/>
      <point x="521.0" y="245.0" type="curve" smooth="yes"/>
      <point x="521.0" y="151.5"/>
      <point x="457.5" y="93.5"/>
    </contour>
  </outline>
</glyph>
<glyph name="r" format="2">
  <advance width="472.5"/>
  <unicode hex="0072"/>
  <anchor x="154.5" y="0.0" name="bottom"/>
  <anchor x="277.5" y="484.0" name="top"/>
  <outline>
    <contour>
      <point x="84.5" y="0.0" type="line"/>
      <point x="225.0" y="0.0" type="line"/>
      <point x="225.0" y="255.5" type="line" smooth="yes"/>
      <point x="225.0" y="328.0"/>
      <point x="276.5" y="369.5"/>
      <point x="386.0" y="379.5" type="curve" smooth="yes"/>
      <point x="467.5" y="386.5" type="line"/>
      <point x="458.0" y="502.0" type="line"/>
      <point x="414.5" y="499.0" type="line" smooth="yes"/>
      <point x="305.5" y="491.0"/>
      <point x="232.5" y="450.5"/>
      <point x="206.5" y="367.5" type="curve"/>
      <point x="219.5" y="367.5" type="line"/>
      <point x="219.5" y="489.0" type="line"/>
      <point x="84.5" y="489.0" type="line"/>
    </contour>
  </outline>
</glyph>
<glyph name="s" format="2">
  <advance width="602.5"/>
  <unicode hex="0073"/>
  <anchor x="306.0" y="0.0" name="bottom"/>
  <anchor x="310.5" y="484.0" name="top"/>
  <outline>
    <contour>
      <point x="305.0" y="-10.0" type="curve" smooth="yes"/>
      <point x="456.5" y="-10.0"/>
      <point x="555.5" y="51.0"/>
      <point x="555.5" y="148.0" type="curve" smooth="yes"/>
      <point x="555.5" y="222.5"/>
      <point x="501.5" y="267.0"/>
      <point x="402.0" y="278.5" type="curve" smooth="yes"/>
      <point x="259.5" y="296.0" type="line" smooth="yes"/>
      <point x="210.0" y="301.0"/>
      <point x="192.5" y="321.0"/>
      <point x="192.5" y="346.5" type="curve" smooth="yes"/>
      <point x="192.5" y="380.0"/>
      <point x="227.0" y="405.0"/>
      <point x="307.0" y="405.0" type="curve" smooth="yes"/>
      <point x="377.0" y="405.0"/>
      <point x="447.0" y="389.0"/>
      <point x="503.5" y="356.5" type="curve"/>
      <point x="542.0" y="442.5" type="line"/>
      <point x="496.5" y="477.5"/>
      <point x="414.5" y="499.0"/>
      <point x="316.0" y="499.0" type="curve" smooth="yes"/>
      <point x="165.0" y="499.0"/>
      <point x="66.0" y="433.0"/>
      <point x="66.0" y="340.5" type="curve" smooth="yes"/>
      <point x="66.0" y="269.5"/>
      <point x="119.5" y="219.5"/>
      <point x="218.0" y="207.5" type="curve" smooth="yes"/>
      <point x="360.5" y="190.0" type="line" smooth="yes"/>
      <point x="410.0" y="184.0"/>
      <point x="429.5" y="167.0"/>
      <point x="429.5" y="141.0" type="curve" smooth="yes"/>
      <point x="429.5" y="106.0"/>
      <point x="387.0" y="83.5"/>
      <point x="315.5" y="83.5" type="curve" smooth="yes"/>
      <point x="235.5" y="83.5"/>
      <point x="148.0" y="101.5"/>
      <point x="86.5" y="134.5" type="curve"/>
      <point x="55.5" y="45.0" type="line"/>
      <point x="107.5" y="11.0"/>
      <point x="197.5" y="-10.0"/>
    </contour>
  </outline>
</glyph>
<glyph name="t" format="2">
  <advance width="461.0"/>
  <unicode hex="0074"/>
  <anchor x="279.0" y="0.0" name="bottom"/>
  <anchor x="216.5" y="259.0" name="center"/>
  <anchor x="187.5" y="635.0" name="top"/>
  <anchor x="330.0" y="705.0" name="topright"/>
  <outline>
    <contour>
      <point x="343.5" y="-10.0" type="curve" smooth="yes"/>
      <point x="393.5" y="-10.0"/>
      <point x="437.5" y="-2.0"/>
      <point x="469.5" y="13.5" type="curve"/>
      <point x="449.0" y="113.5" type="line"/>
      <point x="424.0" y="106.0"/>
      <point x="398.0" y="102.0"/>
      <point x="370.5" y="102.0" type="curve" smooth="yes"/>
      <point x="292.0" y="102.0"/>
      <point x="256.0" y="131.5"/>
      <point x="256.0" y="199.5" type="curve" smooth="yes"/>
      <point x="256.0" y="388.5" type="line"/>
      <point x="443.5" y="388.5" type="line"/>
      <point x="443.5" y="489.0" type="line"/>
      <point x="256.0" y="489.0" type="line"/>
      <point x="256.0" y="635.0" type="line"/>
      <point x="118.0" y="635.0" type="line"/>
      <point x="118.0" y="489.0" type="line"/>
      <point x="0.0" y="489.0" type="line"/>
      <point x="0.0" y="388.5" type="line"/>
      <point x="118.0" y="388.5" type="line"/>
      <point x="118.0" y="190.5" type="line" smooth="yes"/>
      <point x="118.0" y="58.5"/>
      <point x="197.5" y="-10.0"/>
    </contour>
  </outline>
</glyph>
<glyph name="u" format="2">
  <advance width="716.0"/>
  <unicode hex="0075"/>
  <anchor x="357.5" y="0.0" name="bottom"/>
  <anchor x="606.5" y="0.0" name="ogonek"/>
  <anchor x="357.5" y="485.0" name="top"/>
  <anchor x="525.5" y="484.0" name="topright"/>
  <outline>
    <contour>
      <point x="293.0" y="-10.0" type="curve" smooth="yes"/>
      <point x="393.343" y="-10.0"/>
      <point x="464.675" y="32.2835"/>
      <point x="506.5" y="103.5" type="curve"/>
      <point x="496.5" y="103.5" type="line"/>
      <point x="496.5" y="0.0" type="line"/>
      <point x="631.5" y="0.0" type="line"/>
      <point x="631.5" y="489.0" type="line"/>
      <point x="493.5" y="489.0" type="line"/>
      <point x="493.5" y="238.0" type="line" smooth="yes"/>
      <point x="493.5" y="158.0"/>
      <point x="433.3595" y="97.0"/>
      <point x="337.5" y="97.0" type="curve" smooth="yes"/>
      <point x="262.207" y="97.0"/>
      <point x="219.5" y="127.0"/>
      <point x="219.5" y="222.0" type="curve" smooth="yes"/>
      <point x="219.5" y="489.0" type="line"/>
      <point x="81.5" y="489.0" type="line"/>
      <point x="81.5" y="217.5" type="line" smooth="yes"/>
      <point x="81.5" y="53.0"/>
      <point x="159.1985" y="-10.0"/>
    </contour>
  </outline>
</glyph>
<glyph name="v" format="2">
  <advance width="648.0"/>
  <unicode hex="0076"/>
  <anchor x="325.5" y="0.0" name="bottom"/>
  <anchor x="325.5" y="484.0" name="top"/>
  <outline>
    <contour>
      <point x="263.5" y="0.0" type="line"/>
      <point x="384.5" y="0.0" type="line"/>
      <point x="650.5" y="489.0" type="line"/>
      <point x="510.5" y="489.0" type="line"/>
      <point x="307.5" y="104.0" type="line"/>
      <point x="349.0" y="104.0" type="line"/>
      <point x="147.0" y="489.0" type="line"/>
      <point x="-2.0" y="489.0" type="line"/>
    </contour>
  </outline>
</glyph>
<glyph name="w" format="2">
  <advance width="1056.5"/>
  <unicode hex="0077"/>
  <anchor x="528.5" y="0.0" name="bottom"/>
  <anchor x="528.5" y="484.0" name="top"/>
  <outline>
    <contour>
      <point x="250.0" y="0.0" type="line"/>
      <point x="373.5" y="0.0" type="line"/>
      <point x="558.5" y="385.5" type="line"/>
      <point x="499.0" y="385.5" type="line"/>
      <point x="684.0" y="0.0" type="line"/>
      <point x="808.0" y="0.0" type="line"/>
      <point x="1043.0" y="489.0" type="line"/>
      <point x="903.0" y="489.0" type="line"/>
      <point x="734.5" y="116.5" type="line"/>
      <point x="759.5" y="116.5" type="line"/>
      <point x="581.5" y="489.0" type="line"/>
      <point x="482.0" y="489.0" type="line"/>
      <point x="303.5" y="116.5" type="line"/>
      <point x="329.5" y="116.5" type="line"/>
      <point x="163.0" y="489.0" type="line"/>
      <point x="14.0" y="489.0" type="line"/>
    </contour>
  </outline>
</glyph>
<glyph name="x" format="2">
  <advance width="668.5"/>
  <unicode hex="0078"/>
  <anchor x="335.5" y="0.0" name="bottom"/>
  <anchor x="335.5" y="484.0" name="top"/>
  <outline>
    <contour>
      <point x="1.0" y="0.0" type="line"/>
      <point x="166.0" y="0.0" type="line"/>
      <point x="358.0" y="197.0" type="line"/>
      <point x="311.0" y="197.0" type="line"/>
      <point x="498.5" y="0.0" type="line"/>
      <point x="670.5" y="0.0" type="line"/>
      <point x="392.0" y="283.0" type="line"/>
      <point x="392.0" y="221.5" type="line"/>
      <point x="654.5" y="489.0" type="line"/>
      <point x="489.5" y="489.0" type="line"/>
      <point x="311.0" y="306.0" type="line"/>
      <point x="360.0" y="306.0" type="line"/>
      <point x="188.0" y="489.0" type="line"/>
      <point x="16.5" y="489.0" type="line"/>
      <point x="279.5" y="221.0" type="line"/>
      <point x="279.5" y="284.5" type="line"/>
    </contour>
  </outline>
</glyph>
<glyph name="y" format="2">
  <advance width="647.5"/>
  <unicode hex="0079"/>
  <anchor x="501.5" y="0.0" name="bottom"/>
  <anchor x="325.0" y="484.0" name="top"/>
  <outline>
    <contour>
      <point x="144.0" y="-180.0" type="line"/>
      <point x="287.5" y="-180.0" type="line"/>
      <point x="650.5" y="489.0" type="line"/>
      <point x="510.0" y="489.0" type="line"/>
      <point x="312.5" y="112.5" type="line"/>
      <point x="345.0" y="112.5" type="line"/>
      <point x="146.5" y="489.0" type="line"/>
      <point x="-2.5" y="489.0" type="line"/>
      <point x="268.5" y="-10.0" type="line"/>
      <point x="268.5" y="50.0" type="line"/>
    </contour>
  </outline>
</glyph>
<glyph name="z" format="2">
  <advance width="583.0"/>
  <unicode hex="007A"/>
  <anchor x="299.5" y="0.0" name="bottom"/>
  <anchor x="299.5" y="484.0" name="top"/>
  <outline>
    <contour>
      <point x="61.0" y="0.0" type="line"/>
      <point x="551.5" y="0.0" type="line"/>
      <point x="551.5" y="100.5" type="line"/>
      <point x="184.5" y="100.5" type="line"/>
      <point x="184.5" y="65.5" type="line"/>
      <point x="537.5" y="398.0" type="line"/>
      <point x="537.5" y="489.0" type="line"/>
      <point x="61.0" y="489.0" type="line"/>
      <point x="61.0" y="388.5" type="line"/>
      <point x="411.5" y="388.5" type="line"/>
      <point x="411.5" y="424.5" type="line"/>
      <point x="61.0" y="91.0" type="line"/>
    </contour>
  </outline>
</glyph>
<glyph name="braceleft" format="2">
  <advance width="468.0"/>
  <unicode hex="007B"/>
  <outline>
    <contour>
      <point x="320.0" y="-180.0" type="curve" smooth="yes"/>
      <point x="457.0" y="-180.0" type="line"/>
      <point x="457.0" y="-77.5" type="line"/>
      <point x="369.5" y="-77.5" type="line" smooth="yes"/>
      <point x="334.5" y="-77.5"/>
      <point x="315.5" y="-59.5"/>
      <point x="315.5" y="-28.0" type="curve" smooth="yes"/>
      <point x="315.5" y="147.5" type="line" smooth="yes"/>
      <point x="315.5" y="216.0"/>
      <point x="267.5" y="264.0"/>
      <point x="198.0" y="264.0" type="curve"/>
      <point x="198.0" y="260.0" type="line"/>
      <point x="267.5" y="260.0"/>
      <point x="315.5" y="308.5"/>
      <point x="315.5" y="377.0" type="curve" smooth="yes"/>
      <point x="315.5" y="553.0" type="line" smooth="yes"/>
      <point x="315.5" y="584.5"/>
      <point x="334.5" y="602.5"/>
      <point x="369.5" y="602.5" type="curve" smooth="yes"/>
      <point x="457.0" y="602.5" type="line"/>
      <point x="457.0" y="705.0" type="line"/>
      <point x="320.0" y="705.0" type="line" smooth="yes"/>
      <point x="230.5" y="705.0"/>
      <point x="177.5" y="657.0"/>
      <point x="177.5" y="575.5" type="curve" smooth="yes"/>
      <point x="177.5" y="393.5" type="line" smooth="yes"/>
      <point x="177.5" y="337.0"/>
      <point x="152.5" y="319.0"/>
      <point x="95.0" y="315.0" type="curve" smooth="yes"/>
      <point x="53.5" y="312.0" type="line"/>
      <point x="53.5" y="213.0" type="line"/>
      <point x="95.0" y="210.0" type="line" smooth="yes"/>
      <point x="155.5" y="206.0"/>
      <point x="177.5" y="184.0"/>
      <point x="177.5" y="131.0" type="curve" smooth="yes"/>
      <point x="177.5" y="-50.5" type="line" smooth="yes"/>
      <point x="177.5" y="-132.0"/>
      <point x="230.5" y="-180.0"/>
    </contour>
  </outline>
</glyph>
<glyph name="bar" format="2">
  <advance width="344.0"/>
  <unicode hex="007C"/>
  <outline>
    <contour>
      <point x="103.0" y="-180.0" type="line"/>
      <point x="241.0" y="-180.0" type="line"/>
      <point x="241.0" y="705.0" type="line"/>
      <point x="103.0" y="705.0" type="line"/>
    </contour>
  </outline>
</glyph>
<glyph name="braceright" format="2">
  <advance width="468.0"/>
  <unicode hex="007D"/>
  <outline>
    <contour>
      <point x="11.0" y="-180.0" type="line"/>
      <point x="148.5" y="-180.0" type="line" smooth="yes"/>
      <point x="238.0" y="-180.0"/>
      <point x="291.0" y="-132.0"/>
      <point x="291.0" y="-50.5" type="curve" smooth="yes"/>
      <point x="291.0" y="131.0" type="line" smooth="yes"/>
      <point x="291.0" y="184.0"/>
      <point x="312.5" y="206.0"/>
      <point x="373.0" y="210.0" type="curve" smooth="yes"/>
      <point x="415.0" y="213.0" type="line"/>
      <point x="415.0" y="312.0" type="line"/>
      <point x="373.0" y="315.0" type="line" smooth="yes"/>
      <point x="315.5" y="318.5"/>
      <point x="291.0" y="337.0"/>
      <point x="291.0" y="393.5" type="curve" smooth="yes"/>
      <point x="291.0" y="575.5" type="line" smooth="yes"/>
      <point x="291.0" y="657.0"/>
      <point x="238.0" y="705.0"/>
      <point x="148.5" y="705.0" type="curve" smooth="yes"/>
      <point x="11.0" y="705.0" type="line"/>
      <point x="11.0" y="602.5" type="line"/>
      <point x="99.5" y="602.5" type="line" smooth="yes"/>
      <point x="134.0" y="602.5"/>
      <point x="153.0" y="584.5"/>
      <point x="153.0" y="553.0" type="curve" smooth="yes"/>
      <point x="153.0" y="377.0" type="line" smooth="yes"/>
      <point x="153.0" y="308.5"/>
      <point x="201.5" y="260.0"/>
      <point x="270.0" y="260.0" type="curve"/>
      <point x="270.0" y="264.0" type="line"/>
      <point x="201.5" y="264.0"/>
      <point x="153.0" y="216.5"/>
      <point x="153.0" y="147.5" type="curve" smooth="yes"/>
      <point x="153.0" y="-28.0" type="line" smooth="yes"/>
      <point x="153.0" y="-59.5"/>
      <point x="134.0" y="-77.5"/>
      <point x="99.5" y="-77.5" type="curve" smooth="yes"/>
      <point x="11.0" y="-77.5" type="line"/>
    </contour>
  </outline>
</glyph>
<glyph name="asciitilde" format="2">
  <advance width="748.0"/>
  <unicode hex="007E"/>
  <outline>
    <contour>
      <point x="502.0" y="206.0" type="curve" smooth="yes"/>
      <point x="575.5" y="206.0"/>
      <point x="626.0" y="239.0"/>
      <point x="662.0" y="312.0" type="curve"/>
      <point x="588.5" y="356.0" type="line"/>
      <point x="564.5" y="313.5"/>
      <point x="540.5" y="297.0"/>
      <point x="502.0" y="297.0" type="curve" smooth="yes"/>
      <point x="473.0" y="297.0"/>
      <point x="440.5" y="308.5"/>
      <point x="386.5" y="330.5" type="curve" smooth="yes"/>
      <point x="312.5" y="359.5"/>
      <point x="280.5" y="368.5"/>
      <point x="245.0" y="368.5" type="curve" smooth="yes"/>
      <point x="172.5" y="368.5"/>
      <point x="121.5" y="335.0"/>
      <point x="86.0" y="261.5" type="curve"/>
      <point x="162.0" y="218.5" type="line"/>
      <point x="183.5" y="260.5"/>
      <point x="208.0" y="277.5"/>
      <point x="248.0" y="277.5" type="curve" smooth="yes"/>
      <point x="276.5" y="277.5"/>
      <point x="299.5" y="268.0"/>
      <point x="363.5" y="243.0" type="curve" smooth="yes"/>
      <point x="434.5" y="215.0"/>
      <point x="465.0" y="206.0"/>
    </contour>
  </outline>
</glyph>
<glyph name="exclamdown" format="2">
  <advance width="296.5"/>
  <unicode hex="00A1"/>
  <outline>
    <contour>
      <point x="64.5" y="-180.0" type="line"/>
      <point x="232.0" y="-180.0" type="line"/>
      <point x="189.5" y="272.5" type="line"/>
      <point x="107.0" y="272.5" type="line"/>
    </contour>
    <contour>
      <point x="72.5" y="339.5" type="line"/>
      <point x="224.5" y="339.5" type="line"/>
      <point x="224.5" y="489.0" type="line"/>
      <point x="72.5" y="489.0" type="line"/>
    </contour>
  </outline>
</glyph>
<glyph name="cent" format="2">
  <advance width="748.0"/>
  <unicode hex="00A2"/>
  <outline>
    <contour>
      <point x="343.0" y="-115.0" type="line"/>
      <point x="455.0" y="-115.0" type="line"/>
      <point x="455.0" y="21.0" type="line"/>
      <point x="420.5" y="-6.0" type="line"/>
      <point x="509.5" y="-5.5"/>
      <point x="589.5" y="17.5"/>
      <point x="640.0" y="55.5" type="curve"/>
      <point x="595.5" y="153.0" type="line"/>
      <point x="550.5" y="120.0"/>
      <point x="492.0" y="101.5"/>
      <point x="424.5" y="101.5" type="curve" smooth="yes"/>
      <point x="315.0" y="101.5"/>
      <point x="247.0" y="156.0"/>
      <point x="247.0" y="245.0" type="curve" smooth="yes"/>
      <point x="247.0" y="334.5"/>
      <point x="315.5" y="390.0"/>
      <point x="426.0" y="390.0" type="curve" smooth="yes"/>
      <point x="492.5" y="390.0"/>
      <point x="551.5" y="371.5"/>
      <point x="596.0" y="339.0" type="curve"/>
      <point x="640.0" y="433.5" type="line"/>
      <point x="591.5" y="472.5"/>
      <point x="510.5" y="495.0"/>
      <point x="421.5" y="495.0" type="curve"/>
      <point x="455.0" y="465.5" type="line"/>
      <point x="455.0" y="609.5" type="line"/>
      <point x="343.0" y="609.5" type="line"/>
      <point x="343.0" y="458.0" type="line"/>
      <point x="364.0" y="491.0" type="line"/>
      <point x="206.0" y="476.0"/>
      <point x="105.0" y="382.0"/>
      <point x="105.0" y="244.5" type="curve" smooth="yes"/>
      <point x="105.0" y="105.0"/>
      <point x="208.5" y="10.5"/>
      <point x="370.0" y="-3.5" type="curve"/>
      <point x="343.0" y="27.5" type="line"/>
    </contour>
  </outline>
</glyph>
<glyph name="sterling" format="2">
  <advance width="748.0"/>
  <unicode hex="00A3"/>
  <outline>
    <contour>
      <point x="58.0" y="0.0" type="line"/>
      <point x="699.0" y="0.0" type="line"/>
      <point x="699.0" y="114.5" type="line"/>
      <point x="315.5" y="114.5" type="line"/>
      <point x="315.5" y="303.0" type="line"/>
      <point x="523.5" y="303.0" type="line"/>
      <point x="523.5" y="405.0" type="line"/>
      <point x="315.5" y="405.0" type="line"/>
      <point x="315.5" y="491.0" type="line" smooth="yes"/>
      <point x="315.5" y="573.5"/>
      <point x="361.5" y="603.5"/>
      <point x="459.0" y="603.5" type="curve" smooth="yes"/>
      <point x="540.5" y="603.5"/>
      <point x="604.5" y="582.5"/>
      <point x="661.5" y="537.0" type="curve"/>
      <point x="716.5" y="638.0" type="line"/>
      <point x="654.5" y="687.0"/>
      <point x="555.5" y="715.0"/>
      <point x="455.5" y="715.0" type="curve" smooth="yes"/>
      <point x="270.5" y="715.0"/>
      <point x="169.0" y="640.0"/>
      <point x="169.0" y="497.5" type="curve" smooth="yes"/>
      <point x="169.0" y="405.0" type="line"/>
      <point x="58.0" y="405.0" type="line"/>
      <point x="58.0" y="303.0" type="line"/>
      <point x="169.0" y="303.0" type="line"/>
      <point x="169.0" y="114.5" type="line"/>
      <point x="58.0" y="114.5" type="line"/>
    </contour>
  </outline>
</glyph>
<glyph name="currency" format="2">
  <advance width="748.0"/>
  <unicode hex="00A4"/>
  <outline>
    <contour>
      <point x="141.5" y="-31.0" type="line"/>
      <point x="221.5" y="45.5" type="line"/>
      <point x="263.0" y="16.0"/>
      <point x="316.0" y="-1.5"/>
      <point x="374.5" y="-1.5" type="curve" smooth="yes"/>
      <point x="433.0" y="-1.5"/>
      <point x="486.0" y="16.5"/>
      <point x="527.5" y="45.5" type="curve"/>
      <point x="607.5" y="-31.0" type="line"/>
      <point x="662.5" y="27.5" type="line"/>
      <point x="584.5" y="101.0" type="line"/>
      <point x="615.0" y="142.0"/>
      <point x="632.0" y="191.5"/>
      <point x="632.0" y="246.0" type="curve" smooth="yes"/>
      <point x="632.0" y="300.5"/>
      <point x="615.0" y="350.5"/>
      <point x="585.0" y="391.0" type="curve"/>
      <point x="662.0" y="465.0" type="line"/>
      <point x="607.5" y="523.0" type="line"/>
      <point x="527.5" y="446.5" type="line"/>
      <point x="485.5" y="476.0"/>
      <point x="433.0" y="493.5"/>
      <point x="374.5" y="493.5" type="curve" smooth="yes"/>
      <point x="315.5" y="493.5"/>
      <point x="263.5" y="476.0"/>
      <point x="221.0" y="446.5" type="curve"/>
      <point x="141.0" y="522.5" type="line"/>
      <point x="86.0" y="465.5" type="line"/>
      <point x="163.5" y="391.5" type="line"/>
      <point x="133.5" y="350.5"/>
      <point x="116.5" y="301.0"/>
      <point x="116.5" y="246.0" type="curve" smooth="yes"/>
      <point x="116.5" y="191.5"/>
      <point x="134.0" y="141.5"/>
      <point x="163.5" y="101.5" type="curve"/>
      <point x="86.0" y="27.5" type="line"/>
    </contour>
    <contour>
      <point x="374.5" y="93.0" type="curve" smooth="yes"/>
      <point x="283.5" y="93.0"/>
      <point x="217.5" y="159.5"/>
      <point x="217.5" y="246.0" type="curve" smooth="yes"/>
      <point x="217.5" y="333.5"/>
      <point x="283.0" y="400.0"/>
      <point x="374.5" y="400.0" type="curve" smooth="yes"/>
      <point x="466.0" y="399.5"/>
      <point x="531.0" y="333.5"/>
      <point x="531.0" y="246.0" type="curve" smooth="yes"/>
      <point x="531.0" y="159.5"/>
      <point x="466.0" y="93.0"/>
    </contour>
  </outline>
</glyph>
<glyph name="yen" format="2">
  <advance width="748.0"/>
  <unicode hex="00A5"/>
  <outline>
    <contour>
      <point x="301.5" y="0.0" type="line"/>
      <point x="447.5" y="0.0" type="line"/>
      <point x="447.5" y="157.5" type="line"/>
      <point x="665.0" y="157.5" type="line"/>
      <point x="665.0" y="249.5" type="line"/>
      <point x="447.5" y="249.5" type="line"/>
      <point x="447.5" y="312.5" type="line"/>
      <point x="665.0" y="312.5" type="line"/>
      <point x="665.0" y="404.5" type="line"/>
      <point x="479.0" y="404.5" type="line"/>
      <point x="479.0" y="383.0" type="line"/>
      <point x="765.0" y="705.0" type="line"/>
      <point x="605.5" y="705.0" type="line"/>
      <point x="358.5" y="424.5" type="line"/>
      <point x="391.0" y="424.5" type="line"/>
      <point x="144.5" y="705.0" type="line"/>
      <point x="-16.0" y="705.0" type="line"/>
      <point x="276.0" y="383.0" type="line"/>
      <point x="276.0" y="404.5" type="line"/>
      <point x="84.0" y="404.5" type="line"/>
      <point x="84.0" y="312.5" type="line"/>
      <point x="301.5" y="312.5" type="line"/>
      <point x="301.5" y="249.5" type="line"/>
      <point x="84.0" y="249.5" type="line"/>
      <point x="84.0" y="157.5" type="line"/>
      <point x="301.5" y="157.5" type="line"/>
    </contour>
  </outline>
</glyph>
<glyph name="section" format="2">
  <advance width="696.0"/>
  <unicode hex="00A7"/>
  <outline>
    <contour>
      <point x="321.0" y="-190.0" type="curve" smooth="yes"/>
      <point x="498.5" y="-190.0"/>
      <point x="602.5" y="-122.0"/>
      <point x="602.5" y="-6.5" type="curve" smooth="yes"/>
      <point x="602.5" y="35.0"/>
      <point x="589.0" y="68.5"/>
      <point x="558.5" y="101.0" type="curve"/>
      <point x="547.0" y="64.0" type="line"/>
      <point x="617.0" y="105.5"/>
      <point x="653.0" y="159.0"/>
      <point x="653.0" y="222.5" type="curve" smooth="yes"/>
      <point x="653.0" y="299.5"/>
      <point x="606.0" y="349.0"/>
      <point x="485.5" y="393.0" type="curve" smooth="yes"/>
      <point x="320.0" y="452.0" type="line" smooth="yes"/>
      <point x="254.5" y="475.5"/>
      <point x="228.5" y="502.5"/>
      <point x="228.5" y="540.5" type="curve" smooth="yes"/>
      <point x="228.5" y="589.0"/>
      <point x="277.5" y="619.0"/>
      <point x="366.5" y="619.0" type="curve" smooth="yes"/>
      <point x="441.0" y="619.0"/>
      <point x="519.5" y="599.5"/>
      <point x="579.5" y="567.5" type="curve"/>
      <point x="620.5" y="656.0" type="line"/>
      <point x="566.5" y="693.0"/>
      <point x="475.5" y="715.0"/>
      <point x="376.5" y="715.0" type="curve" smooth="yes"/>
      <point x="199.0" y="715.0"/>
      <point x="95.0" y="647.0"/>
      <point x="95.0" y="531.5" type="curve" smooth="yes"/>
      <point x="95.0" y="490.0"/>
      <point x="108.5" y="456.5"/>
      <point x="139.0" y="424.0" type="curve"/>
      <point x="150.5" y="461.0" type="line"/>
      <point x="80.5" y="419.5"/>
      <point x="44.5" y="366.0"/>
      <point x="44.5" y="302.5" type="curve" smooth="yes"/>
      <point x="44.5" y="225.5"/>
      <point x="91.5" y="176.0"/>
      <point x="212.0" y="132.0" type="curve" smooth="yes"/>
      <point x="377.5" y="73.0" type="line" smooth="yes"/>
      <point x="442.0" y="50.0"/>
      <point x="469.0" y="22.5"/>
      <point x="469.0" y="-15.0" type="curve" smooth="yes"/>
      <point x="469.0" y="-64.5"/>
      <point x="419.0" y="-94.0"/>
      <point x="332.5" y="-94.0" type="curve" smooth="yes"/>
      <point x="248.0" y="-94.0"/>
      <point x="156.0" y="-70.0"/>
      <point x="99.5" y="-32.5" type="curve"/>
      <point x="57.5" y="-124.5" type="line"/>
      <point x="116.5" y="-166.5"/>
      <point x="212.5" y="-190.0"/>
    </contour>
    <contour>
      <point x="168.0" y="328.5" type="curve" smooth="yes"/>
      <point x="168.0" y="357.0"/>
      <point x="182.0" y="381.5"/>
      <point x="211.5" y="401.5" type="curve"/>
      <point x="175.0" y="402.5" type="line"/>
      <point x="197.5" y="382.5"/>
      <point x="242.5" y="361.0"/>
      <point x="286.0" y="345.5" type="curve" smooth="yes"/>
      <point x="414.0" y="298.5" type="line" smooth="yes"/>
      <point x="501.0" y="266.5"/>
      <point x="529.5" y="240.5"/>
      <point x="529.5" y="196.5" type="curve" smooth="yes"/>
      <point x="529.5" y="168.0"/>
      <point x="515.5" y="143.5"/>
      <point x="486.0" y="123.5" type="curve"/>
      <point x="522.5" y="122.5" type="line"/>
      <point x="500.0" y="142.5"/>
      <point x="454.5" y="164.5"/>
      <point x="411.5" y="179.5" type="curve" smooth="yes"/>
      <point x="283.5" y="226.5" type="line" smooth="yes"/>
      <point x="197.0" y="258.0"/>
      <point x="168.0" y="284.5"/>
    </contour>
  </outline>
</glyph>
<glyph name="copyright" format="2">
  <advance width="1014.0"/>
  <unicode hex="00A9"/>
  <outline>
    <contour>
      <point x="507.5" y="-10.0" type="curve" smooth="yes"/>
      <point x="773.5" y="-10.0"/>
      <point x="959.0" y="139.0"/>
      <point x="959.0" y="353.0" type="curve" smooth="yes"/>
      <point x="959.0" y="566.5"/>
      <point x="774.0" y="715.0"/>
      <point x="507.5" y="715.0" type="curve" smooth="yes"/>
      <point x="241.5" y="715.0"/>
      <point x="56.0" y="566.0"/>
      <point x="56.0" y="352.0" type="curve" smooth="yes"/>
      <point x="56.0" y="138.5"/>
      <point x="241.0" y="-10.0"/>
    </contour>
    <contour>
      <point x="526.5" y="137.0" type="curve" smooth="yes"/>
      <point x="602.0" y="137.0"/>
      <point x="667.5" y="155.5"/>
      <point x="710.0" y="188.0" type="curve"/>
      <point x="670.5" y="265.0" type="line"/>
      <point x="629.0" y="237.5"/>
      <point x="592.5" y="227.5"/>
      <point x="538.5" y="227.5" type="curve" smooth="yes"/>
      <point x="433.5" y="227.5"/>
      <point x="378.5" y="270.0"/>
      <point x="378.5" y="354.5" type="curve" smooth="yes"/>
      <point x="378.5" y="436.0"/>
      <point x="433.0" y="477.5"/>
      <point x="538.0" y="477.5" type="curve" smooth="yes"/>
      <point x="592.0" y="477.5"/>
      <point x="628.5" y="466.5"/>
      <point x="670.5" y="439.0" type="curve"/>
      <point x="710.0" y="517.0" type="line"/>
      <point x="665.0" y="550.5"/>
      <point x="600.0" y="568.0"/>
      <point x="523.5" y="568.0" type="curve" smooth="yes"/>
      <point x="361.5" y="568.0"/>
      <point x="260.5" y="486.5"/>
      <point x="260.5" y="353.0" type="curve" smooth="yes"/>
      <point x="260.5" y="220.0"/>
      <point x="363.0" y="137.0"/>
    </contour>
    <contour>
      <point x="507.5" y="45.5" type="curve" smooth="yes"/>
      <point x="274.0" y="45.5"/>
      <point x="117.5" y="168.0"/>
      <point x="117.5" y="352.0" type="curve" smooth="yes"/>
      <point x="117.5" y="536.0"/>
      <point x="274.5" y="659.5"/>
      <point x="507.5" y="659.5" type="curve" smooth="yes"/>
      <point x="742.0" y="659.5"/>
      <point x="897.5" y="537.0"/>
      <point x="897.5" y="353.0" type="curve" smooth="yes"/>
      <point x="897.5" y="169.0"/>
      <point x="741.5" y="45.5"/>
    </contour>
  </outline>
</glyph>
<glyph name="ordfeminine" format="2">
  <advance width="416.5"/>
  <unicode hex="00AA"/>
  <outline>
    <contour>
      <point x="170.5" y="407.5" type="curve" smooth="yes"/>
      <point x="227.5" y="407.5"/>
      <point x="266.0" y="427.5"/>
      <point x="287.5" y="468.5" type="curve"/>
      <point x="290.0" y="468.5" type="line"/>
      <point x="290.0" y="413.5" type="line"/>
      <point x="376.0" y="413.5" type="line"/>
      <point x="376.0" y="585.0" type="line" smooth="yes"/>
      <point x="376.0" y="672.0"/>
      <point x="323.0" y="715.0"/>
      <point x="212.0" y="715.0" type="curve" smooth="yes"/>
      <point x="148.5" y="715.0"/>
      <point x="85.5" y="701.5"/>
      <point x="43.5" y="677.5" type="curve"/>
      <point x="66.5" y="619.0" type="line"/>
      <point x="103.5" y="639.0"/>
      <point x="153.5" y="651.0"/>
      <point x="203.0" y="651.0" type="curve" smooth="yes"/>
      <point x="260.0" y="651.0"/>
      <point x="286.0" y="637.5"/>
      <point x="286.0" y="598.5" type="curve" smooth="yes"/>
      <point x="286.0" y="533.0" type="line" smooth="yes"/>
      <point x="286.0" y="495.0"/>
      <point x="243.5" y="466.0"/>
      <point x="187.5" y="466.0" type="curve" smooth="yes"/>
      <point x="146.0" y="466.0"/>
      <point x="119.5" y="482.0"/>
      <point x="119.5" y="505.0" type="curve" smooth="yes"/>
      <point x="119.5" y="536.0"/>
      <point x="162.5" y="543.0"/>
      <point x="236.0" y="543.0" type="curve" smooth="yes"/>
      <point x="297.0" y="543.0" type="line"/>
      <point x="297.0" y="589.0" type="line"/>
      <point x="235.0" y="589.0" type="line" smooth="yes"/>
      <point x="88.0" y="589.0"/>
      <point x="29.0" y="565.0"/>
      <point x="29.0" y="505.0" type="curve" smooth="yes"/>
      <point x="29.0" y="448.0"/>
      <point x="88.5" y="407.5"/>
    </contour>
  </outline>
</glyph>
<glyph name="registered" format="2">
  <advance width="1014.0"/>
  <unicode hex="00AE"/>
  <outline>
    <contour>
      <point x="507.5" y="-10.0" type="curve" smooth="yes"/>
      <point x="773.5" y="-10.0"/>
      <point x="959.0" y="139.0"/>
      <point x="959.0" y="353.0" type="curve" smooth="yes"/>
      <point x="959.0" y="566.5"/>
      <point x="774.0" y="715.0"/>
      <point x="507.5" y="715.0" type="curve" smooth="yes"/>
      <point x="241.5" y="715.0"/>
      <point x="56.0" y="566.0"/>
      <point x="56.0" y="352.0" type="curve" smooth="yes"/>
      <point x="56.0" y="138.5"/>
      <point x="241.0" y="-10.0"/>
    </contour>
    <contour>
      <point x="507.5" y="45.5" type="curve" smooth="yes"/>
      <point x="274.0" y="45.5"/>
      <point x="117.5" y="168.0"/>
      <point x="117.5" y="352.0" type="curve" smooth="yes"/>
      <point x="117.5" y="536.0"/>
      <point x="274.5" y="659.5"/>
      <point x="507.5" y="659.5" type="curve" smooth="yes"/>
      <point x="742.0" y="659.5"/>
      <point x="897.5" y="537.0"/>
      <point x="897.5" y="353.0" type="curve" smooth="yes"/>
      <point x="897.5" y="169.0"/>
      <point x="741.5" y="45.5"/>
    </contour>
    <contour>
      <point x="318.0" y="143.0" type="line"/>
      <point x="419.5" y="143.0" type="line"/>
      <point x="419.5" y="324.5" type="line"/>
      <point x="392.5" y="302.5" type="line"/>
      <point x="497.5" y="302.5" type="line" smooth="yes"/>
      <point x="538.0" y="302.5"/>
      <point x="555.5" y="290.5"/>
      <point x="567.0" y="265.5" type="curve" smooth="yes"/>
      <point x="619.5" y="143.0" type="line"/>
      <point x="731.5" y="143.0" type="line"/>
      <point x="671.0" y="278.5" type="line" smooth="yes"/>
      <point x="654.0" y="317.5"/>
      <point x="626.0" y="333.5"/>
      <point x="585.0" y="333.5" type="curve"/>
      <point x="545.5" y="320.5" type="line"/>
      <point x="659.0" y="320.5"/>
      <point x="723.0" y="364.0"/>
      <point x="723.0" y="444.5" type="curve" smooth="yes"/>
      <point x="723.0" y="521.0"/>
      <point x="664.0" y="564.5"/>
      <point x="554.0" y="564.5" type="curve" smooth="yes"/>
      <point x="318.0" y="564.5" type="line"/>
    </contour>
    <contour>
      <point x="419.5" y="377.0" type="line"/>
      <point x="419.5" y="489.5" type="line"/>
      <point x="539.5" y="489.5" type="line" smooth="yes"/>
      <point x="594.5" y="489.5"/>
      <point x="620.5" y="472.0"/>
      <point x="620.5" y="434.0" type="curve" smooth="yes"/>
      <point x="620.5" y="396.0"/>
      <point x="593.5" y="377.0"/>
      <point x="539.5" y="377.0" type="curve" smooth="yes"/>
    </contour>
  </outline>
</glyph>
<glyph name="degree" format="2">
  <advance width="420.5"/>
  <unicode hex="00B0"/>
  <outline>
    <contour>
      <point x="210.5" y="381.0" type="curve" smooth="yes"/>
      <point x="308.0" y="381.0"/>
      <point x="380.5" y="452.5"/>
      <point x="380.5" y="548.5" type="curve" smooth="yes"/>
      <point x="380.5" y="643.5"/>
      <point x="307.5" y="715.5"/>
      <point x="210.5" y="715.5" type="curve" smooth="yes"/>
      <point x="113.0" y="715.5"/>
      <point x="40.5" y="643.0"/>
      <point x="40.5" y="548.5" type="curve" smooth="yes"/>
      <point x="40.5" y="453.0"/>
      <point x="113.0" y="381.0"/>
    </contour>
    <contour>
      <point x="210.5" y="457.0" type="curve" smooth="yes"/>
      <point x="159.0" y="457.0"/>
      <point x="123.5" y="496.0"/>
      <point x="123.5" y="548.5" type="curve" smooth="yes"/>
      <point x="123.5" y="600.0"/>
      <point x="159.0" y="639.5"/>
      <point x="210.5" y="639.5" type="curve" smooth="yes"/>
      <point x="261.0" y="639.5"/>
      <point x="296.5" y="600.0"/>
      <point x="296.5" y="548.5" type="curve" smooth="yes"/>
      <point x="296.5" y="496.0"/>
      <point x="261.0" y="457.0"/>
    </contour>
  </outline>
</glyph>
<glyph name="plusminus" format="2">
  <advance width="748.0"/>
  <unicode hex="00B1"/>
  <outline>
    <contour>
      <point x="323.0" y="146.5" type="line"/>
      <point x="425.0" y="146.5" type="line"/>
      <point x="425.0" y="302.0" type="line"/>
      <point x="645.0" y="302.0" type="line"/>
      <point x="645.0" y="395.5" type="line"/>
      <point x="425.0" y="395.5" type="line"/>
      <point x="425.0" y="551.0" type="line"/>
      <point x="323.0" y="551.0" type="line"/>
      <point x="323.0" y="395.5" type="line"/>
      <point x="103.0" y="395.5" type="line"/>
      <point x="103.0" y="302.0" type="line"/>
      <point x="323.0" y="302.0" type="line"/>
    </contour>
    <contour>
      <point x="103.0" y="0.0" type="line"/>
      <point x="645.0" y="0.0" type="line"/>
      <point x="645.0" y="94.5" type="line"/>
      <point x="103.0" y="94.5" type="line"/>
    </contour>
  </outline>
</glyph>
<glyph name="micro" format="2">
  <advance width="716.0"/>
  <unicode hex="00B5"/>
  <outline>
    <contour>
      <point x="82.5" y="-180.0" type="line"/>
      <point x="220.5" y="-180.0" type="line"/>
      <point x="209.0" y="47.0" type="line"/>
      <point x="206.0" y="47.0" type="line"/>
      <point x="233.0" y="5.0"/>
      <point x="277.5" y="-10.0"/>
      <point x="333.5" y="-10.0" type="curve" smooth="yes"/>
      <point x="421.0" y="-10.0"/>
      <point x="474.0" y="32.5"/>
      <point x="500.5" y="103.5" type="curve"/>
      <point x="497.5" y="103.5" type="line"/>
      <point x="497.5" y="0.0" type="line"/>
      <point x="632.5" y="0.0" type="line"/>
      <point x="632.5" y="489.0" type="line"/>
      <point x="494.5" y="489.0" type="line"/>
      <point x="494.5" y="239.0" type="line" smooth="yes"/>
      <point x="494.5" y="159.0"/>
      <point x="434.0" y="98.0"/>
      <point x="338.5" y="98.0" type="curve" smooth="yes"/>
      <point x="263.5" y="98.0"/>
      <point x="220.5" y="128.0"/>
      <point x="220.5" y="223.0" type="curve" smooth="yes"/>
      <point x="220.5" y="489.0" type="line"/>
      <point x="82.5" y="489.0" type="line"/>
    </contour>
  </outline>
</glyph>
<glyph name="paragraph" format="2">
  <advance width="761.0"/>
  <unicode hex="00B6"/>
  <outline>
    <contour>
      <point x="306.5" y="-180.0" type="line"/>
      <point x="408.5" y="-180.0" type="line"/>
      <point x="408.5" y="608.5" type="line"/>
      <point x="561.0" y="608.5" type="line"/>
      <point x="561.0" y="-180.0" type="line"/>
      <point x="663.0" y="-180.0" type="line"/>
      <point x="663.0" y="705.0" type="line"/>
      <point x="309.0" y="705.0" type="line" smooth="yes"/>
      <point x="146.5" y="705.0"/>
      <point x="45.5" y="623.0"/>
      <point x="45.5" y="490.5" type="curve" smooth="yes"/>
      <point x="45.5" y="358.0"/>
      <point x="146.0" y="274.0"/>
      <point x="306.5" y="274.0" type="curve"/>
    </contour>
  </outline>
</glyph>
<glyph name="periodcentered" format="2">
  <advance width="296.5"/>
  <unicode hex="00B7"/>
  <outline>
    <contour>
      <point x="69.5" y="193.0" type="line"/>
      <point x="226.5" y="193.0" type="line"/>
      <point x="226.5" y="342.5" type="line"/>
      <point x="69.5" y="342.5" type="line"/>
    </contour>
  </outline>
</glyph>
<glyph name="ordmasculine" format="2">
  <advance width="433.0"/>
  <unicode hex="00BA"/>
  <outline>
    <contour>
      <point x="217.0" y="407.0" type="curve" smooth="yes"/>
      <point x="334.5" y="407.0"/>
      <point x="408.0" y="466.0"/>
      <point x="408.0" y="561.5" type="curve" smooth="yes"/>
      <point x="408.0" y="656.0"/>
      <point x="334.5" y="715.0"/>
      <point x="217.0" y="715.0" type="curve" smooth="yes"/>
      <point x="98.5" y="715.0"/>
      <point x="25.0" y="656.0"/>
      <point x="25.0" y="561.5" type="curve" smooth="yes"/>
      <point x="25.0" y="466.0"/>
      <point x="98.5" y="407.0"/>
    </contour>
    <contour>
      <point x="217.0" y="474.5" type="curve" smooth="yes"/>
      <point x="153.5" y="474.5"/>
      <point x="117.0" y="505.5"/>
      <point x="117.0" y="561.5" type="curve" smooth="yes"/>
      <point x="117.0" y="617.5"/>
      <point x="153.5" y="648.5"/>
      <point x="217.0" y="648.5" type="curve" smooth="yes"/>
      <point x="279.5" y="648.5"/>
      <point x="316.0" y="617.5"/>
      <point x="316.0" y="561.5" type="curve" smooth="yes"/>
      <point x="316.0" y="505.5"/>
      <point x="279.5" y="474.5"/>
    </contour>
  </outline>
</glyph>
<glyph name="questiondown" format="2">
  <advance width="562.0"/>
  <unicode hex="00BF"/>
  <outline>
    <contour>
      <point x="271.0" y="-190.0" type="curve" smooth="yes"/>
      <point x="381.5" y="-190.0"/>
      <point x="490.5" y="-156.0"/>
      <point x="561.5" y="-98.5" type="curve"/>
      <point x="508.5" y="6.0" type="line"/>
      <point x="439.0" y="-47.0"/>
      <point x="366.0" y="-72.5"/>
      <point x="279.0" y="-72.5" type="curve" smooth="yes"/>
      <point x="201.5" y="-72.5"/>
      <point x="160.5" y="-51.0"/>
      <point x="160.5" y="-9.5" type="curve" smooth="yes"/>
      <point x="160.5" y="20.0"/>
      <point x="181.0" y="46.5"/>
      <point x="235.0" y="83.0" type="curve" smooth="yes"/>
      <point x="308.5" y="133.5"/>
      <point x="334.0" y="178.5"/>
      <point x="334.0" y="230.5" type="curve" smooth="yes"/>
      <point x="334.0" y="273.5" type="line"/>
      <point x="252.5" y="273.5" type="line"/>
      <point x="249.0" y="249.5" type="line" smooth="yes"/>
      <point x="242.5" y="212.0"/>
      <point x="221.5" y="182.0"/>
      <point x="135.0" y="127.5" type="curve" smooth="yes"/>
      <point x="54.0" y="76.5"/>
      <point x="19.5" y="30.5"/>
      <point x="19.5" y="-29.5" type="curve" smooth="yes"/>
      <point x="19.5" y="-127.5"/>
      <point x="119.0" y="-190.0"/>
    </contour>
    <contour>
      <point x="217.5" y="339.5" type="line"/>
      <point x="369.0" y="339.5" type="line"/>
      <point x="369.0" y="489.0" type="line"/>
      <point x="217.5" y="489.0" type="line"/>
    </contour>
  </outline>
</glyph>
<glyph name="AE" format="2">
  <advance width="1230.0"/>
  <unicode hex="00C6"/>
  <anchor x="607.5" y="0.0" name="bottom"/>
  <anchor x="607.0" y="705.0" name="top"/>
  <outline>
    <contour>
      <point x="-39.5" y="0.0" type="line"/>
      <point x="124.0" y="0.0" type="line"/>
      <point x="268.0" y="195.0" type="line"/>
      <point x="206.5" y="158.0" type="line"/>
      <point x="688.5" y="158.0" type="line"/>
      <point x="639.5" y="200.0" type="line"/>
      <point x="696.0" y="0.0" type="line"/>
      <point x="1169.5" y="0.0" type="line"/>
      <point x="1169.5" y="111.0" type="line"/>
      <point x="764.0" y="111.0" type="line"/>
      <point x="816.0" y="71.5" type="line"/>
      <point x="739.5" y="341.5" type="line"/>
      <point x="707.0" y="303.0" type="line"/>
      <point x="1143.5" y="303.0" type="line"/>
      <point x="1143.5" y="414.0" type="line"/>
      <point x="682.5" y="414.0" type="line"/>
      <point x="729.5" y="375.0" type="line"/>
      <point x="657.0" y="629.0" type="line"/>
      <point x="624.5" y="594.0" type="line"/>
      <point x="1169.5" y="594.0" type="line"/>
      <point x="1169.5" y="705.0" type="line"/>
      <point x="496.5" y="705.0" type="line"/>
    </contour>
    <contour>
      <point x="536.5" y="559.0" type="line"/>
      <point x="538.5" y="559.0" type="line"/>
      <point x="630.5" y="231.5" type="line"/>
      <point x="660.0" y="269.5" type="line"/>
      <point x="274.0" y="269.5" type="line"/>
      <point x="297.0" y="235.0" type="line"/>
    </contour>
  </outline>
</glyph>
<glyph name="multiply" format="2">
  <advance width="748.0"/>
  <unicode hex="00D7"/>
  <outline>
    <contour>
      <point x="187.0" y="33.5" type="line"/>
      <point x="374.0" y="221.0" type="line"/>
      <point x="561.0" y="33.5" type="line"/>
      <point x="628.0" y="100.0" type="line"/>
      <point x="440.5" y="286.0" type="line"/>
      <point x="628.0" y="474.0" type="line"/>
      <point x="561.0" y="541.5" type="line"/>
      <point x="373.5" y="355.0" type="line"/>
      <point x="185.0" y="541.5" type="line"/>
      <point x="120.0" y="474.0" type="line"/>
      <point x="307.0" y="286.5" type="line"/>
      <point x="120.0" y="100.0" type="line"/>
    </contour>
  </outline>
</glyph>
<glyph name="Thorn" format="2">
  <advance width="804.0"/>
  <unicode hex="00DE"/>
  <anchor x="411.0" y="0.0" name="bottom"/>
  <anchor x="411.5" y="705.0" name="top"/>
  <outline>
    <contour>
      <point x="98.0" y="0.0" type="line"/>
      <point x="243.5" y="0.0" type="line"/>
      <point x="243.5" y="143.5" type="line"/>
      <point x="485.0" y="143.5" type="line" smooth="yes"/>
      <point x="673.0" y="143.5"/>
      <point x="772.5" y="221.0"/>
      <point x="772.5" y="367.0" type="curve" smooth="yes"/>
      <point x="772.5" y="513.5"/>
      <point x="673.0" y="589.5"/>
      <point x="485.0" y="589.5" type="curve" smooth="yes"/>
      <point x="243.5" y="589.5" type="line"/>
      <point x="243.5" y="705.0" type="line"/>
      <point x="98.0" y="705.0" type="line"/>
    </contour>
    <contour>
      <point x="243.5" y="253.5" type="line"/>
      <point x="243.5" y="479.5" type="line"/>
      <point x="467.5" y="479.5" type="line" smooth="yes"/>
      <point x="581.5" y="479.5"/>
      <point x="631.0" y="446.0"/>
      <point x="631.0" y="367.5" type="curve" smooth="yes"/>
      <point x="631.0" y="289.5"/>
      <point x="579.0" y="253.5"/>
      <point x="467.5" y="253.5" type="curve" smooth="yes"/>
    </contour>
  </outline>
</glyph>
<glyph name="germandbls" format="2">
  <advance width="795.5"/>
  <unicode hex="00DF"/>
  <outline>
    <contour>
      <point x="524.0" y="-10.0" type="curve" smooth="yes"/>
      <point x="674.5" y="-10.0"/>
      <point x="767.5" y="53.5"/>
      <point x="767.5" y="156.0" type="curve" smooth="yes"/>
      <point x="767.5" y="238.0"/>
      <point x="707.5" y="281.0"/>
      <point x="591.0" y="301.5" type="curve" smooth="yes"/>
      <point x="499.0" y="318.0"/>
      <point x="465.0" y="329.0"/>
      <point x="465.0" y="367.5" type="curve" smooth="yes"/>
      <point x="465.0" y="396.5"/>
      <point x="488.5" y="412.5"/>
      <point x="533.5" y="444.5" type="curve" smooth="yes"/>
      <point x="591.0" y="483.0"/>
      <point x="624.0" y="520.5"/>
      <point x="624.0" y="573.0" type="curve" smooth="yes"/>
      <point x="624.0" y="665.0"/>
      <point x="539.0" y="715.0"/>
      <point x="383.0" y="715.0" type="curve" smooth="yes"/>
      <point x="186.0" y="715.0"/>
      <point x="83.0" y="634.5"/>
      <point x="83.0" y="480.0" type="curve" smooth="yes"/>
      <point x="83.0" y="0.0" type="line"/>
      <point x="221.0" y="0.0" type="line"/>
      <point x="221.0" y="492.0" type="line" smooth="yes"/>
      <point x="221.0" y="576.5"/>
      <point x="276.0" y="616.5"/>
      <point x="386.5" y="616.5" type="curve" smooth="yes"/>
      <point x="457.5" y="616.5"/>
      <point x="492.5" y="599.0"/>
      <point x="492.5" y="560.5" type="curve" smooth="yes"/>
      <point x="492.5" y="529.0"/>
      <point x="469.0" y="510.5"/>
      <point x="428.5" y="481.0" type="curve" smooth="yes"/>
      <point x="367.5" y="439.0"/>
      <point x="337.0" y="400.0"/>
      <point x="337.0" y="348.0" type="curve" smooth="yes"/>
      <point x="337.0" y="268.0"/>
      <point x="398.5" y="227.5"/>
      <point x="516.5" y="209.5" type="curve" smooth="yes"/>
      <point x="613.5" y="194.0"/>
      <point x="640.0" y="177.5"/>
      <point x="640.0" y="149.5" type="curve" smooth="yes"/>
      <point x="640.0" y="112.0"/>
      <point x="602.0" y="90.5"/>
      <point x="535.5" y="90.5" type="curve" smooth="yes"/>
      <point x="470.5" y="90.5"/>
      <point x="395.5" y="107.0"/>
      <point x="332.5" y="146.0" type="curve"/>
      <point x="288.5" y="55.5" type="line"/>
      <point x="348.0" y="13.5"/>
      <point x="441.0" y="-10.0"/>
    </contour>
  </outline>
</glyph>
<glyph name="ae" format="2">
  <advance width="1070.0"/>
  <unicode hex="00E6"/>
  <anchor x="526.5" y="0.0" name="bottom"/>
  <anchor x="526.5" y="484.0" name="top"/>
  <outline>
    <contour>
      <point x="285.5" y="-10.0" type="curve" smooth="yes"/>
      <point x="409.5" y="-10.0"/>
      <point x="498.5" y="40.5"/>
      <point x="533.0" y="127.5" type="curve"/>
      <point x="493.5" y="127.5" type="line"/>
      <point x="537.5" y="38.5"/>
      <point x="644.0" y="-10.0"/>
      <point x="779.5" y="-10.0" type="curve" smooth="yes"/>
      <point x="879.5" y="-10.0"/>
      <point x="972.5" y="15.0"/>
      <point x="1021.5" y="52.0" type="curve"/>
      <point x="985.5" y="143.5" type="line"/>
      <point x="938.0" y="112.0"/>
      <point x="869.5" y="93.5"/>
      <point x="791.0" y="93.5" type="curve" smooth="yes"/>
      <point x="656.5" y="93.5"/>
      <point x="594.5" y="144.5"/>
      <point x="594.5" y="249.0" type="curve" smooth="yes"/>
      <point x="594.5" y="256.5" type="line" smooth="yes"/>
      <point x="594.5" y="349.5"/>
      <point x="655.5" y="407.0"/>
      <point x="762.0" y="407.0" type="curve" smooth="yes"/>
      <point x="859.5" y="407.0"/>
      <point x="912.5" y="361.0"/>
      <point x="914.0" y="274.5" type="curve"/>
      <point x="936.0" y="293.0" type="line"/>
      <point x="569.0" y="293.0" type="line"/>
      <point x="569.0" y="214.5" type="line"/>
      <point x="1031.5" y="214.5" type="line"/>
      <point x="1031.5" y="251.5" type="line" smooth="yes"/>
      <point x="1031.5" y="406.0"/>
      <point x="927.5" y="499.0"/>
      <point x="757.0" y="499.0" type="curve" smooth="yes"/>
      <point x="670.5" y="499.0"/>
      <point x="578.5" y="463.5"/>
      <point x="532.5" y="403.0" type="curve"/>
      <point x="552.5" y="403.0" type="line"/>
      <point x="522.5" y="466.0"/>
      <point x="447.5" y="499.0"/>
      <point x="338.0" y="499.0" type="curve" smooth="yes"/>
      <point x="244.5" y="499.0"/>
      <point x="146.5" y="476.0"/>
      <point x="81.5" y="438.0" type="curve"/>
      <point x="120.5" y="342.5" type="line"/>
      <point x="180.0" y="377.0"/>
      <point x="254.5" y="396.0"/>
      <point x="330.0" y="396.0" type="curve" smooth="yes"/>
      <point x="420.5" y="396.0"/>
      <point x="461.5" y="368.5"/>
      <point x="461.5" y="309.5" type="curve" smooth="yes"/>
      <point x="461.5" y="202.0" type="line" smooth="yes"/>
      <point x="461.5" y="134.0"/>
      <point x="393.5" y="84.0"/>
      <point x="299.5" y="84.0" type="curve" smooth="yes"/>
      <point x="232.5" y="84.0"/>
      <point x="191.5" y="110.5"/>
      <point x="191.5" y="152.5" type="curve" smooth="yes"/>
      <point x="191.5" y="199.5"/>
      <point x="240.5" y="214.5"/>
      <point x="375.5" y="214.5" type="curve" smooth="yes"/>
      <point x="478.0" y="214.5" type="line"/>
      <point x="478.0" y="293.0" type="line"/>
      <point x="374.5" y="293.0" type="line" smooth="yes"/>
      <point x="145.5" y="293.0"/>
      <point x="56.5" y="249.5"/>
      <point x="56.5" y="148.5" type="curve" smooth="yes"/>
      <point x="56.5" y="54.5"/>
      <point x="148.5" y="-10.0"/>
    </contour>
  </outline>
</glyph>
<glyph name="eth" format="2">
  <advance width="711.5"/>
  <unicode hex="00F0"/>
  <outline>
    <contour>
      <point x="354.0" y="-10.0" type="curve" smooth="yes"/>
      <point x="551.0" y="-10.0"/>
      <point x="664.5" y="89.0"/>
      <point x="664.5" y="258.5" type="curve" smooth="yes"/>
      <point x="664.5" y="420.0"/>
      <point x="601.5" y="527.0"/>
      <point x="481.5" y="601.0" type="curve"/>
      <point x="483.5" y="588.0" type="line"/>
      <point x="604.0" y="638.0" type="line"/>
      <point x="570.5" y="715.5" type="line"/>
      <point x="387.5" y="640.0" type="line"/>
      <point x="423.0" y="634.5" type="line"/>
      <point x="358.5" y="664.5"/>
      <point x="272.5" y="695.0"/>
      <point x="164.0" y="715.5" type="curve"/>
      <point x="148.0" y="640.5" type="line"/>
      <point x="216.0" y="629.0"/>
      <point x="278.0" y="608.0"/>
      <point x="311.0" y="595.5" type="curve"/>
      <point x="311.0" y="610.0" type="line"/>
      <point x="139.0" y="538.5" type="line"/>
      <point x="173.0" y="461.0" type="line"/>
      <point x="400.0" y="555.0" type="line"/>
      <point x="379.5" y="557.5" type="line"/>
      <point x="468.0" y="508.0"/>
      <point x="535.0" y="425.5"/>
      <point x="533.5" y="313.5" type="curve"/>
      <point x="575.5" y="313.5" type="line"/>
      <point x="542.0" y="407.5"/>
      <point x="449.0" y="445.5"/>
      <point x="334.0" y="445.5" type="curve" smooth="yes"/>
      <point x="163.0" y="445.5"/>
      <point x="49.5" y="354.5"/>
      <point x="49.5" y="218.0" type="curve" smooth="yes"/>
      <point x="49.5" y="79.0"/>
      <point x="168.5" y="-10.0"/>
    </contour>
    <contour>
      <point x="354.5" y="92.0" type="curve" smooth="yes"/>
      <point x="250.5" y="92.0"/>
      <point x="189.0" y="140.0"/>
      <point x="189.0" y="218.0" type="curve" smooth="yes"/>
      <point x="189.0" y="295.5"/>
      <point x="251.0" y="343.0"/>
      <point x="354.5" y="343.0" type="curve" smooth="yes"/>
      <point x="459.0" y="343.0"/>
      <point x="521.0" y="295.5"/>
      <point x="521.0" y="218.0" type="curve" smooth="yes"/>
      <point x="521.0" y="139.5"/>
      <point x="459.0" y="92.0"/>
    </contour>
  </outline>
</glyph>
<glyph name="divide" format="2">
  <advance width="748.0"/>
  <unicode hex="00F7"/>
  <outline>
    <contour>
      <point x="103.0" y="240.0" type="line"/>
      <point x="645.0" y="240.0" type="line"/>
      <point x="645.0" y="334.5" type="line"/>
      <point x="103.0" y="334.5" type="line"/>
    </contour>
    <contour>
      <point x="315.0" y="34.5" type="line"/>
      <point x="433.0" y="34.5" type="line"/>
      <point x="433.0" y="143.0" type="line"/>
      <point x="315.0" y="143.0" type="line"/>
    </contour>
    <contour>
      <point x="315.0" y="431.5" type="line"/>
      <point x="433.0" y="431.5" type="line"/>
      <point x="433.0" y="540.0" type="line"/>
      <point x="315.0" y="540.0" type="line"/>
    </contour>
  </outline>
</glyph>
<glyph name="thorn" format="2">
  <advance width="741.0"/>
  <unicode hex="00FE"/>
  <anchor x="371.0" y="0.0" name="bottom"/>
  <anchor x="371.0" y="484.0" name="top"/>
  <outline>
    <contour>
      <point x="84.5" y="-180.0" type="line"/>
      <point x="222.5" y="-180.0" type="line"/>
      <point x="222.5" y="100.0" type="line"/>
      <point x="208.0" y="100.0" type="line"/>
      <point x="234.5" y="32.0"/>
      <point x="315.5" y="-10.0"/>
      <point x="420.0" y="-10.0" type="curve" smooth="yes"/>
      <point x="586.5" y="-10.0"/>
      <point x="691.5" y="90.5"/>
      <point x="691.5" y="245.0" type="curve" smooth="yes"/>
      <point x="691.5" y="399.5"/>
      <point x="586.5" y="499.0"/>
      <point x="420.0" y="499.0" type="curve" smooth="yes"/>
      <point x="315.0" y="499.0"/>
      <point x="234.5" y="457.0"/>
      <point x="208.0" y="390.0" type="curve"/>
      <point x="222.5" y="390.0" type="line"/>
      <point x="222.5" y="705.0" type="line"/>
      <point x="84.5" y="705.0" type="line"/>
    </contour>
    <contour>
      <point x="386.0" y="93.5" type="curve" smooth="yes"/>
      <point x="282.5" y="93.5"/>
      <point x="220.0" y="151.5"/>
      <point x="220.0" y="245.0" type="curve" smooth="yes"/>
      <point x="220.0" y="338.5"/>
      <point x="282.5" y="395.5"/>
      <point x="386.0" y="395.5" type="curve" smooth="yes"/>
      <point x="488.5" y="395.5"/>
      <point x="552.0" y="338.0"/>
      <point x="552.0" y="245.0" type="curve" smooth="yes"/>
      <point x="552.0" y="152.0"/>
      <point x="488.5" y="93.5"/>
    </contour>
  </outline>
</glyph>
<glyph name="dcroat" format="2">
  <advance width="741.0"/>
  <unicode hex="0111"/>
  <outline>
    <contour>
      <point x="322.0" y="-10.0" type="curve" smooth="yes"/>
      <point x="426.0" y="-10.0"/>
      <point x="507.5" y="32.5"/>
      <point x="534.0" y="102.0" type="curve"/>
      <point x="519.5" y="102.0" type="line"/>
      <point x="519.5" y="0.0" type="line"/>
      <point x="657.5" y="0.0" type="line"/>
      <point x="657.5" y="542.0" type="line"/>
      <point x="767.5" y="542.0" type="line"/>
      <point x="767.5" y="635.5" type="line"/>
      <point x="657.5" y="635.5" type="line"/>
      <point x="657.5" y="705.0" type="line"/>
      <point x="519.5" y="705.0" type="line"/>
      <point x="519.5" y="635.5" type="line"/>
      <point x="280.5" y="635.5" type="line"/>
      <point x="280.5" y="542.0" type="line"/>
      <point x="519.5" y="542.0" type="line"/>
      <point x="519.5" y="388.5" type="line"/>
      <point x="534.0" y="388.5" type="line"/>
      <point x="507.5" y="456.5"/>
      <point x="426.5" y="499.0"/>
      <point x="322.0" y="499.0" type="curve" smooth="yes"/>
      <point x="155.5" y="499.0"/>
      <point x="50.5" y="399.5"/>
      <point x="50.5" y="245.0" type="curve" smooth="yes"/>
      <point x="50.5" y="90.5"/>
      <point x="155.5" y="-10.0"/>
    </contour>
    <contour>
      <point x="356.0" y="93.5" type="curve" smooth="yes"/>
      <point x="252.5" y="93.5"/>
      <point x="190.0" y="150.0"/>
      <point x="190.0" y="245.0" type="curve" smooth="yes"/>
      <point x="190.0" y="340.0"/>
      <point x="252.5" y="395.5"/>
      <point x="356.0" y="395.5" type="curve" smooth="yes"/>
      <point x="458.5" y="395.5"/>
      <point x="522.0" y="340.5"/>
      <point x="522.0" y="245.0" type="curve" smooth="yes"/>
      <point x="522.0" y="149.5"/>
      <point x="458.5" y="93.5"/>
    </contour>
  </outline>
</glyph>
<glyph name="Hbar" format="2">
  <advance width="1016.5"/>
  <unicode hex="0126"/>
  <outline>
    <contour>
      <point x="126.5" y="0.0" type="line"/>
      <point x="272.0" y="0.0" type="line"/>
      <point x="272.0" y="276.5" type="line"/>
      <point x="744.5" y="276.5" type="line"/>
      <point x="744.5" y="0.0" type="line"/>
      <point x="890.0" y="0.0" type="line"/>
      <point x="890.0" y="507.0" type="line"/>
      <point x="998.5" y="507.0" type="line"/>
      <point x="998.5" y="608.5" type="line"/>
      <point x="890.0" y="608.5" type="line"/>
      <point x="890.0" y="705.0" type="line"/>
      <point x="744.5" y="705.0" type="line"/>
      <point x="744.5" y="608.5" type="line"/>
      <point x="272.0" y="608.5" type="line"/>
      <point x="272.0" y="705.0" type="line"/>
      <point x="126.5" y="705.0" type="line"/>
      <point x="126.5" y="608.5" type="line"/>
      <point x="18.0" y="608.5" type="line"/>
      <point x="18.0" y="507.0" type="line"/>
      <point x="126.5" y="507.0" type="line"/>
    </contour>
    <contour>
      <point x="272.0" y="393.0" type="line"/>
      <point x="272.0" y="507.0" type="line"/>
      <point x="744.5" y="507.0" type="line"/>
      <point x="744.5" y="393.0" type="line"/>
    </contour>
  </outline>
</glyph>
<glyph name="hbar" format="2">
  <advance width="722.5"/>
  <unicode hex="0127"/>
  <outline>
    <contour>
      <point x="84.5" y="0.0" type="line"/>
      <point x="222.5" y="0.0" type="line"/>
      <point x="222.5" y="263.0" type="line" smooth="yes"/>
      <point x="222.5" y="339.0"/>
      <point x="284.0" y="392.0"/>
      <point x="383.0" y="392.0" type="curve" smooth="yes"/>
      <point x="463.0" y="392.0"/>
      <point x="503.0" y="357.5"/>
      <point x="503.0" y="279.5" type="curve" smooth="yes"/>
      <point x="503.0" y="0.0" type="line"/>
      <point x="641.0" y="0.0" type="line"/>
      <point x="641.0" y="285.0" type="line" smooth="yes"/>
      <point x="641.0" y="427.0"/>
      <point x="571.5" y="499.0"/>
      <point x="430.5" y="499.0" type="curve" smooth="yes"/>
      <point x="325.0" y="499.0"/>
      <point x="246.5" y="457.5"/>
      <point x="205.5" y="382.5" type="curve"/>
      <point x="222.5" y="382.5" type="line"/>
      <point x="222.5" y="542.0" type="line"/>
      <point x="459.0" y="542.0" type="line"/>
      <point x="459.0" y="635.5" type="line"/>
      <point x="222.5" y="635.5" type="line"/>
      <point x="222.5" y="705.0" type="line"/>
      <point x="84.5" y="705.0" type="line"/>
      <point x="84.5" y="635.5" type="line"/>
      <point x="-28.0" y="635.5" type="line"/>
      <point x="-28.0" y="542.0" type="line"/>
      <point x="84.5" y="542.0" type="line"/>
    </contour>
  </outline>
</glyph>
<glyph name="idotless" format="2">
  <advance width="307.0"/>
  <unicode hex="0131"/>
  <anchor x="153.0" y="0.0" name="bottom"/>
  <anchor x="198.0" y="0.0" name="ogonek"/>
  <anchor x="153.0" y="484.0" name="top"/>
  <outline>
    <contour>
      <point x="84.5" y="0.0" type="line"/>
      <point x="222.5" y="0.0" type="line"/>
      <point x="222.5" y="489.0" type="line"/>
      <point x="84.5" y="489.0" type="line"/>
    </contour>
  </outline>
</glyph>
<glyph name="kgreenlandic" format="2">
  <advance width="651.5"/>
  <unicode hex="0138"/>
  <anchor x="326.5" y="0.0" name="bottom"/>
  <anchor x="326.5" y="484.0" name="top"/>
  <outline>
    <contour>
      <point x="84.5" y="0.0" type="line"/>
      <point x="222.5" y="0.0" type="line"/>
      <point x="222.5" y="215.0" type="line"/>
      <point x="224.5" y="215.0" type="line"/>
      <point x="489.5" y="0.0" type="line"/>
      <point x="672.5" y="0.0" type="line"/>
      <point x="323.0" y="278.0" type="line"/>
      <point x="323.0" y="230.0" type="line"/>
      <point x="652.0" y="489.0" type="line"/>
      <point x="475.0" y="489.0" type="line"/>
      <point x="224.5" y="284.0" type="line"/>
      <point x="222.5" y="284.0" type="line"/>
      <point x="222.5" y="489.0" type="line"/>
      <point x="84.5" y="489.0" type="line"/>
    </contour>
  </outline>
</glyph>
<glyph name="Eng" format="2">
  <advance width="930.5"/>
  <unicode hex="014A"/>
  <anchor x="465.0" y="0.0" name="bottom"/>
  <anchor x="465.5" y="705.0" name="top"/>
  <outline>
    <contour>
      <point x="546.0" y="-193.0" type="line"/>
      <point x="605.5" y="-189.5" type="line" smooth="yes"/>
      <point x="777.0" y="-179.0"/>
      <point x="832.5" y="-109.5"/>
      <point x="832.5" y="18.5" type="curve" smooth="yes"/>
      <point x="832.5" y="705.0" type="line"/>
      <point x="694.0" y="705.0" type="line"/>
      <point x="694.0" y="174.5" type="line"/>
      <point x="724.0" y="174.5" type="line"/>
      <point x="209.5" y="705.0" type="line"/>
      <point x="98.0" y="705.0" type="line"/>
      <point x="98.0" y="0.0" type="line"/>
      <point x="236.5" y="0.0" type="line"/>
      <point x="236.5" y="531.5" type="line"/>
      <point x="207.5" y="531.5" type="line"/>
      <point x="721.5" y="0.0" type="line"/>
      <point x="693.5" y="58.5" type="line"/>
      <point x="693.5" y="-0.5" type="line" smooth="yes"/>
      <point x="693.5" y="-55.5"/>
      <point x="662.5715" y="-82.5485"/>
      <point x="598.5" y="-88.5" type="curve" smooth="yes"/>
      <point x="537.0" y="-94.0" type="line"/>
    </contour>
  </outline>
</glyph>
<glyph name="eng" format="2">
  <advance width="722.5"/>
  <unicode hex="014B"/>
  <outline>
    <contour>
      <point x="354.5" y="-193.0" type="line"/>
      <point x="414.0" y="-189.5" type="line" smooth="yes"/>
      <point x="585.5" y="-179.0"/>
      <point x="641.0" y="-109.5"/>
      <point x="641.0" y="18.5" type="curve" smooth="yes"/>
      <point x="641.0" y="272.0" type="line" smooth="yes"/>
      <point x="641.0" y="436.5"/>
      <point x="562.5" y="499.0"/>
      <point x="425.5" y="499.0" type="curve" smooth="yes"/>
      <point x="324.0" y="499.0"/>
      <point x="250.5" y="457.5"/>
      <point x="209.0" y="386.0" type="curve"/>
      <point x="219.5" y="386.0" type="line"/>
      <point x="219.5" y="489.0" type="line"/>
      <point x="84.5" y="489.0" type="line"/>
      <point x="84.5" y="0.0" type="line"/>
      <point x="222.5" y="0.0" type="line"/>
      <point x="222.5" y="250.0" type="line" smooth="yes"/>
      <point x="222.5" y="330.0"/>
      <point x="283.5" y="392.0"/>
      <point x="382.0" y="392.0" type="curve" smooth="yes"/>
      <point x="458.5" y="392.0"/>
      <point x="503.0" y="361.0"/>
      <point x="503.0" y="266.5" type="curve" smooth="yes"/>
      <point x="503.0" y="-0.5" type="line" smooth="yes"/>
      <point x="503.0" y="-55.5"/>
      <point x="471.5" y="-82.5"/>
      <point x="406.5" y="-88.5" type="curve" smooth="yes"/>
      <point x="345.5" y="-94.0" type="line"/>
    </contour>
  </outline>
</glyph>
<glyph name="OE" format="2">
  <advance width="1314.5"/>
  <unicode hex="0152"/>
  <anchor x="748.0" y="0.0" name="bottom"/>
  <anchor x="748.0" y="705.0" name="top"/>
  <outline>
    <contour>
      <point x="526.0" y="0.0" type="curve" smooth="yes"/>
      <point x="1254.0" y="0.0" type="line"/>
      <point x="1254.0" y="111.0" type="line"/>
      <point x="817.5" y="111.0" type="line"/>
      <point x="817.5" y="303.0" type="line"/>
      <point x="1226.5" y="303.0" type="line"/>
      <point x="1226.5" y="414.0" type="line"/>
      <point x="817.5" y="414.0" type="line"/>
      <point x="817.5" y="594.0" type="line"/>
      <point x="1254.0" y="594.0" type="line"/>
      <point x="1254.0" y="705.0" type="line"/>
      <point x="526.0" y="705.0" type="line" smooth="yes"/>
      <point x="235.0" y="705.0"/>
      <point x="68.0" y="583.0"/>
      <point x="68.0" y="352.0" type="curve" smooth="yes"/>
      <point x="68.0" y="122.5"/>
      <point x="235.0" y="0.0"/>
    </contour>
    <contour>
      <point x="535.5" y="116.5" type="line" smooth="yes"/>
      <point x="325.5" y="116.5"/>
      <point x="219.5" y="188.5"/>
      <point x="219.5" y="352.0" type="curve" smooth="yes"/>
      <point x="219.5" y="516.0"/>
      <point x="326.0" y="588.5"/>
      <point x="535.5" y="588.5" type="curve" smooth="yes"/>
      <point x="677.5" y="588.5" type="line"/>
      <point x="677.5" y="116.5" type="line"/>
    </contour>
  </outline>
</glyph>
<glyph name="oe" format="2">
  <advance width="1133.0"/>
  <unicode hex="0153"/>
  <anchor x="588.0" y="0.0" name="bottom"/>
  <anchor x="588.0" y="484.0" name="top"/>
  <outline>
    <contour>
      <point x="353.0" y="-10.0" type="curve" smooth="yes"/>
      <point x="471.5" y="-10.0"/>
      <point x="561.0" y="35.0"/>
      <point x="606.5" y="113.0" type="curve"/>
      <point x="565.5" y="113.0" type="line"/>
      <point x="610.0" y="35.0"/>
      <point x="714.0" y="-10.0"/>
      <point x="842.5" y="-10.0" type="curve" smooth="yes"/>
      <point x="943.0" y="-10.0"/>
      <point x="1035.0" y="15.0"/>
      <point x="1084.5" y="55.5" type="curve"/>
      <point x="1047.0" y="147.0" type="line"/>
      <point x="1000.5" y="111.5"/>
      <point x="933.5" y="93.5"/>
      <point x="850.0" y="93.5" type="curve" smooth="yes"/>
      <point x="713.5" y="93.5"/>
      <point x="654.0" y="147.0"/>
      <point x="654.0" y="251.0" type="curve" smooth="yes"/>
      <point x="654.0" y="258.0" type="line" smooth="yes"/>
      <point x="654.0" y="359.0"/>
      <point x="717.5" y="407.0"/>
      <point x="823.0" y="407.0" type="curve" smooth="yes"/>
      <point x="921.5" y="407.0"/>
      <point x="974.5" y="361.0"/>
      <point x="976.0" y="275.0" type="curve"/>
      <point x="999.0" y="293.0" type="line"/>
      <point x="631.5" y="293.0" type="line"/>
      <point x="631.5" y="213.5" type="line"/>
      <point x="1094.5" y="213.5" type="line"/>
      <point x="1094.5" y="251.5" type="line" smooth="yes"/>
      <point x="1094.5" y="404.5"/>
      <point x="989.5" y="499.0"/>
      <point x="820.0" y="499.0" type="curve" smooth="yes"/>
      <point x="706.0" y="499.0"/>
      <point x="610.0" y="445.5"/>
      <point x="568.0" y="374.5" type="curve"/>
      <point x="607.5" y="374.5" type="line"/>
      <point x="562.5" y="454.0"/>
      <point x="471.5" y="499.0"/>
      <point x="353.0" y="499.0" type="curve" smooth="yes"/>
      <point x="170.0" y="499.0"/>
      <point x="49.5" y="400.0"/>
      <point x="49.5" y="244.5" type="curve" smooth="yes"/>
      <point x="49.5" y="89.5"/>
      <point x="170.0" y="-10.0"/>
    </contour>
    <contour>
      <point x="354.5" y="93.5" type="curve" smooth="yes"/>
      <point x="251.0" y="93.5"/>
      <point x="189.0" y="151.0"/>
      <point x="189.0" y="244.5" type="curve" smooth="yes"/>
      <point x="189.0" y="338.5"/>
      <point x="250.5" y="395.5"/>
      <point x="355.0" y="395.5" type="curve" smooth="yes"/>
      <point x="458.5" y="395.5"/>
      <point x="521.0" y="338.5"/>
      <point x="521.0" y="244.5" type="curve" smooth="yes"/>
      <point x="521.0" y="151.0"/>
      <point x="459.0" y="93.5"/>
    </contour>
  </outline>
</glyph>
<glyph name="Bhook" format="2">
  <advance width="1033.5"/>
  <unicode hex="0181"/>
  <outline>
    <contour>
      <point x="277.0" y="0.0" type="line"/>
      <point x="678.0" y="0.0" type="line" smooth="yes"/>
      <point x="860.5" y="0.0"/>
      <point x="967.0" y="71.0"/>
      <point x="967.0" y="194.5" type="curve" smooth="yes"/>
      <point x="967.0" y="293.5"/>
      <point x="897.5" y="355.0"/>
      <point x="766.0" y="370.5" type="curve"/>
      <point x="766.0" y="355.5" type="line"/>
      <point x="882.0" y="375.5"/>
      <point x="944.5" y="435.5"/>
      <point x="944.5" y="525.5" type="curve" smooth="yes"/>
      <point x="944.5" y="639.5"/>
      <point x="842.0" y="705.0"/>
      <point x="664.0" y="705.0" type="curve" smooth="yes"/>
      <point x="251.5" y="705.0" type="line" smooth="yes"/>
      <point x="80.5" y="705.0"/>
      <point x="0.0" y="647.0"/>
      <point x="0.0" y="523.0" type="curve" smooth="yes"/>
      <point x="0.0" y="463.5" type="line"/>
      <point x="117.0" y="463.5" type="line"/>
      <point x="117.0" y="517.0" type="line" smooth="yes"/>
      <point x="117.0" y="580.5"/>
      <point x="152.5" y="606.0"/>
      <point x="244.5" y="606.0" type="curve" smooth="yes"/>
      <point x="277.0" y="606.0" type="line"/>
    </contour>
    <contour>
      <point x="417.0" y="105.5" type="line"/>
      <point x="417.0" y="305.0" type="line"/>
      <point x="665.0" y="305.0" type="line" smooth="yes"/>
      <point x="773.0" y="305.0"/>
      <point x="825.0" y="272.0"/>
      <point x="825.0" y="206.0" type="curve" smooth="yes"/>
      <point x="825.0" y="140.5"/>
      <point x="771.5" y="105.5"/>
      <point x="663.5" y="105.5" type="curve" smooth="yes"/>
    </contour>
    <contour>
      <point x="417.0" y="410.5" type="line"/>
      <point x="417.0" y="599.5" type="line"/>
      <point x="643.5" y="599.5" type="line" smooth="yes"/>
      <point x="755.0" y="599.5"/>
      <point x="803.0" y="570.0"/>
      <point x="803.0" y="505.0" type="curve" smooth="yes"/>
      <point x="803.0" y="439.5"/>
      <point x="755.5" y="410.5"/>
      <point x="644.5" y="410.5" type="curve" smooth="yes"/>
    </contour>
  </outline>
</glyph>
<glyph name="Dhook" format="2">
  <advance width="1118.5"/>
  <unicode hex="018A"/>
  <outline>
    <contour>
      <point x="277.0" y="0.0" type="line"/>
      <point x="606.5" y="0.0" type="line" smooth="yes"/>
      <point x="897.5" y="0.0"/>
      <point x="1051.5" y="122.5"/>
      <point x="1051.5" y="353.0" type="curve" smooth="yes"/>
      <point x="1051.5" y="583.0"/>
      <point x="897.5" y="705.0"/>
      <point x="606.5" y="705.0" type="curve" smooth="yes"/>
      <point x="251.5" y="705.0" type="line" smooth="yes"/>
      <point x="80.5" y="705.0"/>
      <point x="0.0" y="647.0"/>
      <point x="0.0" y="523.0" type="curve" smooth="yes"/>
      <point x="0.0" y="463.5" type="line"/>
      <point x="117.0" y="463.5" type="line"/>
      <point x="117.0" y="517.0" type="line" smooth="yes"/>
      <point x="117.0" y="580.5"/>
      <point x="152.5" y="606.0"/>
      <point x="244.5" y="606.0" type="curve" smooth="yes"/>
      <point x="277.0" y="606.0" type="line"/>
    </contour>
    <contour>
      <point x="422.5" y="116.5" type="line"/>
      <point x="422.5" y="588.5" type="line"/>
      <point x="597.5" y="588.5" type="line" smooth="yes"/>
      <point x="807.5" y="588.5"/>
      <point x="900.0" y="516.5"/>
      <point x="900.0" y="353.0" type="curve" smooth="yes"/>
      <point x="900.0" y="189.0"/>
      <point x="808.0" y="116.5"/>
      <point x="597.5" y="116.5" type="curve" smooth="yes"/>
    </contour>
  </outline>
</glyph>
<glyph name="Schwa" format="2">
  <advance width="971.5"/>
  <unicode hex="018F"/>
  <anchor x="484.0" y="0.0" name="bottom"/>
  <anchor x="484.0" y="705.0" name="top"/>
  <outline>
    <contour>
      <point x="487.0" y="-10.0" type="curve" smooth="yes"/>
      <point x="736.5" y="-10.0"/>
      <point x="904.5" y="130.0"/>
      <point x="904.5" y="357.5" type="curve" smooth="yes"/>
      <point x="904.5" y="582.5"/>
      <point x="739.5" y="715.0"/>
      <point x="456.5" y="715.0" type="curve" smooth="yes"/>
      <point x="320.5" y="715.0"/>
      <point x="192.5" y="684.0"/>
      <point x="103.5" y="625.0" type="curve"/>
      <point x="158.0" y="519.0" type="line"/>
      <point x="239.5" y="572.0"/>
      <point x="331.0" y="595.5"/>
      <point x="444.5" y="595.5" type="curve" smooth="yes"/>
      <point x="654.0" y="595.5"/>
      <point x="756.5" y="514.0"/>
      <point x="756.5" y="354.0" type="curve" smooth="yes"/>
      <point x="756.5" y="196.5"/>
      <point x="656.5" y="105.0"/>
      <point x="486.0" y="105.0" type="curve" smooth="yes"/>
      <point x="314.0" y="105.0"/>
      <point x="212.5" y="196.5"/>
      <point x="212.5" y="353.0" type="curve"/>
      <point x="175.0" y="298.5" type="line"/>
      <point x="788.5" y="298.5" type="line"/>
      <point x="788.5" y="409.0" type="line"/>
      <point x="68.0" y="409.0" type="line"/>
      <point x="68.0" y="359.0" type="line" smooth="yes"/>
      <point x="68.0" y="136.0"/>
      <point x="231.0" y="-10.0"/>
    </contour>
  </outline>
</glyph>
<glyph name="florin" format="2">
  <advance width="748.0"/>
  <unicode hex="0192"/>
  <outline>
    <contour>
      <point x="41.5" y="-190.0" type="line"/>
      <point x="112.5" y="-190.0" type="line" smooth="yes"/>
      <point x="253.0" y="-190.0"/>
      <point x="336.5" y="-122.5"/>
      <point x="370.0" y="2.0" type="curve" smooth="yes"/>
      <point x="481.0" y="405.5" type="line"/>
      <point x="459.0" y="388.5" type="line"/>
      <point x="649.5" y="388.5" type="line"/>
      <point x="649.5" y="489.0" type="line"/>
      <point x="479.5" y="489.0" type="line"/>
      <point x="498.5" y="471.5" type="line"/>
      <point x="511.5" y="519.0" type="line" smooth="yes"/>
      <point x="529.5" y="586.0"/>
      <point x="572.5" y="609.5"/>
      <point x="647.0" y="609.5" type="curve" smooth="yes"/>
      <point x="704.0" y="609.5" type="line"/>
      <point x="704.0" y="715.0" type="line"/>
      <point x="633.5" y="715.0" type="line" smooth="yes"/>
      <point x="495.0" y="715.0"/>
      <point x="413.5" y="648.0"/>
      <point x="376.0" y="523.0" type="curve" smooth="yes"/>
      <point x="361.5" y="471.5" type="line"/>
      <point x="389.5" y="489.0" type="line"/>
      <point x="203.0" y="489.0" type="line"/>
      <point x="203.0" y="388.5" type="line"/>
      <point x="373.0" y="388.5" type="line"/>
      <point x="343.5" y="404.0" type="line"/>
      <point x="235.0" y="6.0" type="line" smooth="yes"/>
      <point x="216.5" y="-64.5"/>
      <point x="167.5" y="-84.5"/>
      <point x="99.0" y="-84.5" type="curve" smooth="yes"/>
      <point x="41.5" y="-84.5" type="line"/>
    </contour>
  </outline>
</glyph>
<glyph name="Yhook" format="2">
  <advance width="723.5"/>
  <unicode hex="01B3"/>
  <outline>
    <contour>
      <point x="306.0" y="0.0" type="line"/>
      <point x="451.5" y="0.0" type="line"/>
      <point x="451.5" y="357.5" type="line"/>
      <point x="424.0" y="280.0" type="line"/>
      <point x="665.0" y="563.0" type="line" smooth="yes"/>
      <point x="696.0" y="598.5"/>
      <point x="727.0" y="613.5"/>
      <point x="775.0" y="613.5" type="curve" smooth="yes"/>
      <point x="794.5" y="613.5"/>
      <point x="813.0" y="611.0"/>
      <point x="831.5" y="606.0" type="curve"/>
      <point x="831.5" y="703.0" type="line"/>
      <point x="808.0" y="710.5"/>
      <point x="780.5" y="715.0"/>
      <point x="748.5" y="715.0" type="curve" smooth="yes"/>
      <point x="666.5" y="715.0"/>
      <point x="609.5" y="690.0"/>
      <point x="552.0" y="621.5" type="curve" smooth="yes"/>
      <point x="366.5" y="404.5" type="line"/>
      <point x="397.5" y="404.5" type="line"/>
      <point x="141.0" y="705.0" type="line"/>
      <point x="-29.5" y="705.0" type="line"/>
      <point x="335.0" y="280.0" type="line"/>
      <point x="306.0" y="357.5" type="line"/>
    </contour>
  </outline>
</glyph>
<glyph name="yhook" format="2">
  <advance width="707.5"/>
  <unicode hex="01B4"/>
  <outline>
    <contour>
      <point x="433.5" y="342.5" type="curve" smooth="yes"/>
      <point x="312.5" y="112.5" type="line"/>
      <point x="345.0" y="112.5" type="line"/>
      <point x="146.5" y="489.0" type="line"/>
      <point x="-2.5" y="489.0" type="line"/>
      <point x="266.5" y="-6.0" type="line"/>
      <point x="269.0" y="50.5" type="line"/>
      <point x="144.0" y="-180.0" type="line"/>
      <point x="287.5" y="-180.0" type="line"/>
      <point x="539.5" y="287.0" type="line" smooth="yes"/>
      <point x="584.5" y="370.0"/>
      <point x="619.5" y="392.5"/>
      <point x="685.5" y="392.5" type="curve" smooth="yes"/>
      <point x="701.5" y="392.5"/>
      <point x="715.0" y="390.5"/>
      <point x="727.5" y="386.5" type="curve"/>
      <point x="743.0" y="489.5" type="line"/>
      <point x="719.0" y="496.5"/>
      <point x="693.0" y="499.0"/>
      <point x="663.0" y="499.0" type="curve" smooth="yes"/>
      <point x="542.0" y="499.0"/>
      <point x="489.0" y="447.5"/>
    </contour>
  </outline>
</glyph>
<glyph name="gstroke" format="2">
  <advance width="744.0"/>
  <unicode hex="01E5"/>
  <outline>
    <contour>
      <point x="354.5" y="-190.0" type="curve" smooth="yes"/>
      <point x="514.0" y="-190.0"/>
      <point x="608.5" y="-143.5"/>
      <point x="645.0" y="-45.0" type="curve"/>
      <point x="624.5" y="-52.5" type="line"/>
      <point x="736.5" y="-52.5" type="line"/>
      <point x="736.5" y="23.5" type="line"/>
      <point x="641.5" y="23.5" type="line"/>
      <point x="655.0" y="-7.5" type="line"/>
      <point x="657.5" y="7.5"/>
      <point x="659.5" y="27.5"/>
      <point x="659.5" y="52.5" type="curve" smooth="yes"/>
      <point x="659.5" y="489.0" type="line"/>
      <point x="523.5" y="489.0" type="line"/>
      <point x="523.5" y="388.5" type="line"/>
      <point x="534.0" y="384.5" type="line"/>
      <point x="510.5" y="453.0"/>
      <point x="426.0" y="499.0"/>
      <point x="321.0" y="499.0" type="curve" smooth="yes"/>
      <point x="154.0" y="499.0"/>
      <point x="49.5" y="404.5"/>
      <point x="49.5" y="271.5" type="curve" smooth="yes"/>
      <point x="49.5" y="139.0"/>
      <point x="154.5" y="44.0"/>
      <point x="322.5" y="44.0" type="curve" smooth="yes"/>
      <point x="427.0" y="44.0"/>
      <point x="510.5" y="90.5"/>
      <point x="534.0" y="159.5" type="curve"/>
      <point x="524.0" y="159.5" type="line"/>
      <point x="524.0" y="45.5" type="line" smooth="yes"/>
      <point x="524.0" y="31.0"/>
      <point x="523.0" y="22.0"/>
      <point x="520.0" y="10.0" type="curve"/>
      <point x="531.5" y="23.5" type="line"/>
      <point x="366.0" y="23.5" type="line"/>
      <point x="366.0" y="-52.5" type="line"/>
      <point x="493.0" y="-52.5" type="line"/>
      <point x="494.0" y="-45.5" type="line"/>
      <point x="465.0" y="-71.5"/>
      <point x="417.5" y="-86.0"/>
      <point x="351.0" y="-86.0" type="curve" smooth="yes"/>
      <point x="260.0" y="-86.0"/>
      <point x="177.0" y="-71.0"/>
      <point x="115.0" y="-34.0" type="curve"/>
      <point x="79.0" y="-123.0" type="line"/>
      <point x="140.0" y="-168.0"/>
      <point x="240.5" y="-190.0"/>
    </contour>
    <contour>
      <point x="356.5" y="142.5" type="curve" smooth="yes"/>
      <point x="254.5" y="142.5"/>
      <point x="189.0" y="196.0"/>
      <point x="189.0" y="272.5" type="curve" smooth="yes"/>
      <point x="189.0" y="346.5"/>
      <point x="254.5" y="397.5"/>
      <point x="356.5" y="397.5" type="curve" smooth="yes"/>
      <point x="458.0" y="397.5"/>
      <point x="523.0" y="346.0"/>
      <point x="523.0" y="272.5" type="curve" smooth="yes"/>
      <point x="523.0" y="195.5"/>
      <point x="457.5" y="142.5"/>
    </contour>
  </outline>
</glyph>
<glyph name="jdotless" format="2">
  <advance width="309.0"/>
  <unicode hex="0237"/>
  <anchor x="156.5" y="0.0" name="bottom"/>
  <anchor x="156.5" y="484.0" name="top"/>
  <outline>
    <contour>
      <point x="-61.0" y="-193.0" type="line"/>
      <point x="-2.5" y="-189.5" type="line" smooth="yes"/>
      <point x="170.0" y="-179.0"/>
      <point x="225.5" y="-109.5"/>
      <point x="225.5" y="18.5" type="curve" smooth="yes"/>
      <point x="225.5" y="489.0" type="line"/>
      <point x="87.5" y="489.0" type="line"/>
      <point x="87.5" y="-0.5" type="line" smooth="yes"/>
      <point x="87.5" y="-55.5"/>
      <point x="56.0" y="-82.5"/>
      <point x="-9.0" y="-88.5" type="curve" smooth="yes"/>
      <point x="-71.0" y="-94.0" type="line"/>
    </contour>
  </outline>
</glyph>
<glyph name="bhook" format="2">
  <advance width="741.5"/>
  <unicode hex="0253"/>
  <outline>
    <contour>
      <point x="424.0" y="-10.0" type="curve" smooth="yes"/>
      <point x="584.0" y="-10.0"/>
      <point x="692.0" y="90.5"/>
      <point x="692.0" y="245.0" type="curve" smooth="yes"/>
      <point x="692.0" y="399.5"/>
      <point x="584.0" y="499.0"/>
      <point x="424.0" y="499.0" type="curve" smooth="yes"/>
      <point x="324.5" y="499.0"/>
      <point x="240.5" y="455.0"/>
      <point x="207.5" y="388.0" type="curve"/>
      <point x="222.5" y="388.0" type="line"/>
      <point x="222.5" y="517.0" type="line" smooth="yes"/>
      <point x="222.5" y="577.0"/>
      <point x="258.5" y="607.5"/>
      <point x="334.5" y="607.5" type="curve" smooth="yes"/>
      <point x="352.0" y="607.5"/>
      <point x="362.5" y="606.5"/>
      <point x="380.5" y="602.5" type="curve"/>
      <point x="396.0" y="705.0" type="line"/>
      <point x="370.5" y="711.5"/>
      <point x="345.5" y="715.0"/>
      <point x="314.0" y="715.0" type="curve" smooth="yes"/>
      <point x="167.5" y="715.0"/>
      <point x="84.5" y="643.0"/>
      <point x="84.5" y="518.5" type="curve" smooth="yes"/>
      <point x="84.5" y="0.0" type="line"/>
      <point x="220.5" y="0.0" type="line"/>
      <point x="220.5" y="102.0" type="line"/>
      <point x="207.5" y="102.0" type="line"/>
      <point x="241.0" y="33.0"/>
      <point x="325.5" y="-10.0"/>
    </contour>
    <contour>
      <point x="386.5" y="93.5" type="curve" smooth="yes"/>
      <point x="282.0" y="93.5"/>
      <point x="220.5" y="151.5"/>
      <point x="220.5" y="245.0" type="curve" smooth="yes"/>
      <point x="220.5" y="338.5"/>
      <point x="282.0" y="395.5"/>
      <point x="386.5" y="395.5" type="curve" smooth="yes"/>
      <point x="490.0" y="395.5"/>
      <point x="552.5" y="338.5"/>
      <point x="552.5" y="245.0" type="curve" smooth="yes"/>
      <point x="552.5" y="151.5"/>
      <point x="490.0" y="93.5"/>
    </contour>
  </outline>
</glyph>
<glyph name="dhook" format="2">
  <advance width="741.5"/>
  <unicode hex="0257"/>
  <outline>
    <contour>
      <point x="319.0" y="-10.0" type="curve" smooth="yes"/>
      <point x="416.0" y="-10.0"/>
      <point x="501.5" y="32.0"/>
      <point x="532.0" y="100.0" type="curve"/>
      <point x="520.5" y="100.0" type="line"/>
      <point x="520.5" y="0.0" type="line"/>
      <point x="656.5" y="0.0" type="line"/>
      <point x="656.5" y="517.0" type="line" smooth="yes"/>
      <point x="656.5" y="577.0"/>
      <point x="693.0" y="607.5"/>
      <point x="768.5" y="607.5" type="curve" smooth="yes"/>
      <point x="786.0" y="607.5"/>
      <point x="796.5" y="606.5"/>
      <point x="814.5" y="602.5" type="curve"/>
      <point x="830.0" y="705.0" type="line"/>
      <point x="804.5" y="711.5"/>
      <point x="779.5" y="715.0"/>
      <point x="748.0" y="715.0" type="curve" smooth="yes"/>
      <point x="601.5" y="715.0"/>
      <point x="518.5" y="643.0"/>
      <point x="518.5" y="518.5" type="curve" smooth="yes"/>
      <point x="518.5" y="390.0" type="line"/>
      <point x="532.0" y="390.0" type="line"/>
      <point x="501.5" y="457.0"/>
      <point x="416.5" y="499.0"/>
      <point x="319.0" y="499.0" type="curve" smooth="yes"/>
      <point x="156.5" y="499.0"/>
      <point x="49.5" y="399.5"/>
      <point x="49.5" y="245.0" type="curve" smooth="yes"/>
      <point x="49.5" y="90.5"/>
      <point x="156.5" y="-10.0"/>
    </contour>
    <contour>
      <point x="355.0" y="93.5" type="curve" smooth="yes"/>
      <point x="251.5" y="93.5"/>
      <point x="189.0" y="152.0"/>
      <point x="189.0" y="245.0" type="curve" smooth="yes"/>
      <point x="189.0" y="338.0"/>
      <point x="251.5" y="395.5"/>
      <point x="355.0" y="395.5" type="curve" smooth="yes"/>
      <point x="457.5" y="395.5"/>
      <point x="520.5" y="338.5"/>
      <point x="520.5" y="245.0" type="curve" smooth="yes"/>
      <point x="520.5" y="151.5"/>
      <point x="457.5" y="93.5"/>
    </contour>
  </outline>
</glyph>
<glyph name="schwa" format="2">
  <advance width="666.0"/>
  <unicode hex="0259"/>
  <outline>
    <contour>
      <point x="313.5" y="-10.0" type="curve" smooth="yes"/>
      <point x="492.0" y="-10.0"/>
      <point x="616.5" y="93.5"/>
      <point x="616.5" y="248.0" type="curve" smooth="yes"/>
      <point x="616.5" y="403.0"/>
      <point x="491.0" y="499.0"/>
      <point x="290.5" y="499.0" type="curve" smooth="yes"/>
      <point x="190.0" y="499.0"/>
      <point x="98.5" y="474.5"/>
      <point x="48.5" y="437.0" type="curve"/>
      <point x="86.0" y="345.0" type="line"/>
      <point x="134.5" y="378.5"/>
      <point x="203.0" y="395.5"/>
      <point x="282.5" y="395.5" type="curve" smooth="yes"/>
      <point x="426.0" y="395.5"/>
      <point x="483.5" y="340.0"/>
      <point x="483.5" y="240.5" type="curve" smooth="yes"/>
      <point x="483.5" y="233.0" type="line" smooth="yes"/>
      <point x="483.5" y="138.5"/>
      <point x="423.0" y="82.0"/>
      <point x="313.0" y="82.0" type="curve" smooth="yes"/>
      <point x="211.5" y="82.0"/>
      <point x="158.5" y="126.0"/>
      <point x="157.0" y="215.0" type="curve"/>
      <point x="134.5" y="196.0" type="line"/>
      <point x="506.0" y="196.0" type="line"/>
      <point x="506.0" y="275.5" type="line"/>
      <point x="38.5" y="275.5" type="line"/>
      <point x="38.5" y="238.0" type="line" smooth="yes"/>
      <point x="38.5" y="83.0"/>
      <point x="143.0" y="-10.0"/>
    </contour>
  </outline>
</glyph>
<glyph name="commaturnedmod" format="2">
  <advance width="500.0"/>
  <unicode hex="02BB"/>
  <anchor x="250.5" y="484.0" name="_top"/>
  <anchor x="250.5" y="685.0" name="top"/>
  <outline>
    <contour>
      <point x="186.0" y="564.0" type="line"/>
      <point x="314.0" y="564.0" type="line"/>
      <point x="314.0" y="679.5" type="line"/>
      <point x="224.5" y="679.5" type="line"/>
      <point x="249.5" y="659.5" type="line"/>
      <point x="250.0" y="692.5"/>
      <point x="263.0" y="716.5"/>
      <point x="297.5" y="751.5" type="curve"/>
      <point x="257.5" y="785.5" type="line"/>
      <point x="208.0" y="743.5"/>
      <point x="186.0" y="701.0"/>
      <point x="186.0" y="644.0" type="curve" smooth="yes"/>
    </contour>
  </outline>
</glyph>
<glyph name="apostrophemod" format="2">
  <advance width="350.0"/>
  <unicode hex="02BC"/>
  <outline>
    <contour>
      <point x="168.5" y="556.0" type="line"/>
      <point x="218.0" y="598.0"/>
      <point x="240.0" y="639.5"/>
      <point x="240.0" y="697.5" type="curve" smooth="yes"/>
      <point x="240.0" y="776.5" type="line"/>
      <point x="112.0" y="776.5" type="line"/>
      <point x="112.0" y="661.0" type="line"/>
      <point x="201.5" y="661.0" type="line"/>
      <point x="176.5" y="681.0" type="line"/>
      <point x="176.0" y="648.0"/>
      <point x="163.0" y="624.0"/>
      <point x="128.5" y="589.0" type="curve"/>
    </contour>
  </outline>
</glyph>
<glyph name="ringhalfright" format="2">
  <advance width="500.0"/>
  <unicode hex="02BE"/>
  <anchor x="250.0" y="484.0" name="_top"/>
  <anchor x="250.0" y="685.0" name="top"/>
  <outline>
    <contour>
      <point x="250.0" y="549.5" type="line"/>
      <point x="321.0" y="549.5"/>
      <point x="373.0" y="593.5"/>
      <point x="373.0" y="656.5" type="curve" smooth="yes"/>
      <point x="373.0" y="720.5"/>
      <point x="321.5" y="765.0"/>
      <point x="250.0" y="765.0" type="curve"/>
      <point x="250.0" y="707.0" type="line"/>
      <point x="284.5" y="707.0"/>
      <point x="307.5" y="688.0"/>
      <point x="307.5" y="656.5" type="curve" smooth="yes"/>
      <point x="307.5" y="626.0"/>
      <point x="283.0" y="607.0"/>
      <point x="250.0" y="607.0" type="curve"/>
    </contour>
  </outline>
</glyph>
<glyph name="ringhalfleft" format="2">
  <advance width="500.0"/>
  <unicode hex="02BF"/>
  <anchor x="250.0" y="484.0" name="_top"/>
  <anchor x="250.0" y="685.0" name="top"/>
  <outline>
    <contour>
      <point x="250.0" y="549.5" type="curve"/>
      <point x="250.0" y="607.0" type="line"/>
      <point x="218.0" y="607.0"/>
      <point x="192.5" y="626.0"/>
      <point x="192.5" y="656.5" type="curve" smooth="yes"/>
      <point x="192.5" y="688.0"/>
      <point x="216.5" y="707.0"/>
      <point x="250.0" y="707.0" type="curve"/>
      <point x="250.0" y="765.0" type="line"/>
      <point x="179.5" y="765.0"/>
      <point x="128.0" y="720.5"/>
      <point x="128.0" y="656.5" type="curve" smooth="yes"/>
      <point x="128.0" y="593.5"/>
      <point x="180.0" y="549.5"/>
    </contour>
  </outline>
</glyph>
<glyph name="verticallinemod" format="2">
  <advance width="500.0"/>
  <unicode hex="02C8"/>
  <outline>
    <contour>
      <point x="205.0" y="594.0" type="line"/>
      <point x="296.0" y="594.0" type="line"/>
      <point x="296.0" y="797.0" type="line"/>
      <point x="205.0" y="797.0" type="line"/>
    </contour>
  </outline>
</glyph>
<glyph name="firsttonechinese" format="2">
  <advance width="500.0"/>
  <unicode hex="02C9"/>
  <anchor x="250.0" y="484.0" name="_top"/>
  <anchor x="250.0" y="685.0" name="top"/>
  <outline>
    <contour>
      <point x="55.5" y="612.0" type="line"/>
      <point x="445.5" y="612.0" type="line"/>
      <point x="445.5" y="694.0" type="line"/>
      <point x="55.5" y="694.0" type="line"/>
    </contour>
  </outline>
</glyph>
<glyph name="secondtonechinese" format="2">
  <advance width="500.0"/>
  <unicode hex="02CA"/>
  <anchor x="250.0" y="484.0" name="_top"/>
  <anchor x="250.0" y="463.5" name="top"/>
  <outline>
    <contour>
      <point x="202.5" y="554.0" type="line"/>
      <point x="297.0" y="554.0" type="line"/>
      <point x="470.0" y="761.0" type="line"/>
      <point x="331.5" y="761.0" type="line"/>
    </contour>
  </outline>
</glyph>
<glyph name="fourthtofinechinese" format="2">
  <advance width="500.0"/>
  <unicode hex="02CB"/>
  <anchor x="250.0" y="484.0" name="_top"/>
  <anchor x="250.0" y="685.0" name="top"/>
  <outline>
    <contour>
      <point x="203.0" y="554.0" type="line"/>
      <point x="297.5" y="554.0" type="line"/>
      <point x="169.5" y="761.0" type="line"/>
      <point x="31.0" y="761.0" type="line"/>
    </contour>
  </outline>
</glyph>
<glyph name="verticallinelowmod" format="2">
  <advance width="500.0"/>
  <unicode hex="02CC"/>
  <outline>
    <contour>
      <point x="205.0" y="-270.0" type="line"/>
      <point x="296.0" y="-270.0" type="line"/>
      <point x="296.0" y="-67.0" type="line"/>
      <point x="205.0" y="-67.0" type="line"/>
    </contour>
  </outline>
</glyph>
<glyph name="acutecomb" format="2">
  <unicode hex="0301"/>
  <anchor x="0.0" y="484.0" name="_top"/>
  <anchor x="0.0" y="685.0" name="top"/>
  <outline>
    <contour>
      <point x="-47.5" y="554.0" type="line"/>
      <point x="47.0" y="554.0" type="line"/>
      <point x="220.0" y="765.0" type="line"/>
      <point x="81.5" y="765.0" type="line"/>
    </contour>
  </outline>
</glyph>
<glyph name="circumflexcomb" format="2">
  <unicode hex="0302"/>
  <anchor x="0.0" y="484.0" name="_top"/>
  <anchor x="0.0" y="685.0" name="top"/>
  <outline>
    <contour>
      <point x="-199.5" y="554.0" type="line"/>
      <point x="-109.5" y="554.0" type="line"/>
      <point x="0.0" y="690.0" type="line"/>
      <point x="109.0" y="554.0" type="line"/>
      <point x="199.0" y="554.0" type="line"/>
      <point x="61.5" y="765.0" type="line"/>
      <point x="-62.0" y="765.0" type="line"/>
    </contour>
  </outline>
</glyph>
<glyph name="tildecomb" format="2">
  <unicode hex="0303"/>
  <anchor x="0.0" y="484.0" name="_top"/>
  <anchor x="0.0" y="685.0" name="top"/>
  <outline>
    <contour>
      <point x="-161.0" y="584.0" type="line"/>
      <point x="-149.5" y="638.0"/>
      <point x="-129.5" y="659.0"/>
      <point x="-92.0" y="659.0" type="curve" smooth="yes"/>
      <point x="-61.5" y="659.0"/>
      <point x="-38.5" y="643.5"/>
      <point x="-13.0" y="627.0" type="curve" smooth="yes"/>
      <point x="19.5" y="605.0"/>
      <point x="47.0" y="588.0"/>
      <point x="92.0" y="588.0" type="curve" smooth="yes"/>
      <point x="177.0" y="588.0"/>
      <point x="229.5" y="649.0"/>
      <point x="236.5" y="744.0" type="curve"/>
      <point x="160.5" y="748.0" type="line"/>
      <point x="151.0" y="694.5"/>
      <point x="129.5" y="673.0"/>
      <point x="92.0" y="673.0" type="curve" smooth="yes"/>
      <point x="62.5" y="673.0"/>
      <point x="39.0" y="688.0"/>
      <point x="13.5" y="704.5" type="curve" smooth="yes"/>
      <point x="-16.0" y="722.5"/>
      <point x="-44.5" y="744.0"/>
      <point x="-91.5" y="744.0" type="curve" smooth="yes"/>
      <point x="-175.0" y="744.0"/>
      <point x="-227.5" y="681.5"/>
      <point x="-236.5" y="588.0" type="curve"/>
    </contour>
  </outline>
</glyph>
<glyph name="macroncomb" format="2">
  <unicode hex="0304"/>
  <anchor x="0.0" y="484.0" name="_top"/>
  <anchor x="0.0" y="685.0" name="top"/>
  <outline>
    <contour>
      <point x="-194.5" y="612.0" type="line"/>
      <point x="195.5" y="612.0" type="line"/>
      <point x="195.5" y="694.0" type="line"/>
      <point x="-194.5" y="694.0" type="line"/>
    </contour>
  </outline>
</glyph>
<glyph name="brevecomb" format="2">
  <unicode hex="0306"/>
  <anchor x="0.0" y="484.0" name="_top"/>
  <anchor x="0.0" y="685.0" name="top"/>
  <outline>
    <contour>
      <point x="-0.5" y="551.5" type="curve" smooth="yes"/>
      <point x="124.5" y="551.5"/>
      <point x="194.0" y="617.5"/>
      <point x="203.0" y="751.0" type="curve"/>
      <point x="122.5" y="759.0" type="line"/>
      <point x="113.0" y="668.0"/>
      <point x="72.5" y="633.0"/>
      <point x="-0.5" y="633.0" type="curve" smooth="yes"/>
      <point x="-73.5" y="633.0"/>
      <point x="-114.0" y="668.0"/>
      <point x="-123.5" y="759.0" type="curve"/>
      <point x="-204.0" y="751.0" type="line"/>
      <point x="-194.0" y="617.5"/>
      <point x="-124.5" y="551.5"/>
    </contour>
  </outline>
</glyph>
<glyph name="hookabovecomb" format="2">
  <unicode hex="0309"/>
  <anchor x="0.0" y="484.0" name="_top"/>
  <anchor x="0.0" y="685.0" name="top"/>
  <outline>
    <contour>
      <point x="-43.0" y="554.0" type="line"/>
      <point x="42.5" y="554.0" type="line"/>
      <point x="42.5" y="568.0" type="line" smooth="yes"/>
      <point x="42.5" y="620.5"/>
      <point x="137.0" y="623.5"/>
      <point x="137.0" y="691.0" type="curve" smooth="yes"/>
      <point x="137.0" y="739.0"/>
      <point x="90.5" y="765.0"/>
      <point x="4.5" y="765.0" type="curve" smooth="yes"/>
      <point x="-44.5" y="765.0"/>
      <point x="-88.5" y="756.0"/>
      <point x="-121.0" y="740.0" type="curve"/>
      <point x="-98.5" y="682.5" type="line"/>
      <point x="-73.0" y="694.0"/>
      <point x="-50.0" y="698.5"/>
      <point x="-24.5" y="698.5" type="curve" smooth="yes"/>
      <point x="13.0" y="698.5"/>
      <point x="30.5" y="690.0"/>
      <point x="30.5" y="673.0" type="curve" smooth="yes"/>
      <point x="30.5" y="638.5"/>
      <point x="-43.0" y="628.5"/>
      <point x="-43.0" y="573.5" type="curve" smooth="yes"/>
    </contour>
  </outline>
</glyph>
<glyph name="ringcomb" format="2">
  <unicode hex="030A"/>
  <anchor x="0.0" y="484.0" name="_top"/>
  <anchor x="0.0" y="685.0" name="top"/>
  <outline>
    <contour>
      <point x="-0.5" y="551.0" type="curve" smooth="yes"/>
      <point x="80.5" y="551.0"/>
      <point x="139.5" y="606.5"/>
      <point x="139.5" y="680.0" type="curve" smooth="yes"/>
      <point x="139.5" y="753.5"/>
      <point x="80.5" y="808.0"/>
      <point x="-0.5" y="808.0" type="curve" smooth="yes"/>
      <point x="-81.5" y="808.0"/>
      <point x="-140.5" y="753.5"/>
      <point x="-140.5" y="680.0" type="curve" smooth="yes"/>
      <point x="-140.5" y="606.5"/>
      <point x="-81.5" y="551.0"/>
    </contour>
    <contour>
      <point x="-0.5" y="606.5" type="curve" smooth="yes"/>
      <point x="-44.0" y="606.5"/>
      <point x="-73.5" y="637.0"/>
      <point x="-73.5" y="680.0" type="curve" smooth="yes"/>
      <point x="-73.5" y="722.0"/>
      <point x="-44.0" y="753.0"/>
      <point x="-0.5" y="753.0" type="curve" smooth="yes"/>
      <point x="44.0" y="753.0"/>
      <point x="72.5" y="722.0"/>
      <point x="72.5" y="680.0" type="curve" smooth="yes"/>
      <point x="72.5" y="637.0"/>
      <point x="44.0" y="606.5"/>
    </contour>
  </outline>
</glyph>
<glyph name="hungarumlautcomb" format="2">
  <unicode hex="030B"/>
  <anchor x="0.0" y="484.0" name="_top"/>
  <anchor x="0.0" y="685.0" name="top"/>
  <outline>
    <contour>
      <point x="50.0" y="554.0" type="line"/>
      <point x="124.0" y="554.0" type="line"/>
      <point x="232.0" y="764.5" type="line"/>
      <point x="113.0" y="764.5" type="line"/>
    </contour>
    <contour>
      <point x="-127.5" y="554.0" type="line"/>
      <point x="-54.0" y="554.0" type="line"/>
      <point x="55.0" y="764.5" type="line"/>
      <point x="-63.5" y="764.5" type="line"/>
    </contour>
  </outline>
</glyph>
<glyph name="dblgravecomb" format="2">
  <unicode hex="030F"/>
  <anchor x="0.0" y="484.0" name="_top"/>
  <anchor x="0.0" y="685.0" name="top"/>
  <outline>
    <contour>
      <point x="53.5" y="554.0" type="line"/>
      <point x="127.0" y="554.0" type="line"/>
      <point x="64.0" y="765.0" type="line"/>
      <point x="-54.5" y="765.0" type="line"/>
    </contour>
    <contour>
      <point x="-123.5" y="554.0" type="line"/>
      <point x="-49.5" y="554.0" type="line"/>
      <point x="-113.5" y="765.0" type="line"/>
      <point x="-232.5" y="765.0" type="line"/>
    </contour>
  </outline>
</glyph>
<glyph name="breveinvertedcomb" format="2">
  <unicode hex="0311"/>
  <anchor x="0.0" y="484.0" name="_top"/>
  <anchor x="0.0" y="685.0" name="top"/>
  <outline>
    <contour>
      <point x="-123.5" y="551.5" type="line"/>
      <point x="-114.0" y="641.5"/>
      <point x="-73.5" y="677.5"/>
      <point x="-0.5" y="677.5" type="curve" smooth="yes"/>
      <point x="72.5" y="677.5"/>
      <point x="113.0" y="641.5"/>
      <point x="122.5" y="551.5" type="curve"/>
      <point x="203.0" y="558.5" type="line"/>
      <point x="194.0" y="692.0"/>
      <point x="124.5" y="759.0"/>
      <point x="-0.5" y="759.0" type="curve" smooth="yes"/>
      <point x="-124.5" y="759.0"/>
      <point x="-194.0" y="692.0"/>
      <point x="-204.0" y="558.5" type="curve"/>
    </contour>
  </outline>
</glyph>
<glyph name="commaturnedabovecomb" format="2">
  <unicode hex="0312"/>
  <anchor x="0.0" y="484.0" name="_top"/>
  <anchor x="0.0" y="685.0" name="top"/>
  <outline>
    <contour>
      <point x="-64.5" y="564.0" type="line"/>
      <point x="63.0" y="564.0" type="line"/>
      <point x="63.0" y="679.0" type="line"/>
      <point x="-26.0" y="679.0" type="line"/>
      <point x="-1.0" y="659.5" type="line"/>
      <point x="-0.5" y="693.0"/>
      <point x="13.0" y="716.5"/>
      <point x="46.5" y="752.0" type="curve"/>
      <point x="6.5" y="785.0" type="line"/>
      <point x="-42.5" y="743.5"/>
      <point x="-64.5" y="701.0"/>
      <point x="-64.5" y="643.5" type="curve" smooth="yes"/>
    </contour>
  </outline>
</glyph>
<glyph name="horncomb" format="2">
  <unicode hex="031B"/>
  <anchor x="0.5" y="484.0" name="_topright"/>
  <outline>
    <contour>
      <point x="77.0" y="424.5" type="line"/>
      <point x="185.0" y="430.5"/>
      <point x="248.0" y="485.5"/>
      <point x="248.0" y="576.5" type="curve" smooth="yes"/>
      <point x="248.0" y="616.0" type="line"/>
      <point x="128.0" y="616.0" type="line"/>
      <point x="128.0" y="594.0" type="line" smooth="yes"/>
      <point x="128.0" y="514.0"/>
      <point x="98.0" y="490.0"/>
      <point x="0.5" y="489.0" type="curve"/>
      <point x="0.5" y="474.5" type="line"/>
    </contour>
  </outline>
</glyph>
<glyph name="dieresisbelowcomb" format="2">
  <unicode hex="0324"/>
  <anchor x="0.0" y="0.0" name="_bottom"/>
  <anchor x="0.0" y="-170.0" name="bottom"/>
  <outline>
    <contour>
      <point x="49.5" y="-197.0" type="line"/>
      <point x="181.0" y="-197.0" type="line"/>
      <point x="181.0" y="-73.5" type="line"/>
      <point x="49.5" y="-73.5" type="line"/>
    </contour>
    <contour>
      <point x="-181.0" y="-197.0" type="line"/>
      <point x="-49.5" y="-197.0" type="line"/>
      <point x="-49.5" y="-73.5" type="line"/>
      <point x="-181.0" y="-73.5" type="line"/>
    </contour>
  </outline>
</glyph>
<glyph name="cedillacomb" format="2">
  <unicode hex="0327"/>
  <anchor x="0.0" y="0.0" name="_bottom"/>
  <outline>
    <contour>
      <point x="11.5" y="-195.0" type="curve" smooth="yes"/>
      <point x="107.0" y="-195.0"/>
      <point x="159.5" y="-163.5"/>
      <point x="159.5" y="-108.5" type="curve" smooth="yes"/>
      <point x="159.5" y="-61.5"/>
      <point x="123.0" y="-36.0"/>
      <point x="54.5" y="-36.0" type="curve" smooth="yes"/>
      <point x="35.0" y="-36.0"/>
      <point x="17.5" y="-38.5"/>
      <point x="-8.5" y="-45.0" type="curve"/>
      <point x="27.0" y="-56.0" type="line"/>
      <point x="40.0" y="20.0" type="line"/>
      <point x="-36.0" y="20.0" type="line"/>
      <point x="-48.5" y="-68.0" type="line"/>
      <point x="-27.5" y="-88.0" type="line"/>
      <point x="-6.5" y="-83.0"/>
      <point x="10.5" y="-82.0"/>
      <point x="27.0" y="-82.0" type="curve" smooth="yes"/>
      <point x="60.5" y="-82.0"/>
      <point x="75.0" y="-88.5"/>
      <point x="75.0" y="-104.5" type="curve" smooth="yes"/>
      <point x="75.0" y="-123.0"/>
      <point x="56.0" y="-133.0"/>
      <point x="6.5" y="-133.0" type="curve" smooth="yes"/>
      <point x="-30.5" y="-133.0"/>
      <point x="-52.5" y="-128.0"/>
      <point x="-87.0" y="-115.0" type="curve"/>
      <point x="-108.5" y="-173.0" type="line"/>
      <point x="-80.0" y="-187.5"/>
      <point x="-35.0" y="-195.0"/>
    </contour>
  </outline>
</glyph>
<glyph name="ogonekcomb" format="2">
  <unicode hex="0328"/>
  <anchor x="0.0" y="0.0" name="_ogonek"/>
  <outline>
    <contour>
      <point x="-23.0" y="-195.0" type="curve" smooth="yes"/>
      <point x="14.0" y="-195.0"/>
      <point x="46.5" y="-189.5"/>
      <point x="78.5" y="-177.0" type="curve"/>
      <point x="60.5" y="-112.0" type="line"/>
      <point x="36.5" y="-119.5"/>
      <point x="16.5" y="-124.0"/>
      <point x="-6.5" y="-124.0" type="curve" smooth="yes"/>
      <point x="-52.5" y="-124.0"/>
      <point x="-78.5" y="-106.0"/>
      <point x="-78.5" y="-76.5" type="curve" smooth="yes"/>
      <point x="-78.5" y="-46.0"/>
      <point x="-51.0" y="-19.5"/>
      <point x="0.0" y="0.0" type="curve"/>
      <point x="-38.5" y="39.0" type="line"/>
      <point x="-127.5" y="6.0"/>
      <point x="-168.0" y="-37.0"/>
      <point x="-168.0" y="-94.0" type="curve" smooth="yes"/>
      <point x="-168.0" y="-158.5"/>
      <point x="-117.5" y="-195.0"/>
    </contour>
  </outline>
</glyph>
<glyph name="brevebelowcomb" format="2">
  <unicode hex="032E"/>
  <anchor x="0.0" y="0.0" name="_bottom"/>
  <anchor x="0.0" y="-170.0" name="bottom"/>
  <outline>
    <contour>
      <point x="-0.5" y="-215.0" type="curve" smooth="yes"/>
      <point x="120.5" y="-215.0"/>
      <point x="194.5" y="-156.5"/>
      <point x="203.0" y="-55.0" type="curve"/>
      <point x="122.5" y="-47.0" type="line"/>
      <point x="113.0" y="-103.5"/>
      <point x="70.5" y="-134.0"/>
      <point x="-0.5" y="-134.0" type="curve" smooth="yes"/>
      <point x="-71.5" y="-134.0"/>
      <point x="-114.0" y="-103.5"/>
      <point x="-123.5" y="-47.0" type="curve"/>
      <point x="-204.0" y="-55.0" type="line"/>
      <point x="-194.5" y="-156.5"/>
      <point x="-120.5" y="-215.0"/>
    </contour>
  </outline>
</glyph>
<glyph name="macronbelowcomb" format="2">
  <unicode hex="0331"/>
  <anchor x="0.0" y="0.0" name="_bottom"/>
  <anchor x="0.0" y="-170.0" name="bottom"/>
  <outline>
    <contour>
      <point x="-194.5" y="-170.0" type="line"/>
      <point x="195.5" y="-170.0" type="line"/>
      <point x="195.5" y="-88.0" type="line"/>
      <point x="-194.5" y="-88.0" type="line"/>
    </contour>
  </outline>
</glyph>
<glyph name="strokeshortcomb" format="2">
  <unicode hex="0335"/>
  <anchor x="0.0" y="580.0" name="_stroke"/>
  <outline>
    <contour>
      <point x="-242.5" y="532.0" type="line"/>
      <point x="243.5" y="532.0" type="line"/>
      <point x="243.5" y="628.0" type="line"/>
      <point x="-242.5" y="628.0" type="line"/>
    </contour>
  </outline>
</glyph>
<glyph name="slashshortcomb" format="2">
  <unicode hex="0337"/>
  <anchor x="0.0" y="358.0" name="_center"/>
  <outline>
    <contour>
      <point x="-159.5" y="221.5" type="line"/>
      <point x="208.0" y="403.5" type="line"/>
      <point x="162.0" y="495.0" type="line"/>
      <point x="-205.5" y="312.5" type="line"/>
    </contour>
  </outline>
</glyph>
<glyph name="slashlongcomb" format="2">
  <unicode hex="0338"/>
  <anchor x="0.0" y="248.0" name="_center"/>
  <outline>
    <contour>
      <point x="-170.5" y="-58.5" type="line"/>
      <point x="244.0" y="504.0" type="line"/>
      <point x="170.5" y="551.5" type="line"/>
      <point x="-244.0" y="-11.0" type="line"/>
    </contour>
  </outline>
</glyph>
<glyph name="Delta" format="2">
  <advance width="918.5"/>
  <unicode hex="0394"/>
  <outline>
    <contour>
      <point x="46.5" y="0.0" type="line"/>
      <point x="873.0" y="0.0" type="line"/>
      <point x="873.0" y="90.0" type="line"/>
      <point x="517.5" y="705.0" type="line"/>
      <point x="404.0" y="705.0" type="line"/>
      <point x="46.5" y="90.0" type="line"/>
    </contour>
    <contour>
      <point x="459.5" y="584.5" type="line"/>
      <point x="461.5" y="584.5" type="line"/>
      <point x="750.5" y="72.0" type="line"/>
      <point x="750.5" y="111.0" type="line"/>
      <point x="169.0" y="111.0" type="line"/>
      <point x="169.0" y="72.0" type="line"/>
    </contour>
  </outline>
</glyph>
<glyph name="Sigma" format="2">
  <advance width="748.0"/>
  <unicode hex="03A3"/>
  <outline>
    <contour>
      <point x="47.0" y="-180.0" type="line"/>
      <point x="701.0" y="-180.0" type="line"/>
      <point x="701.0" y="-67.0" type="line"/>
      <point x="209.0" y="-67.0" type="line"/>
      <point x="209.0" y="-94.0" type="line"/>
      <point x="512.5" y="227.5" type="line"/>
      <point x="512.5" y="297.5" type="line"/>
      <point x="209.0" y="619.0" type="line"/>
      <point x="209.0" y="592.0" type="line"/>
      <point x="701.0" y="592.0" type="line"/>
      <point x="701.0" y="705.0" type="line"/>
      <point x="47.0" y="705.0" type="line"/>
      <point x="47.0" y="602.0" type="line"/>
      <point x="386.5" y="242.0" type="line"/>
      <point x="386.5" y="284.0" type="line"/>
      <point x="47.0" y="-77.0" type="line"/>
    </contour>
  </outline>
</glyph>
<glyph name="Omega" format="2">
  <advance width="984.0"/>
  <unicode hex="03A9"/>
  <outline>
    <contour>
      <point x="45.0" y="0.0" type="line"/>
      <point x="424.0" y="0.0" type="line"/>
      <point x="424.0" y="110.5" type="line"/>
      <point x="272.0" y="189.0"/>
      <point x="209.0" y="270.0"/>
      <point x="209.0" y="380.5" type="curve" smooth="yes"/>
      <point x="209.0" y="519.0"/>
      <point x="306.5" y="595.5"/>
      <point x="493.0" y="595.5" type="curve" smooth="yes"/>
      <point x="680.0" y="595.5"/>
      <point x="776.0" y="518.0"/>
      <point x="776.0" y="380.5" type="curve" smooth="yes"/>
      <point x="776.0" y="270.0"/>
      <point x="713.0" y="189.0"/>
      <point x="561.0" y="110.5" type="curve"/>
      <point x="561.0" y="0.0" type="line"/>
      <point x="940.0" y="0.0" type="line"/>
      <point x="940.0" y="115.5" type="line"/>
      <point x="637.5" y="115.5" type="line"/>
      <point x="637.5" y="80.0" type="line"/>
      <point x="826.0" y="145.5"/>
      <point x="925.0" y="252.5"/>
      <point x="925.0" y="402.5" type="curve" smooth="yes"/>
      <point x="925.0" y="592.5"/>
      <point x="763.5" y="715.5"/>
      <point x="493.0" y="715.5" type="curve" smooth="yes"/>
      <point x="221.5" y="715.5"/>
      <point x="60.0" y="593.0"/>
      <point x="60.0" y="402.5" type="curve" smooth="yes"/>
      <point x="60.0" y="252.5"/>
      <point x="160.0" y="145.5"/>
      <point x="348.5" y="80.0" type="curve"/>
      <point x="348.5" y="115.5" type="line"/>
      <point x="45.0" y="115.5" type="line"/>
    </contour>
  </outline>
</glyph>
<glyph name="mu" format="2">
  <advance width="716.0"/>
  <unicode hex="03BC"/>
  <outline>
    <contour>
      <point x="81.5" y="-180.0" type="line"/>
      <point x="219.5" y="-180.0" type="line"/>
      <point x="208.0" y="47.0" type="line"/>
      <point x="205.0" y="47.0" type="line"/>
      <point x="232.0" y="5.0"/>
      <point x="276.3635" y="-10.0"/>
      <point x="332.5" y="-10.0" type="curve" smooth="yes"/>
      <point x="420.0" y="-10.0"/>
      <point x="473.0" y="32.5"/>
      <point x="499.5" y="103.5" type="curve"/>
      <point x="496.5" y="103.5" type="line"/>
      <point x="496.5" y="0.0" type="line"/>
      <point x="631.5" y="0.0" type="line"/>
      <point x="631.5" y="489.0" type="line"/>
      <point x="493.5" y="489.0" type="line"/>
      <point x="493.5" y="239.0" type="line" smooth="yes"/>
      <point x="493.5" y="159.0"/>
      <point x="433.5" y="98.0"/>
      <point x="337.5" y="98.0" type="curve" smooth="yes"/>
      <point x="262.5" y="98.0"/>
      <point x="219.5" y="128.0"/>
      <point x="219.5" y="223.0" type="curve" smooth="yes"/>
      <point x="219.5" y="489.0" type="line"/>
      <point x="81.5" y="489.0" type="line"/>
    </contour>
  </outline>
</glyph>
<glyph name="pi" format="2">
  <advance width="749.5"/>
  <unicode hex="03C0"/>
  <outline>
    <contour>
      <point x="649.0" y="-8.5" type="curve" smooth="yes"/>
      <point x="672.0" y="-8.5"/>
      <point x="699.0" y="-6.5"/>
      <point x="733.0" y="-2.5" type="curve"/>
      <point x="737.0" y="108.0" type="line"/>
      <point x="717.0" y="104.5"/>
      <point x="696.5" y="103.5"/>
      <point x="679.5" y="103.5" type="curve" smooth="yes"/>
      <point x="582.5" y="103.5"/>
      <point x="562.0" y="151.0"/>
      <point x="562.0" y="212.0" type="curve" smooth="yes"/>
      <point x="562.0" y="388.5" type="line"/>
      <point x="705.0" y="388.5" type="line"/>
      <point x="705.0" y="489.0" type="line"/>
      <point x="15.0" y="489.0" type="line"/>
      <point x="15.0" y="388.5" type="line"/>
      <point x="137.0" y="388.5" type="line"/>
      <point x="134.0" y="260.5"/>
      <point x="106.0" y="145.0"/>
      <point x="49.5" y="-1.0" type="curve"/>
      <point x="194.0" y="-1.0" type="line"/>
      <point x="248.0" y="120.0"/>
      <point x="272.5" y="237.5"/>
      <point x="275.0" y="388.5" type="curve"/>
      <point x="424.0" y="388.5" type="line"/>
      <point x="424.0" y="200.0" type="line" smooth="yes"/>
      <point x="424.0" y="62.0"/>
      <point x="498.0" y="-8.5"/>
    </contour>
  </outline>
</glyph>
<glyph name="Dje-cy" format="2">
  <advance width="1072.5"/>
  <unicode hex="0402"/>
  <outline>
    <contour>
      <point x="724.0" y="-190.0" type="curve" smooth="yes"/>
      <point x="906.0" y="-190.0"/>
      <point x="1008.0" y="-105.0"/>
      <point x="1008.0" y="55.5" type="curve" smooth="yes"/>
      <point x="1008.0" y="155.5" type="line" smooth="yes"/>
      <point x="1008.0" y="349.0"/>
      <point x="892.0" y="444.5"/>
      <point x="658.5" y="444.5" type="curve" smooth="yes"/>
      <point x="580.0" y="444.5"/>
      <point x="501.5" y="434.0"/>
      <point x="455.0" y="416.0" type="curve"/>
      <point x="455.0" y="588.5" type="line"/>
      <point x="761.0" y="588.5" type="line"/>
      <point x="761.0" y="705.0" type="line"/>
      <point x="3.5" y="705.0" type="line"/>
      <point x="3.5" y="588.5" type="line"/>
      <point x="309.5" y="588.5" type="line"/>
      <point x="309.5" y="0.0" type="line"/>
      <point x="455.0" y="0.0" type="line"/>
      <point x="455.0" y="297.5" type="line"/>
      <point x="510.5" y="315.5"/>
      <point x="574.0" y="325.0"/>
      <point x="639.5" y="325.0" type="curve" smooth="yes"/>
      <point x="795.0" y="325.0"/>
      <point x="862.5" y="271.5"/>
      <point x="862.5" y="149.5" type="curve" smooth="yes"/>
      <point x="862.5" y="50.0" type="line" smooth="yes"/>
      <point x="862.5" y="-38.5"/>
      <point x="811.0" y="-79.0"/>
      <point x="710.0" y="-79.0" type="curve" smooth="yes"/>
      <point x="678.0" y="-79.0"/>
      <point x="636.5" y="-74.5"/>
      <point x="602.5" y="-65.5" type="curve"/>
      <point x="577.0" y="-169.0" type="line"/>
      <point x="615.0" y="-182.5"/>
      <point x="670.5" y="-190.0"/>
    </contour>
  </outline>
</glyph>
